%TF.GenerationSoftware,KiCad,Pcbnew,9.0.4*%
%TF.CreationDate,2025-09-26T18:44:48-06:00*%
%TF.ProjectId,crommeter,63726f6d-6d65-4746-9572-2e6b69636164,rev?*%
%TF.SameCoordinates,Original*%
%TF.FileFunction,Legend,Top*%
%TF.FilePolarity,Positive*%
%FSLAX46Y46*%
G04 Gerber Fmt 4.6, Leading zero omitted, Abs format (unit mm)*
G04 Created by KiCad (PCBNEW 9.0.4) date 2025-09-26 18:44:48*
%MOMM*%
%LPD*%
G01*
G04 APERTURE LIST*
%ADD10C,0.000000*%
G04 APERTURE END LIST*
D10*
%TO.C,G\u002A\u002A\u002A*%
G36*
X90874452Y-99922457D02*
G01*
X91109431Y-99932641D01*
X91290612Y-99946848D01*
X91443569Y-99969321D01*
X91593879Y-100004307D01*
X91767119Y-100056049D01*
X91859407Y-100085944D01*
X92412227Y-100301028D01*
X92979114Y-100588465D01*
X93562352Y-100949561D01*
X94164224Y-101385623D01*
X94257812Y-101458809D01*
X94470327Y-101636545D01*
X94721075Y-101862540D01*
X94997477Y-102124070D01*
X95286955Y-102408412D01*
X95576931Y-102702844D01*
X95854828Y-102994642D01*
X96108069Y-103271082D01*
X96324075Y-103519441D01*
X96457155Y-103683593D01*
X96937893Y-104338131D01*
X97355494Y-104979397D01*
X97708618Y-105604374D01*
X97995926Y-106210046D01*
X98216081Y-106793395D01*
X98367744Y-107351405D01*
X98449576Y-107881060D01*
X98464687Y-108208206D01*
X98461879Y-108440665D01*
X98451460Y-108604962D01*
X98430435Y-108712175D01*
X98395807Y-108773384D01*
X98344581Y-108799666D01*
X98303792Y-108803281D01*
X98239484Y-108796205D01*
X98196770Y-108762901D01*
X98161764Y-108685252D01*
X98128873Y-108575077D01*
X97820864Y-107572504D01*
X97474340Y-106637962D01*
X97087808Y-105769270D01*
X96659780Y-104964248D01*
X96188765Y-104220717D01*
X95673272Y-103536496D01*
X95111811Y-102909405D01*
X94502891Y-102337264D01*
X93845022Y-101817893D01*
X93225903Y-101403682D01*
X92788678Y-101151955D01*
X92298103Y-100901873D01*
X91779590Y-100664935D01*
X91258552Y-100452642D01*
X90760398Y-100276492D01*
X90676015Y-100249788D01*
X90512458Y-100197751D01*
X90410461Y-100158896D01*
X90355516Y-100123731D01*
X90333117Y-100082764D01*
X90328754Y-100026503D01*
X90328749Y-100022578D01*
X90328749Y-99903106D01*
X90874452Y-99922457D01*
G37*
G36*
X95053642Y-88332241D02*
G01*
X95088008Y-88364624D01*
X95091249Y-88395767D01*
X95077860Y-88452649D01*
X95040185Y-88572912D01*
X94981956Y-88745674D01*
X94906910Y-88960052D01*
X94818780Y-89205164D01*
X94737793Y-89425713D01*
X94506713Y-90058935D01*
X94307132Y-90628151D01*
X94136960Y-91141275D01*
X93994108Y-91606218D01*
X93876487Y-92030894D01*
X93782008Y-92423214D01*
X93708580Y-92791093D01*
X93654115Y-93142442D01*
X93616524Y-93485173D01*
X93598116Y-93741874D01*
X93603231Y-94347796D01*
X93685230Y-94950570D01*
X93841746Y-95542618D01*
X94070411Y-96116361D01*
X94368858Y-96664221D01*
X94629398Y-97043421D01*
X94792274Y-97245387D01*
X94992020Y-97471064D01*
X95213165Y-97704822D01*
X95440237Y-97931029D01*
X95657762Y-98134056D01*
X95850269Y-98298271D01*
X95936646Y-98364067D01*
X96050116Y-98455019D01*
X96107313Y-98530462D01*
X96123124Y-98610056D01*
X96123124Y-98610321D01*
X96116866Y-98680831D01*
X96083392Y-98713063D01*
X96000646Y-98721573D01*
X95954452Y-98721631D01*
X95826553Y-98707736D01*
X95663572Y-98672631D01*
X95525517Y-98631879D01*
X95139388Y-98460168D01*
X94770826Y-98218083D01*
X94427903Y-97914054D01*
X94118691Y-97556513D01*
X93851260Y-97153889D01*
X93633682Y-96714615D01*
X93593171Y-96613541D01*
X93395297Y-96026622D01*
X93241602Y-95419723D01*
X93166721Y-95008960D01*
X93138675Y-94756566D01*
X93119824Y-94446988D01*
X93110166Y-94101884D01*
X93109701Y-93742910D01*
X93118425Y-93391722D01*
X93136337Y-93069979D01*
X93163436Y-92799336D01*
X93166898Y-92774172D01*
X93273768Y-92179231D01*
X93428239Y-91571078D01*
X93633090Y-90941814D01*
X93891103Y-90283540D01*
X94205059Y-89588355D01*
X94488679Y-89019062D01*
X94610282Y-88784820D01*
X94702527Y-88611841D01*
X94771995Y-88490616D01*
X94825270Y-88411634D01*
X94868932Y-88365387D01*
X94909562Y-88342363D01*
X94953744Y-88333055D01*
X94964241Y-88331938D01*
X95053642Y-88332241D01*
G37*
G36*
X98277975Y-82103515D02*
G01*
X98294802Y-82849269D01*
X98321823Y-83533315D01*
X98360499Y-84172836D01*
X98412290Y-84785016D01*
X98478653Y-85387040D01*
X98561050Y-85996092D01*
X98660940Y-86629356D01*
X98663812Y-86646469D01*
X98908346Y-87902835D01*
X99210641Y-89104902D01*
X99571014Y-90253150D01*
X99989782Y-91348058D01*
X100467264Y-92390107D01*
X101003778Y-93379778D01*
X101599641Y-94317549D01*
X102255172Y-95203902D01*
X102970688Y-96039315D01*
X103746508Y-96824270D01*
X104582948Y-97559246D01*
X105480327Y-98244723D01*
X106438963Y-98881182D01*
X106977655Y-99202047D01*
X107266018Y-99360820D01*
X107609206Y-99539115D01*
X107988045Y-99727744D01*
X108383359Y-99917518D01*
X108775974Y-100099250D01*
X109146714Y-100263751D01*
X109476405Y-100401834D01*
X109507702Y-100414363D01*
X109727763Y-100502732D01*
X109884510Y-100568659D01*
X109988637Y-100618398D01*
X110050838Y-100658201D01*
X110081807Y-100694321D01*
X110092236Y-100733010D01*
X110093093Y-100756640D01*
X110087324Y-100811711D01*
X110063633Y-100845973D01*
X110012501Y-100858330D01*
X109924407Y-100847688D01*
X109789831Y-100812952D01*
X109599252Y-100753026D01*
X109358905Y-100672192D01*
X108758679Y-100456784D01*
X108144562Y-100216445D01*
X107531917Y-99958111D01*
X106936107Y-99688719D01*
X106372495Y-99415205D01*
X105856442Y-99144505D01*
X105420292Y-98893874D01*
X104581244Y-98349280D01*
X103811895Y-97773526D01*
X103106816Y-97161074D01*
X102460580Y-96506389D01*
X101867760Y-95803934D01*
X101322928Y-95048173D01*
X100820658Y-94233571D01*
X100778151Y-94158593D01*
X100132291Y-92942594D01*
X99564787Y-91727772D01*
X99075730Y-90514530D01*
X98665208Y-89303269D01*
X98333311Y-88094390D01*
X98080129Y-86888294D01*
X97905752Y-85685384D01*
X97810268Y-84486060D01*
X97793768Y-83290723D01*
X97856341Y-82099776D01*
X97930419Y-81399062D01*
X97962846Y-81142164D01*
X97988230Y-80953474D01*
X98009664Y-80822472D01*
X98030239Y-80738640D01*
X98053047Y-80691460D01*
X98081179Y-80670414D01*
X98117728Y-80664982D01*
X98146235Y-80664843D01*
X98255512Y-80664843D01*
X98277975Y-82103515D01*
G37*
G36*
X158204296Y-109891682D02*
G01*
X158343398Y-109918212D01*
X158522194Y-109963826D01*
X158706127Y-110019546D01*
X158738978Y-110030595D01*
X159201621Y-110227949D01*
X159657387Y-110496667D01*
X160099739Y-110828738D01*
X160522139Y-111216150D01*
X160918049Y-111650894D01*
X161280932Y-112124959D01*
X161604250Y-112630333D01*
X161881465Y-113159007D01*
X162106041Y-113702969D01*
X162271438Y-114254208D01*
X162304254Y-114399218D01*
X162348179Y-114680264D01*
X162372984Y-114998636D01*
X162378667Y-115329410D01*
X162365222Y-115647661D01*
X162332644Y-115928464D01*
X162304545Y-116066093D01*
X162138759Y-116567958D01*
X161900790Y-117053437D01*
X161597097Y-117516904D01*
X161234139Y-117952733D01*
X160818376Y-118355297D01*
X160356268Y-118718969D01*
X159854273Y-119038122D01*
X159318851Y-119307130D01*
X158756461Y-119520366D01*
X158173563Y-119672203D01*
X158162164Y-119674490D01*
X157872492Y-119721234D01*
X157551310Y-119754761D01*
X157226601Y-119773384D01*
X156926349Y-119775414D01*
X156706093Y-119762296D01*
X156573544Y-119745610D01*
X156500579Y-119724174D01*
X156467617Y-119687501D01*
X156455410Y-119628046D01*
X156451626Y-119549075D01*
X156459874Y-119518906D01*
X156519282Y-119510452D01*
X156640361Y-119487363D01*
X156807484Y-119453044D01*
X157005027Y-119410902D01*
X157217361Y-119364345D01*
X157428861Y-119316777D01*
X157623901Y-119271606D01*
X157786855Y-119232239D01*
X157857030Y-119214324D01*
X158504934Y-119015981D01*
X159101502Y-118776257D01*
X159642404Y-118497776D01*
X160123307Y-118183158D01*
X160539878Y-117835028D01*
X160887787Y-117456005D01*
X160992734Y-117316249D01*
X161252727Y-116894917D01*
X161466614Y-116434906D01*
X161630881Y-115950726D01*
X161742013Y-115456884D01*
X161796494Y-114967890D01*
X161790810Y-114498252D01*
X161749714Y-114191728D01*
X161671484Y-113861814D01*
X161563478Y-113545587D01*
X161421501Y-113238178D01*
X161241352Y-112934720D01*
X161018835Y-112630342D01*
X160749750Y-112320178D01*
X160429900Y-111999359D01*
X160055086Y-111663016D01*
X159621111Y-111306281D01*
X159123776Y-110924285D01*
X158605514Y-110545532D01*
X158391643Y-110391312D01*
X158234322Y-110274622D01*
X158124979Y-110187606D01*
X158055045Y-110122405D01*
X158015951Y-110071163D01*
X157999128Y-110026022D01*
X157995937Y-109986617D01*
X157995937Y-109864617D01*
X158204296Y-109891682D01*
G37*
G36*
X103794880Y-55960689D02*
G01*
X103946157Y-56008377D01*
X104061873Y-56054944D01*
X104119794Y-56099240D01*
X104138937Y-56158999D01*
X104139999Y-56189144D01*
X104124514Y-56254959D01*
X104079613Y-56387786D01*
X104007630Y-56581889D01*
X103910895Y-56831528D01*
X103791743Y-57130969D01*
X103652504Y-57474472D01*
X103495512Y-57856302D01*
X103323098Y-58270720D01*
X103137596Y-58711989D01*
X102941337Y-59174373D01*
X102736653Y-59652133D01*
X102658598Y-59833169D01*
X102531090Y-60131661D01*
X102404888Y-60433090D01*
X102286233Y-60722099D01*
X102181370Y-60983333D01*
X102096543Y-61201436D01*
X102041528Y-61350895D01*
X101846110Y-61966788D01*
X101682406Y-62602297D01*
X101551833Y-63245384D01*
X101455809Y-63884009D01*
X101395751Y-64506133D01*
X101373075Y-65099716D01*
X101389199Y-65652719D01*
X101445540Y-66153102D01*
X101464000Y-66257716D01*
X101512195Y-66486568D01*
X101569766Y-66706094D01*
X101640549Y-66923740D01*
X101728383Y-67146957D01*
X101837104Y-67383193D01*
X101970550Y-67639897D01*
X102132558Y-67924519D01*
X102326965Y-68244507D01*
X102557609Y-68607310D01*
X102828327Y-69020377D01*
X103086123Y-69406610D01*
X103336398Y-69780444D01*
X103544311Y-70094124D01*
X103712617Y-70352802D01*
X103844069Y-70561630D01*
X103941421Y-70725760D01*
X104007429Y-70850345D01*
X104044845Y-70940536D01*
X104056425Y-71001485D01*
X104044923Y-71038346D01*
X104013092Y-71056269D01*
X103970236Y-71060468D01*
X103870238Y-71038337D01*
X103781720Y-70994144D01*
X103469890Y-70755251D01*
X103144024Y-70453612D01*
X102815765Y-70101590D01*
X102496755Y-69711544D01*
X102240409Y-69357651D01*
X101890021Y-68809395D01*
X101580222Y-68252880D01*
X101316618Y-67700265D01*
X101104817Y-67163711D01*
X100950425Y-66655378D01*
X100906284Y-66464045D01*
X100868065Y-66192272D01*
X100850465Y-65854528D01*
X100852313Y-65461173D01*
X100872444Y-65022562D01*
X100909689Y-64549053D01*
X100962880Y-64051003D01*
X101030849Y-63538769D01*
X101112428Y-63022709D01*
X101206449Y-62513180D01*
X101311745Y-62020538D01*
X101427147Y-61555141D01*
X101482204Y-61356874D01*
X101569412Y-61062956D01*
X101662335Y-60768432D01*
X101764017Y-60465299D01*
X101877499Y-60145553D01*
X102005825Y-59801190D01*
X102152039Y-59424205D01*
X102319182Y-59006596D01*
X102510299Y-58540358D01*
X102728431Y-58017487D01*
X102962680Y-57462834D01*
X103093860Y-57153051D01*
X103215941Y-56863602D01*
X103325255Y-56603271D01*
X103418133Y-56380841D01*
X103490909Y-56205097D01*
X103539913Y-56084823D01*
X103561471Y-56028827D01*
X103601095Y-55965364D01*
X103674836Y-55942867D01*
X103794880Y-55960689D01*
G37*
G36*
X98991677Y-69075867D02*
G01*
X99341077Y-69185050D01*
X99661391Y-69365227D01*
X99893979Y-69560378D01*
X100033234Y-69708153D01*
X100164155Y-69872068D01*
X100294068Y-70063753D01*
X100430299Y-70294840D01*
X100580175Y-70576958D01*
X100749331Y-70918243D01*
X100866976Y-71164787D01*
X100995501Y-71440015D01*
X101130896Y-71734791D01*
X101269148Y-72039979D01*
X101406250Y-72346442D01*
X101538190Y-72645044D01*
X101660958Y-72926648D01*
X101770544Y-73182117D01*
X101862938Y-73402317D01*
X101934129Y-73578109D01*
X101980108Y-73700358D01*
X101996864Y-73759927D01*
X101996874Y-73760517D01*
X101961280Y-73834076D01*
X101870409Y-73900234D01*
X101748124Y-73945508D01*
X101647916Y-73957656D01*
X101590430Y-73951586D01*
X101543683Y-73924156D01*
X101496372Y-73861530D01*
X101437190Y-73749874D01*
X101380358Y-73630234D01*
X101228077Y-73305922D01*
X101065897Y-72964170D01*
X100898021Y-72613536D01*
X100728651Y-72262579D01*
X100561988Y-71919857D01*
X100402237Y-71593928D01*
X100253597Y-71293351D01*
X100120273Y-71026684D01*
X100006466Y-70802485D01*
X99916378Y-70629313D01*
X99854211Y-70515725D01*
X99837315Y-70487653D01*
X99603262Y-70172675D01*
X99349626Y-69926509D01*
X99080456Y-69751907D01*
X98799804Y-69651624D01*
X98570953Y-69626757D01*
X98437606Y-69633157D01*
X98296168Y-69653974D01*
X98141981Y-69691639D01*
X97970389Y-69748579D01*
X97776732Y-69827222D01*
X97556354Y-69929997D01*
X97304597Y-70059333D01*
X97016802Y-70217658D01*
X96688312Y-70407401D01*
X96314470Y-70630990D01*
X95890617Y-70890853D01*
X95412096Y-71189419D01*
X94874250Y-71529117D01*
X94654687Y-71668638D01*
X94283866Y-71904168D01*
X93972720Y-72100380D01*
X93714240Y-72261011D01*
X93501420Y-72389798D01*
X93327251Y-72490480D01*
X93184726Y-72566794D01*
X93066837Y-72622477D01*
X92966577Y-72661268D01*
X92876937Y-72686905D01*
X92790910Y-72703124D01*
X92701489Y-72713665D01*
X92694104Y-72714363D01*
X92432187Y-72738821D01*
X92432187Y-72627428D01*
X92452270Y-72525921D01*
X92502930Y-72399830D01*
X92530599Y-72348107D01*
X92565281Y-72296493D01*
X92612748Y-72243188D01*
X92680488Y-72182903D01*
X92775991Y-72110348D01*
X92906747Y-72020231D01*
X93080243Y-71907261D01*
X93303971Y-71766149D01*
X93585418Y-71591604D01*
X93711302Y-71514030D01*
X94302037Y-71151322D01*
X94830931Y-70828549D01*
X95302960Y-70542791D01*
X95723095Y-70291130D01*
X96096310Y-70070646D01*
X96427579Y-69878420D01*
X96721874Y-69711534D01*
X96984168Y-69567067D01*
X97219436Y-69442102D01*
X97387982Y-69355988D01*
X97811342Y-69177739D01*
X98222570Y-69071866D01*
X98617428Y-69038024D01*
X98991677Y-69075867D01*
G37*
G36*
X118722067Y-109425577D02*
G01*
X118839240Y-109458384D01*
X118848031Y-109460940D01*
X118971210Y-109500822D01*
X119035552Y-109538111D01*
X119059635Y-109587755D01*
X119062499Y-109633525D01*
X119059186Y-109671707D01*
X119043112Y-109706144D01*
X119005072Y-109742115D01*
X118935862Y-109784898D01*
X118826279Y-109839773D01*
X118667118Y-109912018D01*
X118449176Y-110006912D01*
X118298515Y-110071702D01*
X117696741Y-110337406D01*
X117162487Y-110590234D01*
X116686199Y-110836267D01*
X116258320Y-111081588D01*
X115869293Y-111332282D01*
X115509562Y-111594431D01*
X115169572Y-111874117D01*
X114839765Y-112177425D01*
X114577812Y-112440149D01*
X114115293Y-112971144D01*
X113727569Y-113527772D01*
X113413592Y-114112236D01*
X113172320Y-114726739D01*
X113002705Y-115373483D01*
X112914437Y-115947031D01*
X112897762Y-116406517D01*
X112950575Y-116840700D01*
X113074130Y-117251537D01*
X113269682Y-117640987D01*
X113538486Y-118011010D01*
X113881798Y-118363565D01*
X114300872Y-118700610D01*
X114796962Y-119024103D01*
X114938190Y-119105936D01*
X115630569Y-119459943D01*
X116350558Y-119752313D01*
X117104033Y-119984531D01*
X117896871Y-120158081D01*
X118734947Y-120274448D01*
X119624139Y-120335117D01*
X119826483Y-120341121D01*
X120769062Y-120362892D01*
X120769062Y-120570245D01*
X120769062Y-120777598D01*
X120521015Y-120803707D01*
X120358690Y-120816714D01*
X120145879Y-120827799D01*
X119897338Y-120836785D01*
X119627820Y-120843499D01*
X119352079Y-120847766D01*
X119084870Y-120849412D01*
X118840947Y-120848261D01*
X118635064Y-120844139D01*
X118481975Y-120836871D01*
X118407655Y-120828716D01*
X118272810Y-120798222D01*
X118078136Y-120746418D01*
X117838826Y-120677924D01*
X117570073Y-120597359D01*
X117287069Y-120509342D01*
X117005007Y-120418493D01*
X116739078Y-120329430D01*
X116562187Y-120267597D01*
X116041554Y-120074780D01*
X115539403Y-119875852D01*
X115064048Y-119674718D01*
X114623807Y-119475280D01*
X114226995Y-119281445D01*
X113881928Y-119097114D01*
X113596924Y-118926193D01*
X113384285Y-118775763D01*
X113037380Y-118450016D01*
X112748915Y-118071803D01*
X112521401Y-117644981D01*
X112369297Y-117217031D01*
X112340570Y-117096896D01*
X112320155Y-116963057D01*
X112306858Y-116799845D01*
X112299488Y-116591589D01*
X112296852Y-116322617D01*
X112296787Y-116264531D01*
X112301192Y-115926515D01*
X112317359Y-115642869D01*
X112349613Y-115389565D01*
X112402281Y-115142574D01*
X112479690Y-114877871D01*
X112586165Y-114571428D01*
X112616448Y-114489209D01*
X112919769Y-113777782D01*
X113284468Y-113113359D01*
X113711302Y-112495260D01*
X114201025Y-111922806D01*
X114754393Y-111395316D01*
X115372163Y-110912110D01*
X116055089Y-110472510D01*
X116803929Y-110075833D01*
X117619437Y-109721402D01*
X118123762Y-109534752D01*
X118312575Y-109469610D01*
X118446564Y-109428185D01*
X118545977Y-109408414D01*
X118631062Y-109408232D01*
X118722067Y-109425577D01*
G37*
G36*
X153910521Y-76223196D02*
G01*
X153966195Y-76282716D01*
X154017484Y-76350225D01*
X154058078Y-76356687D01*
X154102869Y-76322403D01*
X154191699Y-76277206D01*
X154299184Y-76259531D01*
X154399251Y-76275691D01*
X154454159Y-76336119D01*
X154463749Y-76358749D01*
X154516523Y-76435019D01*
X154610836Y-76457898D01*
X154618933Y-76457968D01*
X154789832Y-76477611D01*
X154896625Y-76538850D01*
X154944823Y-76645147D01*
X154947258Y-76664332D01*
X154963512Y-76751373D01*
X155006655Y-76791377D01*
X155102315Y-76807095D01*
X155108671Y-76807629D01*
X155221281Y-76837081D01*
X155264367Y-76894696D01*
X155238279Y-76970983D01*
X155143369Y-77056449D01*
X155098443Y-77084231D01*
X154995765Y-77153364D01*
X154943210Y-77210702D01*
X154948224Y-77245745D01*
X154979687Y-77251718D01*
X155006742Y-77286148D01*
X155017153Y-77372453D01*
X155012076Y-77485155D01*
X154992670Y-77598777D01*
X154960094Y-77687840D01*
X154959843Y-77688281D01*
X154916253Y-77790336D01*
X154900615Y-77866874D01*
X154866058Y-77955833D01*
X154781288Y-78058630D01*
X154667538Y-78154520D01*
X154546040Y-78222756D01*
X154530354Y-78228665D01*
X154442078Y-78272844D01*
X154414095Y-78332998D01*
X154415687Y-78367571D01*
X154417983Y-78514216D01*
X154376528Y-78600808D01*
X154284305Y-78637657D01*
X154229727Y-78640781D01*
X154110275Y-78625009D01*
X154030414Y-78584748D01*
X154026569Y-78580505D01*
X153990647Y-78552987D01*
X153947564Y-78567566D01*
X153880743Y-78633058D01*
X153840023Y-78679723D01*
X153713264Y-78793389D01*
X153589251Y-78841893D01*
X153479620Y-78821983D01*
X153439812Y-78791593D01*
X153399036Y-78699086D01*
X153399171Y-78554592D01*
X153429104Y-78412315D01*
X153449419Y-78325642D01*
X153429451Y-78290508D01*
X153351253Y-78283628D01*
X153329885Y-78283593D01*
X153237439Y-78276137D01*
X153200049Y-78241393D01*
X153193749Y-78177577D01*
X153219520Y-78066573D01*
X153262638Y-77995440D01*
X153292885Y-77958534D01*
X153292511Y-77937801D01*
X153249080Y-77930948D01*
X153150155Y-77935678D01*
X153004670Y-77947830D01*
X152844667Y-77960925D01*
X152747850Y-77963809D01*
X152698348Y-77953408D01*
X152680292Y-77926645D01*
X152677812Y-77884479D01*
X152704331Y-77789839D01*
X152763132Y-77701796D01*
X152817290Y-77636950D01*
X152816904Y-77603622D01*
X152782975Y-77585851D01*
X152737712Y-77531964D01*
X152716655Y-77436069D01*
X152720349Y-77330984D01*
X152749336Y-77249527D01*
X152777030Y-77226383D01*
X152821579Y-77172150D01*
X152839462Y-77078800D01*
X152870463Y-76921030D01*
X152946166Y-76790791D01*
X153052086Y-76709557D01*
X153097724Y-76695919D01*
X153181402Y-76667424D01*
X153217805Y-76602969D01*
X153226029Y-76547091D01*
X153246316Y-76455529D01*
X153293949Y-76420994D01*
X153327232Y-76418281D01*
X153418006Y-76436841D01*
X153460166Y-76462447D01*
X153523709Y-76486432D01*
X153575955Y-76447740D01*
X153591886Y-76386173D01*
X153625383Y-76272470D01*
X153705250Y-76203096D01*
X153808093Y-76184516D01*
X153910521Y-76223196D01*
G37*
G36*
X122697932Y-75255641D02*
G01*
X122782418Y-75348521D01*
X122787026Y-75355699D01*
X122841773Y-75433390D01*
X122873845Y-75448264D01*
X122894388Y-75415230D01*
X122944666Y-75365159D01*
X123053172Y-75347025D01*
X123076033Y-75346718D01*
X123186601Y-75357009D01*
X123248664Y-75397395D01*
X123275737Y-75444054D01*
X123315769Y-75504238D01*
X123381469Y-75536438D01*
X123497618Y-75551597D01*
X123522933Y-75553195D01*
X123642523Y-75563020D01*
X123705090Y-75584444D01*
X123732909Y-75632542D01*
X123745624Y-75703906D01*
X123773434Y-75805504D01*
X123835775Y-75859713D01*
X123894452Y-75880785D01*
X123995519Y-75934138D01*
X124022575Y-76007992D01*
X123975969Y-76095079D01*
X123880385Y-76172993D01*
X123793956Y-76233511D01*
X123765923Y-76274678D01*
X123786177Y-76317239D01*
X123801502Y-76334868D01*
X123852142Y-76419985D01*
X123855888Y-76524430D01*
X123811948Y-76666564D01*
X123784440Y-76730193D01*
X123737406Y-76846971D01*
X123709374Y-76941913D01*
X123705937Y-76968592D01*
X123675430Y-77039474D01*
X123599647Y-77128407D01*
X123502190Y-77213999D01*
X123406664Y-77274857D01*
X123349755Y-77291406D01*
X123261962Y-77322570D01*
X123223477Y-77415436D01*
X123224428Y-77501740D01*
X123216995Y-77604388D01*
X123188340Y-77670435D01*
X123108546Y-77716051D01*
X122998289Y-77727032D01*
X122893563Y-77704592D01*
X122834773Y-77658515D01*
X122804467Y-77623450D01*
X122767621Y-77632426D01*
X122707448Y-77693540D01*
X122670201Y-77737890D01*
X122581238Y-77832247D01*
X122499651Y-77875972D01*
X122392346Y-77886717D01*
X122391154Y-77886718D01*
X122269657Y-77872193D01*
X122211928Y-77826061D01*
X122209822Y-77821085D01*
X122202610Y-77745065D01*
X122212953Y-77626841D01*
X122224080Y-77562900D01*
X122243223Y-77448138D01*
X122248232Y-77369334D01*
X122243897Y-77350720D01*
X122193908Y-77336411D01*
X122111822Y-77331093D01*
X122028744Y-77317857D01*
X122000449Y-77266939D01*
X121999374Y-77244354D01*
X122025366Y-77154927D01*
X122087945Y-77060840D01*
X122088671Y-77060043D01*
X122177968Y-76962472D01*
X122041156Y-76988606D01*
X121918674Y-77008966D01*
X121764971Y-77030635D01*
X121693891Y-77039474D01*
X121572289Y-77051912D01*
X121509799Y-77046948D01*
X121486742Y-77016770D01*
X121483437Y-76955966D01*
X121516598Y-76841339D01*
X121572733Y-76771902D01*
X121631291Y-76715743D01*
X121631042Y-76681951D01*
X121592577Y-76654428D01*
X121541581Y-76583773D01*
X121523642Y-76476203D01*
X121539757Y-76367413D01*
X121582655Y-76299218D01*
X121627413Y-76224518D01*
X121642187Y-76140145D01*
X121670922Y-75977107D01*
X121749686Y-75854249D01*
X121867315Y-75787687D01*
X121889372Y-75783281D01*
X121981160Y-75758009D01*
X122020821Y-75702011D01*
X122031654Y-75634452D01*
X122051251Y-75543511D01*
X122098141Y-75508812D01*
X122138453Y-75505468D01*
X122221490Y-75520475D01*
X122257343Y-75545156D01*
X122311451Y-75583404D01*
X122364805Y-75551431D01*
X122382283Y-75515390D01*
X122437129Y-75365712D01*
X122485110Y-75278021D01*
X122537770Y-75237094D01*
X122600477Y-75227656D01*
X122697932Y-75255641D01*
G37*
G36*
X101510656Y-56345801D02*
G01*
X101633290Y-56360196D01*
X101721089Y-56378631D01*
X101746126Y-56389929D01*
X101753580Y-56438111D01*
X101753155Y-56548204D01*
X101745335Y-56703184D01*
X101732742Y-56862917D01*
X101722173Y-56970910D01*
X101709712Y-57071138D01*
X101692960Y-57171744D01*
X101669521Y-57280868D01*
X101637000Y-57406653D01*
X101592998Y-57557241D01*
X101535121Y-57740772D01*
X101460971Y-57965388D01*
X101368152Y-58239231D01*
X101254267Y-58570443D01*
X101116920Y-58967164D01*
X101093339Y-59035156D01*
X100798418Y-59884106D01*
X100527637Y-60660865D01*
X100279884Y-61368492D01*
X100054046Y-62010046D01*
X99849013Y-62588587D01*
X99663672Y-63107174D01*
X99496911Y-63568866D01*
X99347618Y-63976724D01*
X99214682Y-64333807D01*
X99096989Y-64643173D01*
X98993429Y-64907884D01*
X98902889Y-65130997D01*
X98824258Y-65315572D01*
X98757072Y-65463302D01*
X98412836Y-66101251D01*
X98010343Y-66685880D01*
X97550325Y-67216140D01*
X97494092Y-67273262D01*
X97290140Y-67470476D01*
X97088422Y-67648403D01*
X96877573Y-67814769D01*
X96646225Y-67977297D01*
X96383011Y-68143711D01*
X96076566Y-68321734D01*
X95715523Y-68519090D01*
X95468280Y-68649829D01*
X95207948Y-68787588D01*
X94898849Y-68953392D01*
X94561301Y-69136206D01*
X94215622Y-69324991D01*
X93882131Y-69508710D01*
X93662499Y-69630800D01*
X93311029Y-69826805D01*
X93020227Y-69987956D01*
X92781598Y-70118348D01*
X92586648Y-70222074D01*
X92426882Y-70303228D01*
X92293806Y-70365903D01*
X92178923Y-70414194D01*
X92073741Y-70452195D01*
X91969763Y-70483998D01*
X91858496Y-70513699D01*
X91799866Y-70528445D01*
X91576542Y-70581877D01*
X91416950Y-70612659D01*
X91308575Y-70620208D01*
X91238905Y-70603940D01*
X91195424Y-70563273D01*
X91166069Y-70498921D01*
X91141567Y-70430939D01*
X91123955Y-70373472D01*
X91119013Y-70322324D01*
X91132523Y-70273299D01*
X91170266Y-70222201D01*
X91238023Y-70164833D01*
X91341576Y-70097000D01*
X91486707Y-70014504D01*
X91679196Y-69913150D01*
X91924825Y-69788742D01*
X92229375Y-69637083D01*
X92598628Y-69453977D01*
X92621130Y-69442811D01*
X92959959Y-69275083D01*
X93292905Y-69111068D01*
X93609643Y-68955795D01*
X93899846Y-68814295D01*
X94153191Y-68691598D01*
X94359352Y-68592733D01*
X94508004Y-68522729D01*
X94540669Y-68507732D01*
X95214438Y-68163586D01*
X95839890Y-67764615D01*
X96419775Y-67308003D01*
X96956846Y-66790937D01*
X97453855Y-66210603D01*
X97913554Y-65564187D01*
X98338694Y-64848876D01*
X98584382Y-64373124D01*
X98720923Y-64088715D01*
X98848244Y-63810100D01*
X98969304Y-63528946D01*
X99087065Y-63236922D01*
X99204487Y-62925694D01*
X99324531Y-62586930D01*
X99450158Y-62212296D01*
X99584328Y-61793460D01*
X99730002Y-61322089D01*
X99890141Y-60789851D01*
X100050925Y-60245624D01*
X100098684Y-60086951D01*
X100167488Y-59864108D01*
X100253765Y-59588389D01*
X100353944Y-59271087D01*
X100464453Y-58923493D01*
X100581720Y-58556901D01*
X100702174Y-58182603D01*
X100758166Y-58009415D01*
X101302343Y-56328830D01*
X101510656Y-56345801D01*
G37*
G36*
X145922006Y-112383751D02*
G01*
X146902551Y-112393675D01*
X147818659Y-112411967D01*
X148675199Y-112439008D01*
X149477039Y-112475180D01*
X150229050Y-112520865D01*
X150936100Y-112576444D01*
X151603059Y-112642299D01*
X152234796Y-112718811D01*
X152836181Y-112806363D01*
X153412083Y-112905335D01*
X153967371Y-113016110D01*
X154506914Y-113139068D01*
X155022409Y-113271035D01*
X155353422Y-113365249D01*
X155706699Y-113474462D01*
X156066717Y-113593189D01*
X156417956Y-113715945D01*
X156744896Y-113837247D01*
X157032015Y-113951607D01*
X157263792Y-114053543D01*
X157334680Y-114088159D01*
X157424417Y-114137967D01*
X157565413Y-114221288D01*
X157742148Y-114328729D01*
X157939103Y-114450896D01*
X158065390Y-114530440D01*
X158287506Y-114673202D01*
X158448583Y-114783933D01*
X158555796Y-114871188D01*
X158616319Y-114943523D01*
X158637326Y-115009494D01*
X158625992Y-115077656D01*
X158589853Y-115155890D01*
X158551771Y-115199995D01*
X158483862Y-115223534D01*
X158365296Y-115232133D01*
X158305741Y-115232656D01*
X158194588Y-115230021D01*
X158104447Y-115216948D01*
X158015487Y-115185679D01*
X157907874Y-115128461D01*
X157761776Y-115037536D01*
X157692545Y-114992859D01*
X157206264Y-114706958D01*
X156660072Y-114437402D01*
X156072961Y-114191883D01*
X155463923Y-113978093D01*
X154851947Y-113803724D01*
X154622499Y-113749382D01*
X153951698Y-113612848D01*
X153210575Y-113485777D01*
X152407706Y-113368916D01*
X151551663Y-113263013D01*
X150651022Y-113168815D01*
X149714357Y-113087072D01*
X148750241Y-113018531D01*
X147767248Y-112963939D01*
X146773954Y-112924044D01*
X145778931Y-112899595D01*
X144790755Y-112891340D01*
X144785445Y-112891340D01*
X143992959Y-112896178D01*
X143187343Y-112910648D01*
X142364484Y-112935120D01*
X141520267Y-112969963D01*
X140650577Y-113015549D01*
X139751300Y-113072247D01*
X138818321Y-113140428D01*
X137847527Y-113220461D01*
X136834803Y-113312718D01*
X135776034Y-113417567D01*
X134667106Y-113535381D01*
X133503904Y-113666527D01*
X132282315Y-113811378D01*
X130998224Y-113970302D01*
X129647516Y-114143671D01*
X128226076Y-114331855D01*
X127138905Y-114479136D01*
X126543601Y-114560811D01*
X126019585Y-114633483D01*
X125559430Y-114698338D01*
X125155705Y-114756561D01*
X124800981Y-114809337D01*
X124487829Y-114857849D01*
X124208818Y-114903283D01*
X123956521Y-114946823D01*
X123723506Y-114989653D01*
X123502346Y-115032960D01*
X123285610Y-115077927D01*
X123065869Y-115125739D01*
X123020444Y-115135850D01*
X122265742Y-115319655D01*
X121566538Y-115523570D01*
X120899868Y-115755703D01*
X120242767Y-116024161D01*
X119572272Y-116337053D01*
X119460170Y-116392806D01*
X118647371Y-116800312D01*
X118259623Y-116813953D01*
X118082048Y-116819589D01*
X117969150Y-116819310D01*
X117906283Y-116809999D01*
X117878799Y-116788542D01*
X117872049Y-116751823D01*
X117871874Y-116731488D01*
X117909466Y-116633096D01*
X118022378Y-116513341D01*
X118210816Y-116372078D01*
X118474985Y-116209163D01*
X118815091Y-116024453D01*
X119042655Y-115909534D01*
X119464304Y-115707859D01*
X119885584Y-115520438D01*
X120312633Y-115345668D01*
X120751588Y-115181950D01*
X121208586Y-115027681D01*
X121689766Y-114881261D01*
X122201264Y-114741088D01*
X122749219Y-114605560D01*
X123339768Y-114473076D01*
X123979049Y-114342036D01*
X124673198Y-114210838D01*
X125428355Y-114077879D01*
X126250655Y-113941561D01*
X127099218Y-113807549D01*
X129176450Y-113501539D01*
X131221521Y-113231196D01*
X133226929Y-112997344D01*
X135185174Y-112800804D01*
X137088754Y-112642397D01*
X138707812Y-112535480D01*
X139156328Y-112510045D01*
X139561650Y-112488079D01*
X139934779Y-112469261D01*
X140286713Y-112453266D01*
X140628451Y-112439771D01*
X140970992Y-112428455D01*
X141325336Y-112418993D01*
X141702482Y-112411063D01*
X142113429Y-112404342D01*
X142569175Y-112398507D01*
X143080721Y-112393234D01*
X143659065Y-112388202D01*
X143748124Y-112387481D01*
X144872153Y-112381814D01*
X145922006Y-112383751D01*
G37*
G36*
X137574777Y-82645186D02*
G01*
X137633063Y-82708967D01*
X137699092Y-82815897D01*
X137779338Y-82973106D01*
X137880276Y-83187722D01*
X138008382Y-83466874D01*
X138011615Y-83473925D01*
X138155762Y-83788241D01*
X138319455Y-84145027D01*
X138489593Y-84515739D01*
X138653076Y-84871833D01*
X138796803Y-85184763D01*
X138798850Y-85189218D01*
X139028073Y-85692927D01*
X139242053Y-86172632D01*
X139437623Y-86620852D01*
X139611617Y-87030107D01*
X139760869Y-87392914D01*
X139882211Y-87701793D01*
X139972477Y-87949263D01*
X139993111Y-88010678D01*
X140041910Y-88169147D01*
X140104869Y-88387733D01*
X140177326Y-88649442D01*
X140254616Y-88937280D01*
X140332078Y-89234252D01*
X140373259Y-89396093D01*
X140426452Y-89605190D01*
X140497541Y-89881500D01*
X140584045Y-90215522D01*
X140683483Y-90597755D01*
X140793373Y-91018698D01*
X140911234Y-91468848D01*
X141034583Y-91938707D01*
X141160940Y-92418770D01*
X141287822Y-92899539D01*
X141326903Y-93047343D01*
X141537147Y-93842739D01*
X141728775Y-94569090D01*
X141903772Y-95234006D01*
X142064119Y-95845098D01*
X142211799Y-96409975D01*
X142348797Y-96936249D01*
X142477095Y-97431529D01*
X142598677Y-97903426D01*
X142715525Y-98359550D01*
X142829622Y-98807513D01*
X142892584Y-99055788D01*
X142971831Y-99370763D01*
X143033198Y-99621673D01*
X143078949Y-99821229D01*
X143111352Y-99982142D01*
X143132671Y-100117123D01*
X143145174Y-100238882D01*
X143151125Y-100360131D01*
X143152791Y-100493581D01*
X143152812Y-100515556D01*
X143148039Y-100752735D01*
X143131653Y-100936476D01*
X143100550Y-101092258D01*
X143070394Y-101192313D01*
X142913019Y-101538710D01*
X142689684Y-101852154D01*
X142411364Y-102119215D01*
X142187196Y-102272842D01*
X142066243Y-102337735D01*
X141929269Y-102398224D01*
X141767417Y-102456775D01*
X141571831Y-102515857D01*
X141333654Y-102577937D01*
X141044030Y-102645483D01*
X140694102Y-102720964D01*
X140275014Y-102806846D01*
X140259804Y-102809906D01*
X139050217Y-103035473D01*
X137896821Y-103213911D01*
X136792410Y-103345854D01*
X135729780Y-103431938D01*
X134701726Y-103472797D01*
X133701043Y-103469068D01*
X133072187Y-103443604D01*
X132874162Y-103430919D01*
X132632067Y-103412537D01*
X132356053Y-103389489D01*
X132056274Y-103362805D01*
X131742882Y-103333517D01*
X131426030Y-103302654D01*
X131115872Y-103271248D01*
X130822560Y-103240329D01*
X130556246Y-103210928D01*
X130327085Y-103184076D01*
X130145228Y-103160802D01*
X130020829Y-103142138D01*
X129964040Y-103129115D01*
X129962154Y-103127891D01*
X129937571Y-103071523D01*
X129914806Y-102966563D01*
X129906987Y-102909624D01*
X129886071Y-102724064D01*
X130913582Y-102742459D01*
X131331087Y-102753275D01*
X131724980Y-102769949D01*
X132079249Y-102791588D01*
X132377884Y-102817296D01*
X132496718Y-102830814D01*
X132755188Y-102856097D01*
X133076891Y-102876081D01*
X133445851Y-102890649D01*
X133846096Y-102899683D01*
X134261651Y-102903067D01*
X134676542Y-102900683D01*
X135074796Y-102892415D01*
X135440439Y-102878146D01*
X135757496Y-102857757D01*
X135790780Y-102854958D01*
X136179280Y-102817822D01*
X136603726Y-102771001D01*
X137055564Y-102715882D01*
X137526239Y-102653853D01*
X138007198Y-102586300D01*
X138489885Y-102514613D01*
X138965746Y-102440177D01*
X139426227Y-102364380D01*
X139862773Y-102288610D01*
X140266831Y-102214254D01*
X140629845Y-102142700D01*
X140943261Y-102075334D01*
X141198525Y-102013544D01*
X141387082Y-101958717D01*
X141444558Y-101938010D01*
X141799562Y-101773448D01*
X142081382Y-101587353D01*
X142294076Y-101376451D01*
X142441706Y-101137470D01*
X142444090Y-101132233D01*
X142485993Y-101029628D01*
X142513089Y-100930013D01*
X142528286Y-100812130D01*
X142534494Y-100654719D01*
X142534844Y-100468906D01*
X142530591Y-100268426D01*
X142518338Y-100091448D01*
X142494771Y-99914442D01*
X142456576Y-99713878D01*
X142400441Y-99466226D01*
X142383973Y-99397343D01*
X142345112Y-99231640D01*
X142292086Y-98999185D01*
X142227306Y-98710854D01*
X142153180Y-98377522D01*
X142072118Y-98010062D01*
X141986529Y-97619349D01*
X141898823Y-97216258D01*
X141821245Y-96857343D01*
X141702836Y-96309611D01*
X141597897Y-95829292D01*
X141503853Y-95406062D01*
X141418131Y-95029598D01*
X141338156Y-94689575D01*
X141261355Y-94375671D01*
X141185153Y-94077561D01*
X141106977Y-93784922D01*
X141024254Y-93487429D01*
X140934408Y-93174760D01*
X140834867Y-92836590D01*
X140737762Y-92511562D01*
X140627799Y-92144880D01*
X140505736Y-91737242D01*
X140378843Y-91312965D01*
X140254389Y-90896361D01*
X140139642Y-90511745D01*
X140058757Y-90240196D01*
X139933966Y-89824209D01*
X139817403Y-89444386D01*
X139705772Y-89092282D01*
X139595773Y-88759453D01*
X139484109Y-88437453D01*
X139367482Y-88117836D01*
X139242594Y-87792157D01*
X139106146Y-87451973D01*
X138954841Y-87088836D01*
X138785380Y-86694302D01*
X138594465Y-86259926D01*
X138378799Y-85777263D01*
X138135084Y-85237867D01*
X137923472Y-84772499D01*
X137728104Y-84343834D01*
X137563492Y-83981630D01*
X137427840Y-83679955D01*
X137319353Y-83432878D01*
X137236233Y-83234466D01*
X137176685Y-83078787D01*
X137138913Y-82959910D01*
X137121120Y-82871904D01*
X137121510Y-82808835D01*
X137138288Y-82764772D01*
X137169656Y-82733784D01*
X137213819Y-82709939D01*
X137268980Y-82687304D01*
X137289549Y-82678984D01*
X137381619Y-82641454D01*
X137455530Y-82618558D01*
X137517758Y-82617426D01*
X137574777Y-82645186D01*
G37*
G36*
X154508393Y-65574450D02*
G01*
X155330153Y-65656004D01*
X156117426Y-65797546D01*
X156861963Y-65999125D01*
X156937763Y-66023922D01*
X157330236Y-66169276D01*
X157752279Y-66351241D01*
X158177405Y-66556962D01*
X158579127Y-66773583D01*
X158930959Y-66988249D01*
X158948437Y-66999810D01*
X159633390Y-67501732D01*
X160280462Y-68069986D01*
X160885334Y-68698972D01*
X161443686Y-69383092D01*
X161951199Y-70116745D01*
X162403555Y-70894334D01*
X162796434Y-71710258D01*
X163029884Y-72290781D01*
X163192477Y-72755905D01*
X163341227Y-73239268D01*
X163477640Y-73748455D01*
X163603219Y-74291047D01*
X163719468Y-74874628D01*
X163827890Y-75506782D01*
X163929989Y-76195090D01*
X164027269Y-76947138D01*
X164121235Y-77770507D01*
X164126756Y-77821932D01*
X164228126Y-78769178D01*
X164149230Y-79191151D01*
X164120090Y-79352638D01*
X164081417Y-79575264D01*
X164036129Y-79841776D01*
X163987143Y-80134922D01*
X163937377Y-80437447D01*
X163910127Y-80605312D01*
X163792268Y-81314704D01*
X163678878Y-81952412D01*
X163568035Y-82525866D01*
X163457821Y-83042501D01*
X163346315Y-83509748D01*
X163231597Y-83935039D01*
X163111747Y-84325808D01*
X162984845Y-84689486D01*
X162848972Y-85033506D01*
X162702207Y-85365301D01*
X162654341Y-85466538D01*
X162279336Y-86161063D01*
X161847289Y-86800460D01*
X161358394Y-87384598D01*
X160812844Y-87913345D01*
X160210832Y-88386570D01*
X159552552Y-88804142D01*
X158838196Y-89165928D01*
X158067957Y-89471799D01*
X157242029Y-89721623D01*
X156360605Y-89915267D01*
X156032964Y-89970697D01*
X155616658Y-90030507D01*
X155155749Y-90087177D01*
X154659232Y-90140230D01*
X154136099Y-90189190D01*
X153595345Y-90233581D01*
X153045965Y-90272925D01*
X152496953Y-90306746D01*
X151957302Y-90334567D01*
X151436007Y-90355913D01*
X150942062Y-90370306D01*
X150484462Y-90377269D01*
X150072199Y-90376327D01*
X149714269Y-90367002D01*
X149419666Y-90348818D01*
X149252126Y-90330017D01*
X148486012Y-90181649D01*
X147754891Y-89962064D01*
X147058393Y-89671108D01*
X146396144Y-89308626D01*
X145771562Y-88877371D01*
X145315469Y-88492065D01*
X144854945Y-88035512D01*
X144394903Y-87515289D01*
X143940254Y-86938972D01*
X143495910Y-86314139D01*
X143066784Y-85648366D01*
X142657786Y-84949229D01*
X142273828Y-84224305D01*
X141919823Y-83481171D01*
X141600682Y-82727404D01*
X141352257Y-82060386D01*
X141122706Y-81346925D01*
X140922855Y-80615754D01*
X140753858Y-79876432D01*
X140616866Y-79138522D01*
X140513033Y-78411583D01*
X140443511Y-77705177D01*
X140409452Y-77028863D01*
X140410232Y-76834527D01*
X140953102Y-76834527D01*
X140964574Y-77255921D01*
X140988485Y-77696283D01*
X141024029Y-78135943D01*
X141070397Y-78555234D01*
X141070401Y-78555270D01*
X141245903Y-79619298D01*
X141499049Y-80681373D01*
X141828136Y-81737468D01*
X142231460Y-82783555D01*
X142707317Y-83815606D01*
X143254005Y-84829595D01*
X143869819Y-85821493D01*
X144551417Y-86785097D01*
X145068626Y-87417992D01*
X145611549Y-87976132D01*
X146181393Y-88460255D01*
X146779363Y-88871104D01*
X147406664Y-89209418D01*
X148064504Y-89475938D01*
X148754087Y-89671404D01*
X149450225Y-89793289D01*
X149576577Y-89802704D01*
X149773295Y-89808868D01*
X150031442Y-89811890D01*
X150342079Y-89811880D01*
X150696269Y-89808948D01*
X151085074Y-89803206D01*
X151499556Y-89794763D01*
X151930778Y-89783728D01*
X152369802Y-89770214D01*
X152807691Y-89754328D01*
X152896093Y-89750806D01*
X153597545Y-89716939D01*
X154231582Y-89674346D01*
X154809808Y-89621786D01*
X155343831Y-89558015D01*
X155845256Y-89481792D01*
X156325689Y-89391875D01*
X156406142Y-89375131D01*
X157251541Y-89162925D01*
X158040304Y-88895130D01*
X158772688Y-88571507D01*
X159448951Y-88191818D01*
X160069350Y-87755822D01*
X160634144Y-87263280D01*
X161143589Y-86713952D01*
X161597944Y-86107600D01*
X161997466Y-85443983D01*
X162342412Y-84722862D01*
X162633040Y-83943997D01*
X162781545Y-83448522D01*
X162875538Y-83088527D01*
X162965437Y-82706787D01*
X163053528Y-82291973D01*
X163142093Y-81832757D01*
X163233416Y-81317811D01*
X163329781Y-80735806D01*
X163335397Y-80700851D01*
X163511074Y-79605764D01*
X163471678Y-78835538D01*
X163422204Y-77970413D01*
X163365540Y-77177531D01*
X163300677Y-76450003D01*
X163226605Y-75780939D01*
X163142314Y-75163448D01*
X163046794Y-74590640D01*
X162939036Y-74055626D01*
X162818030Y-73551515D01*
X162682766Y-73071416D01*
X162579472Y-72747187D01*
X162255926Y-71899177D01*
X161865081Y-71092544D01*
X161406068Y-70325896D01*
X160878019Y-69597837D01*
X160280065Y-68906973D01*
X160019911Y-68639531D01*
X159403864Y-68078973D01*
X158750201Y-67584720D01*
X158062896Y-67158937D01*
X157345926Y-66803788D01*
X156603266Y-66521439D01*
X155838891Y-66314054D01*
X155694062Y-66283808D01*
X155431550Y-66233056D01*
X155205307Y-66193881D01*
X154998205Y-66164857D01*
X154793119Y-66144557D01*
X154572919Y-66131552D01*
X154320478Y-66124416D01*
X154018671Y-66121722D01*
X153749374Y-66121758D01*
X153279231Y-66127335D01*
X152865855Y-66143270D01*
X152487036Y-66171944D01*
X152120568Y-66215736D01*
X151744243Y-66277027D01*
X151335855Y-66358198D01*
X151135085Y-66401982D01*
X150173631Y-66654590D01*
X149239551Y-66978164D01*
X148331468Y-67373557D01*
X147448006Y-67841619D01*
X146587789Y-68383204D01*
X145749441Y-68999164D01*
X144931586Y-69690350D01*
X144132847Y-70457616D01*
X143508784Y-71124443D01*
X143021280Y-71684896D01*
X142596137Y-72209044D01*
X142229539Y-72704410D01*
X141917668Y-73178517D01*
X141656707Y-73638889D01*
X141442840Y-74093049D01*
X141272251Y-74548520D01*
X141141122Y-75012825D01*
X141045637Y-75493487D01*
X140981980Y-75998030D01*
X140970708Y-76127312D01*
X140954878Y-76451768D01*
X140953102Y-76834527D01*
X140410232Y-76834527D01*
X140412008Y-76392203D01*
X140452334Y-75804757D01*
X140531580Y-75276087D01*
X140533335Y-75267343D01*
X140680740Y-74666200D01*
X140879585Y-74076718D01*
X141133148Y-73493292D01*
X141444706Y-72910316D01*
X141817538Y-72322186D01*
X142254921Y-71723297D01*
X142760133Y-71108044D01*
X143336453Y-70470823D01*
X143341798Y-70465156D01*
X144130608Y-69669332D01*
X144923483Y-68950536D01*
X145724064Y-68306424D01*
X146535990Y-67734650D01*
X147362902Y-67232868D01*
X148208439Y-66798733D01*
X149076242Y-66429901D01*
X149969949Y-66124024D01*
X150171042Y-66064764D01*
X151041486Y-65847123D01*
X151918693Y-65689222D01*
X152794413Y-65591109D01*
X153660396Y-65552835D01*
X154508393Y-65574450D01*
G37*
G36*
X119743035Y-65011174D02*
G01*
X119966428Y-65015009D01*
X120148659Y-65023111D01*
X120308831Y-65037248D01*
X120466050Y-65059187D01*
X120639419Y-65090696D01*
X120848043Y-65133542D01*
X120888124Y-65142024D01*
X121102874Y-65190828D01*
X121374330Y-65257547D01*
X121683211Y-65337150D01*
X122010237Y-65424604D01*
X122336128Y-65514880D01*
X122535155Y-65571801D01*
X122863920Y-65666702D01*
X123218392Y-65768229D01*
X123576036Y-65869982D01*
X123914313Y-65965560D01*
X124210688Y-66048561D01*
X124340937Y-66084674D01*
X124814705Y-66218345D01*
X125225155Y-66340940D01*
X125586741Y-66457257D01*
X125913916Y-66572092D01*
X126221133Y-66690243D01*
X126444374Y-66782735D01*
X127322632Y-67198934D01*
X128165881Y-67683994D01*
X128975142Y-68238747D01*
X129751435Y-68864028D01*
X130495782Y-69560667D01*
X131209202Y-70329500D01*
X131892715Y-71171357D01*
X132006473Y-71322415D01*
X132459112Y-71954310D01*
X132848590Y-72552232D01*
X133178808Y-73124674D01*
X133453667Y-73680127D01*
X133677066Y-74227083D01*
X133852907Y-74774034D01*
X133985090Y-75329473D01*
X134064454Y-75803124D01*
X134082888Y-75982299D01*
X134098885Y-76226457D01*
X134112244Y-76521234D01*
X134122764Y-76852272D01*
X134130244Y-77205207D01*
X134134482Y-77565678D01*
X134135277Y-77919325D01*
X134132429Y-78251785D01*
X134125735Y-78548698D01*
X134114995Y-78795701D01*
X134107819Y-78898749D01*
X133977636Y-80010129D01*
X133773040Y-81094324D01*
X133494458Y-82150283D01*
X133142319Y-83176955D01*
X132717049Y-84173289D01*
X132219078Y-85138234D01*
X131648832Y-86070738D01*
X131006740Y-86969750D01*
X130632219Y-87438593D01*
X130334248Y-87781393D01*
X129995638Y-88142607D01*
X129626078Y-88513725D01*
X129235260Y-88886234D01*
X128832874Y-89251621D01*
X128428611Y-89601374D01*
X128032161Y-89926982D01*
X127653214Y-90219931D01*
X127301462Y-90471710D01*
X126986595Y-90673806D01*
X126878504Y-90735876D01*
X126398994Y-90964632D01*
X125862935Y-91155426D01*
X125285786Y-91303690D01*
X124683006Y-91404854D01*
X124570704Y-91417956D01*
X124445686Y-91426905D01*
X124254593Y-91434670D01*
X124010716Y-91441179D01*
X123727348Y-91446361D01*
X123417780Y-91450141D01*
X123095304Y-91452447D01*
X122773213Y-91453206D01*
X122464797Y-91452346D01*
X122183348Y-91449794D01*
X121942159Y-91445477D01*
X121754522Y-91439323D01*
X121662030Y-91433873D01*
X120823661Y-91355681D01*
X119987761Y-91255446D01*
X119163615Y-91135064D01*
X118360510Y-90996432D01*
X117587733Y-90841447D01*
X116854570Y-90672006D01*
X116170307Y-90490005D01*
X115544230Y-90297342D01*
X114985626Y-90095913D01*
X114855624Y-90043592D01*
X114064649Y-89677094D01*
X113326811Y-89251911D01*
X112643099Y-88769198D01*
X112014504Y-88230110D01*
X111442013Y-87635803D01*
X110926617Y-86987433D01*
X110469306Y-86286156D01*
X110071067Y-85533127D01*
X109732892Y-84729502D01*
X109455769Y-83876437D01*
X109400245Y-83671344D01*
X109333088Y-83407906D01*
X109272284Y-83154607D01*
X109216231Y-82902118D01*
X109163330Y-82641105D01*
X109111983Y-82362239D01*
X109060589Y-82056186D01*
X109007550Y-81713616D01*
X108951265Y-81325197D01*
X108890136Y-80881597D01*
X108822563Y-80373486D01*
X108782900Y-80069531D01*
X108620608Y-78819374D01*
X108658260Y-77887794D01*
X109167261Y-77887794D01*
X109168592Y-78571071D01*
X109190746Y-79208602D01*
X109215402Y-79573437D01*
X109295574Y-80355303D01*
X109406545Y-81144193D01*
X109545083Y-81924191D01*
X109707953Y-82679379D01*
X109891922Y-83393841D01*
X110093758Y-84051661D01*
X110169258Y-84269009D01*
X110501103Y-85087507D01*
X110887422Y-85848370D01*
X111327821Y-86551240D01*
X111821905Y-87195756D01*
X112369281Y-87781561D01*
X112969554Y-88308296D01*
X113622331Y-88775601D01*
X114327216Y-89183118D01*
X115083816Y-89530488D01*
X115891737Y-89817352D01*
X116427116Y-89966902D01*
X116956713Y-90094206D01*
X117536942Y-90222815D01*
X118148296Y-90349032D01*
X118771269Y-90469160D01*
X119386356Y-90579503D01*
X119974050Y-90676362D01*
X120514844Y-90756041D01*
X120759104Y-90787978D01*
X121265208Y-90842601D01*
X121797890Y-90885138D01*
X122338923Y-90914963D01*
X122870082Y-90931449D01*
X123373142Y-90933971D01*
X123829875Y-90921901D01*
X124122655Y-90903590D01*
X124705488Y-90839312D01*
X125228565Y-90744452D01*
X125707288Y-90613954D01*
X126157061Y-90442765D01*
X126593284Y-90225828D01*
X127031360Y-89958089D01*
X127058255Y-89940155D01*
X127950878Y-89297427D01*
X128783599Y-88605705D01*
X129554882Y-87866818D01*
X130263194Y-87082597D01*
X130906998Y-86254871D01*
X131484759Y-85385471D01*
X131994942Y-84476226D01*
X132435173Y-83530960D01*
X132781178Y-82618877D01*
X133074142Y-81658546D01*
X133311513Y-80662966D01*
X133490738Y-79645141D01*
X133609261Y-78618069D01*
X133664531Y-77594753D01*
X133668459Y-77251718D01*
X133651875Y-76575684D01*
X133598852Y-75958327D01*
X133505293Y-75385839D01*
X133367097Y-74844408D01*
X133180167Y-74320225D01*
X132940404Y-73799480D01*
X132643709Y-73268363D01*
X132349239Y-72806718D01*
X131940903Y-72210584D01*
X131553518Y-71674902D01*
X131176894Y-71187116D01*
X130800838Y-70734668D01*
X130415161Y-70305000D01*
X130009670Y-69885554D01*
X129852698Y-69730556D01*
X129345324Y-69257281D01*
X128844828Y-68837717D01*
X128338341Y-68464072D01*
X127812992Y-68128551D01*
X127255913Y-67823359D01*
X126654233Y-67540704D01*
X125995082Y-67272790D01*
X125491874Y-67089598D01*
X124822407Y-66856558D01*
X124221074Y-66649411D01*
X123681584Y-66466460D01*
X123197645Y-66306006D01*
X122762967Y-66166350D01*
X122371258Y-66045793D01*
X122016228Y-65942637D01*
X121691585Y-65855183D01*
X121391038Y-65781733D01*
X121108297Y-65720587D01*
X120837071Y-65670048D01*
X120571068Y-65628415D01*
X120303997Y-65593992D01*
X120029567Y-65565078D01*
X119757686Y-65541278D01*
X119531859Y-65523965D01*
X119357806Y-65514800D01*
X119211372Y-65515054D01*
X119068403Y-65525997D01*
X118904744Y-65548900D01*
X118696240Y-65585033D01*
X118602749Y-65602036D01*
X118250086Y-65670509D01*
X117937076Y-65741721D01*
X117649157Y-65821171D01*
X117371770Y-65914361D01*
X117090354Y-66026790D01*
X116790347Y-66163958D01*
X116457190Y-66331365D01*
X116076321Y-66534511D01*
X115947030Y-66605195D01*
X115523030Y-66844341D01*
X115079445Y-67106052D01*
X114629309Y-67381919D01*
X114185655Y-67663531D01*
X113761516Y-67942480D01*
X113369924Y-68210355D01*
X113023914Y-68458747D01*
X112752187Y-68666704D01*
X112111648Y-69225399D01*
X111532385Y-69829080D01*
X111016768Y-70473946D01*
X110567167Y-71156195D01*
X110185951Y-71872024D01*
X109875492Y-72617631D01*
X109638159Y-73389213D01*
X109540557Y-73818749D01*
X109437952Y-74404774D01*
X109350168Y-75051259D01*
X109278208Y-75740505D01*
X109223069Y-76454810D01*
X109185754Y-77176473D01*
X109167261Y-77887794D01*
X108658260Y-77887794D01*
X108663116Y-77767656D01*
X108692899Y-77071366D01*
X108723507Y-76447401D01*
X108755919Y-75888711D01*
X108791117Y-75388244D01*
X108830084Y-74938950D01*
X108873799Y-74533780D01*
X108923244Y-74165682D01*
X108979401Y-73827607D01*
X109043250Y-73512503D01*
X109115774Y-73213321D01*
X109197953Y-72923011D01*
X109290769Y-72634521D01*
X109395202Y-72340802D01*
X109432186Y-72242044D01*
X109733580Y-71552443D01*
X110111594Y-70870833D01*
X110563621Y-70200351D01*
X111087054Y-69544132D01*
X111679287Y-68905311D01*
X112337712Y-68287026D01*
X113059724Y-67692412D01*
X113466562Y-67388456D01*
X114103208Y-66948034D01*
X114744371Y-66542341D01*
X115380382Y-66176522D01*
X116001574Y-65855722D01*
X116598278Y-65585084D01*
X117160826Y-65369754D01*
X117413392Y-65288299D01*
X117745303Y-65193390D01*
X118040993Y-65121761D01*
X118321718Y-65070517D01*
X118608735Y-65036766D01*
X118923302Y-65017614D01*
X119286674Y-65010170D01*
X119459374Y-65009839D01*
X119743035Y-65011174D01*
G37*
G36*
X125928626Y-38324114D02*
G01*
X126137659Y-38328258D01*
X126318175Y-38335030D01*
X126480345Y-38344731D01*
X126634340Y-38357659D01*
X126790330Y-38374111D01*
X126958484Y-38394387D01*
X126985184Y-38397751D01*
X127457211Y-38462782D01*
X127957777Y-38542447D01*
X128496464Y-38638533D01*
X129082857Y-38752828D01*
X129726537Y-38887118D01*
X130388673Y-39032346D01*
X130752192Y-39113873D01*
X131065717Y-39185582D01*
X131339260Y-39251126D01*
X131582832Y-39314156D01*
X131806444Y-39378323D01*
X132020108Y-39447281D01*
X132233833Y-39524681D01*
X132457632Y-39614176D01*
X132701515Y-39719416D01*
X132975494Y-39844055D01*
X133289579Y-39991744D01*
X133653782Y-40166136D01*
X134078114Y-40370881D01*
X134140316Y-40400933D01*
X135311185Y-40967181D01*
X136412599Y-41501004D01*
X137444400Y-42002319D01*
X138406425Y-42471048D01*
X139298514Y-42907111D01*
X140120506Y-43310427D01*
X140872241Y-43680917D01*
X141553558Y-44018501D01*
X142164296Y-44323099D01*
X142704295Y-44594631D01*
X143173393Y-44833017D01*
X143571430Y-45038177D01*
X143898246Y-45210031D01*
X144153680Y-45348499D01*
X144337570Y-45453502D01*
X144449756Y-45524959D01*
X144462499Y-45534388D01*
X144646512Y-45688946D01*
X144870513Y-45899403D01*
X145126911Y-46158124D01*
X145408111Y-46457478D01*
X145668218Y-46746382D01*
X145827711Y-46918337D01*
X146000518Y-47086543D01*
X146193368Y-47255872D01*
X146412989Y-47431196D01*
X146666110Y-47617388D01*
X146959458Y-47819318D01*
X147299761Y-48041860D01*
X147693748Y-48289886D01*
X148148146Y-48568268D01*
X148364890Y-48699182D01*
X148843932Y-48995210D01*
X149260652Y-49270112D01*
X149626441Y-49532210D01*
X149952689Y-49789823D01*
X150250786Y-50051272D01*
X150370066Y-50163970D01*
X150551703Y-50332906D01*
X150754700Y-50511595D01*
X150951443Y-50676195D01*
X151083714Y-50780156D01*
X151281269Y-50938813D01*
X151438498Y-51092367D01*
X151584119Y-51270793D01*
X151673073Y-51395312D01*
X151871720Y-51653913D01*
X152084018Y-51867934D01*
X152320895Y-52043124D01*
X152593282Y-52185238D01*
X152912105Y-52300025D01*
X153288294Y-52393238D01*
X153709687Y-52467186D01*
X154341358Y-52581824D01*
X154946298Y-52734053D01*
X155539390Y-52929319D01*
X156135517Y-53173066D01*
X156749563Y-53470740D01*
X157341093Y-53795748D01*
X157561183Y-53925534D01*
X157822061Y-54084000D01*
X158111982Y-54263607D01*
X158419202Y-54456814D01*
X158731978Y-54656080D01*
X159038565Y-54853864D01*
X159327221Y-55042627D01*
X159586201Y-55214827D01*
X159803761Y-55362924D01*
X159968157Y-55479378D01*
X160000155Y-55503100D01*
X160277392Y-55727585D01*
X160544004Y-55973627D01*
X160785871Y-56226360D01*
X160988876Y-56470919D01*
X161138900Y-56692439D01*
X161152404Y-56716282D01*
X161323270Y-57009540D01*
X161493787Y-57264255D01*
X161673144Y-57487601D01*
X161870531Y-57686752D01*
X162095137Y-57868881D01*
X162356152Y-58041160D01*
X162662766Y-58210763D01*
X163024168Y-58384863D01*
X163449548Y-58570633D01*
X163618064Y-58640902D01*
X164034166Y-58817100D01*
X164384933Y-58976085D01*
X164680936Y-59123847D01*
X164932748Y-59266375D01*
X165150942Y-59409660D01*
X165346089Y-59559691D01*
X165528762Y-59722458D01*
X165531297Y-59724871D01*
X165845298Y-60072619D01*
X166086505Y-60449918D01*
X166257588Y-60861708D01*
X166349062Y-61237903D01*
X166404433Y-61682329D01*
X166404952Y-62072497D01*
X166349625Y-62412454D01*
X166237461Y-62706246D01*
X166067468Y-62957919D01*
X165883647Y-63136172D01*
X165694869Y-63267844D01*
X165491631Y-63359843D01*
X165247739Y-63422762D01*
X165123425Y-63443576D01*
X164890077Y-63483175D01*
X164726552Y-63524038D01*
X164623322Y-63569492D01*
X164570862Y-63622866D01*
X164564208Y-63638936D01*
X164569910Y-63688402D01*
X164593684Y-63808793D01*
X164634104Y-63994092D01*
X164689750Y-64238281D01*
X164759196Y-64535341D01*
X164841020Y-64879255D01*
X164933799Y-65264004D01*
X165036108Y-65683570D01*
X165146526Y-66131935D01*
X165263629Y-66603082D01*
X165293398Y-66722187D01*
X165522039Y-67639014D01*
X165731487Y-68486378D01*
X165923114Y-69271482D01*
X166098291Y-70001528D01*
X166258391Y-70683718D01*
X166404786Y-71325254D01*
X166538846Y-71933339D01*
X166661946Y-72515174D01*
X166775455Y-73077962D01*
X166880746Y-73628905D01*
X166979192Y-74175205D01*
X167072163Y-74724064D01*
X167161032Y-75282685D01*
X167247171Y-75858270D01*
X167331952Y-76458020D01*
X167416746Y-77089139D01*
X167502926Y-77758828D01*
X167591863Y-78474289D01*
X167684930Y-79242724D01*
X167696019Y-79335312D01*
X167752634Y-79817163D01*
X167813661Y-80352333D01*
X167878231Y-80932259D01*
X167945474Y-81548375D01*
X168014522Y-82192118D01*
X168084505Y-82854926D01*
X168154554Y-83528233D01*
X168223800Y-84203476D01*
X168291375Y-84872091D01*
X168356408Y-85525515D01*
X168418030Y-86155183D01*
X168475373Y-86752533D01*
X168527568Y-87308999D01*
X168573745Y-87816019D01*
X168613035Y-88265029D01*
X168644569Y-88647464D01*
X168655644Y-88790859D01*
X168671050Y-88950432D01*
X168689544Y-89074960D01*
X168708200Y-89147014D01*
X168717256Y-89157968D01*
X168729473Y-89195285D01*
X168739742Y-89297772D01*
X168747194Y-89451228D01*
X168750962Y-89641457D01*
X168751249Y-89713593D01*
X168752441Y-89937681D01*
X168756828Y-90093791D01*
X168765629Y-90193294D01*
X168780063Y-90247564D01*
X168801348Y-90267971D01*
X168810780Y-90269218D01*
X168819166Y-90275832D01*
X168826739Y-90298178D01*
X168833540Y-90340017D01*
X168839608Y-90405107D01*
X168844984Y-90497207D01*
X168849709Y-90620077D01*
X168853823Y-90777475D01*
X168857366Y-90973159D01*
X168860379Y-91210891D01*
X168862903Y-91494427D01*
X168864977Y-91827528D01*
X168866642Y-92213952D01*
X168867939Y-92657458D01*
X168868908Y-93161806D01*
X168869589Y-93730753D01*
X168870023Y-94368061D01*
X168870250Y-95077486D01*
X168870312Y-95805624D01*
X168870240Y-96585527D01*
X168870000Y-97289814D01*
X168869550Y-97922244D01*
X168868850Y-98486576D01*
X168867860Y-98986570D01*
X168866539Y-99425983D01*
X168864846Y-99808576D01*
X168862742Y-100138107D01*
X168860186Y-100418335D01*
X168857137Y-100653020D01*
X168853555Y-100845919D01*
X168849400Y-101000793D01*
X168844632Y-101121401D01*
X168839208Y-101211500D01*
X168833091Y-101274851D01*
X168826238Y-101315212D01*
X168818610Y-101336343D01*
X168810780Y-101342031D01*
X168787075Y-101353012D01*
X168770458Y-101393441D01*
X168759761Y-101474546D01*
X168753815Y-101607552D01*
X168751454Y-101803689D01*
X168751249Y-101914192D01*
X168749136Y-102118384D01*
X168743327Y-102292265D01*
X168734614Y-102421408D01*
X168723792Y-102491387D01*
X168719045Y-102499583D01*
X168706778Y-102541043D01*
X168685840Y-102654827D01*
X168657098Y-102834460D01*
X168621418Y-103073465D01*
X168579668Y-103365367D01*
X168532713Y-103703690D01*
X168481422Y-104081958D01*
X168426659Y-104493696D01*
X168369293Y-104932428D01*
X168310189Y-105391677D01*
X168250215Y-105864968D01*
X168190237Y-106345826D01*
X168131121Y-106827774D01*
X168073736Y-107304337D01*
X168055966Y-107453906D01*
X167970057Y-108170368D01*
X167890119Y-108815941D01*
X167814807Y-109398774D01*
X167742781Y-109927016D01*
X167672697Y-110408814D01*
X167603212Y-110852319D01*
X167532983Y-111265678D01*
X167460669Y-111657040D01*
X167384925Y-112034554D01*
X167304410Y-112406368D01*
X167217781Y-112780631D01*
X167123694Y-113165491D01*
X167097888Y-113268124D01*
X166982548Y-113708669D01*
X166865137Y-114121855D01*
X166741338Y-114518911D01*
X166606834Y-114911063D01*
X166457308Y-115309537D01*
X166288444Y-115725560D01*
X166095923Y-116170359D01*
X165875430Y-116655161D01*
X165622646Y-117191193D01*
X165457335Y-117534531D01*
X165291872Y-117876040D01*
X165156064Y-118156900D01*
X165045110Y-118387969D01*
X164954214Y-118580107D01*
X164878575Y-118744171D01*
X164813396Y-118891020D01*
X164753876Y-119031514D01*
X164695218Y-119176510D01*
X164632622Y-119336867D01*
X164561290Y-119523444D01*
X164476423Y-119747100D01*
X164457644Y-119796601D01*
X164349642Y-120080554D01*
X164263600Y-120302109D01*
X164193234Y-120473050D01*
X164132257Y-120605160D01*
X164074387Y-120710222D01*
X164013339Y-120800018D01*
X163942827Y-120886331D01*
X163856567Y-120980944D01*
X163786152Y-121055565D01*
X163208605Y-121722230D01*
X162685352Y-122444321D01*
X162215934Y-123222705D01*
X161799896Y-124058249D01*
X161436781Y-124951821D01*
X161126131Y-125904289D01*
X161010355Y-126325312D01*
X160932857Y-126628365D01*
X160866295Y-126903494D01*
X160807341Y-127167406D01*
X160752668Y-127436811D01*
X160698949Y-127728418D01*
X160642856Y-128058936D01*
X160581062Y-128445074D01*
X160555286Y-128610554D01*
X160483101Y-129068839D01*
X160411824Y-129504029D01*
X160338409Y-129933225D01*
X160259810Y-130373528D01*
X160172983Y-130842037D01*
X160074882Y-131355853D01*
X159976289Y-131861718D01*
X159865523Y-132428589D01*
X159769293Y-132928713D01*
X159685964Y-133373053D01*
X159613900Y-133772573D01*
X159551466Y-134138236D01*
X159497026Y-134481006D01*
X159448947Y-134811845D01*
X159405591Y-135141718D01*
X159365324Y-135481587D01*
X159326511Y-135842416D01*
X159287516Y-136235168D01*
X159246705Y-136670807D01*
X159227453Y-136882187D01*
X159192751Y-137249124D01*
X159153797Y-137632807D01*
X159112608Y-138015200D01*
X159071201Y-138378270D01*
X159031590Y-138703982D01*
X158995794Y-138974303D01*
X158985622Y-139045156D01*
X158941225Y-139346796D01*
X158889465Y-139698352D01*
X158834555Y-140071211D01*
X158780708Y-140436763D01*
X158732138Y-140766397D01*
X158731024Y-140773954D01*
X158606411Y-141652271D01*
X158500979Y-142470252D01*
X158413275Y-143244210D01*
X158341842Y-143990455D01*
X158285227Y-144725297D01*
X158241973Y-145465046D01*
X158210627Y-146226015D01*
X158194892Y-146784218D01*
X158183663Y-147233211D01*
X158171870Y-147615135D01*
X158158249Y-147942294D01*
X158141532Y-148226991D01*
X158120453Y-148481528D01*
X158093745Y-148718211D01*
X158060142Y-148949340D01*
X158018376Y-149187221D01*
X157967181Y-149444155D01*
X157905292Y-149732447D01*
X157879222Y-149850452D01*
X157841504Y-150026808D01*
X157791935Y-150268408D01*
X157732999Y-150562426D01*
X157667183Y-150896035D01*
X157596970Y-151256411D01*
X157524845Y-151630727D01*
X157453293Y-152006156D01*
X157384798Y-152369874D01*
X157321846Y-152709054D01*
X157266920Y-153010871D01*
X157266150Y-153015156D01*
X157238261Y-153180654D01*
X157203987Y-153399393D01*
X157167193Y-153645900D01*
X157131745Y-153894706D01*
X157122942Y-153958717D01*
X157043430Y-154437418D01*
X156936745Y-154892097D01*
X156799303Y-155327570D01*
X156627522Y-155748656D01*
X156417818Y-156160173D01*
X156166608Y-156566937D01*
X155870308Y-156973766D01*
X155525335Y-157385478D01*
X155128106Y-157806891D01*
X154675037Y-158242822D01*
X154162546Y-158698089D01*
X153587048Y-159177510D01*
X152944961Y-159685901D01*
X152752996Y-159833914D01*
X151686221Y-160622710D01*
X150624470Y-161349198D01*
X149572560Y-162010391D01*
X148535305Y-162603300D01*
X147517523Y-163124936D01*
X147231490Y-163260228D01*
X146488937Y-163596891D01*
X145805987Y-163889732D01*
X145177359Y-164140651D01*
X144597771Y-164351544D01*
X144061940Y-164524309D01*
X143564584Y-164660844D01*
X143100420Y-164763046D01*
X142993124Y-164782720D01*
X142846723Y-164803361D01*
X142666139Y-164818876D01*
X142441543Y-164829653D01*
X142163103Y-164836081D01*
X141820992Y-164838548D01*
X141585155Y-164838302D01*
X141255553Y-164836664D01*
X140991872Y-164833634D01*
X140780661Y-164828318D01*
X140608466Y-164819823D01*
X140461837Y-164807254D01*
X140327321Y-164789718D01*
X140191466Y-164766320D01*
X140040820Y-164736167D01*
X140037343Y-164735443D01*
X139908308Y-164709145D01*
X139793025Y-164688000D01*
X139681030Y-164671487D01*
X139561858Y-164659087D01*
X139425043Y-164650278D01*
X139260120Y-164644542D01*
X139056626Y-164641357D01*
X138804094Y-164640204D01*
X138492060Y-164640563D01*
X138152187Y-164641746D01*
X137775204Y-164642987D01*
X137462720Y-164642944D01*
X137199861Y-164640852D01*
X136971751Y-164635946D01*
X136763517Y-164627463D01*
X136560283Y-164614638D01*
X136347177Y-164596706D01*
X136109322Y-164572905D01*
X135831844Y-164542468D01*
X135512968Y-164506135D01*
X134780041Y-164419091D01*
X134113635Y-164333202D01*
X133500969Y-164246161D01*
X132929264Y-164155659D01*
X132385741Y-164059387D01*
X131857619Y-163955037D01*
X131332120Y-163840301D01*
X130796464Y-163712870D01*
X130237872Y-163570435D01*
X130033372Y-163516288D01*
X128993575Y-163231082D01*
X128018768Y-162947417D01*
X127094829Y-162660369D01*
X126207637Y-162365017D01*
X125343071Y-162056437D01*
X124487009Y-161729706D01*
X123625330Y-161379902D01*
X122743911Y-161002101D01*
X122455780Y-160874665D01*
X121747905Y-160544052D01*
X121102168Y-160210822D01*
X120523123Y-159877554D01*
X120015324Y-159546829D01*
X119697499Y-159312601D01*
X119483578Y-159134189D01*
X119237662Y-158910593D01*
X118976965Y-158658910D01*
X118718702Y-158396235D01*
X118480087Y-158139666D01*
X118278335Y-157906298D01*
X118264782Y-157889731D01*
X118090422Y-157683179D01*
X117915065Y-157493096D01*
X117727548Y-157309550D01*
X117516708Y-157122609D01*
X117271383Y-156922339D01*
X116980410Y-156698809D01*
X116661405Y-156463059D01*
X116334759Y-156222723D01*
X116056992Y-156012497D01*
X115814460Y-155820303D01*
X115593519Y-155634059D01*
X115380524Y-155441683D01*
X115161832Y-155231097D01*
X114923798Y-154990217D01*
X114652779Y-154706964D01*
X114524173Y-154570692D01*
X114086901Y-154101055D01*
X113702211Y-153676706D01*
X113363628Y-153289903D01*
X113064678Y-152932900D01*
X112798885Y-152597952D01*
X112559775Y-152277316D01*
X112340871Y-151963246D01*
X112327569Y-151943443D01*
X112198004Y-151745213D01*
X112032752Y-151484352D01*
X111835537Y-151167130D01*
X111610085Y-150799815D01*
X111360118Y-150388677D01*
X111089364Y-149939983D01*
X110801545Y-149460003D01*
X110500387Y-148955006D01*
X110189614Y-148431260D01*
X109872952Y-147895034D01*
X109554125Y-147352597D01*
X109236857Y-146810218D01*
X108924874Y-146274165D01*
X108621900Y-145750708D01*
X108331660Y-145246115D01*
X108057878Y-144766654D01*
X107941577Y-144561718D01*
X107476859Y-143738398D01*
X107046372Y-142969584D01*
X106644634Y-142244772D01*
X106266161Y-141553457D01*
X105905470Y-140885133D01*
X105557077Y-140229295D01*
X105215498Y-139575439D01*
X104875252Y-138913058D01*
X104530853Y-138231649D01*
X104176820Y-137520705D01*
X103807668Y-136769721D01*
X103417914Y-135968193D01*
X103002074Y-135105615D01*
X102959459Y-135016874D01*
X102691647Y-134458843D01*
X102455299Y-133965849D01*
X102247413Y-133531429D01*
X102064989Y-133149116D01*
X101905026Y-132812445D01*
X101764524Y-132514953D01*
X101640483Y-132250174D01*
X101529901Y-132011642D01*
X101429778Y-131792893D01*
X101337114Y-131587462D01*
X101248908Y-131388883D01*
X101162160Y-131190693D01*
X101073869Y-130986425D01*
X100981034Y-130769615D01*
X100901150Y-130582019D01*
X100739746Y-130204548D01*
X100587305Y-129853796D01*
X100440789Y-129524524D01*
X100297156Y-129211495D01*
X100153367Y-128909471D01*
X100006382Y-128613215D01*
X99853159Y-128317488D01*
X99690660Y-128017053D01*
X99515844Y-127706672D01*
X99325670Y-127381108D01*
X99117099Y-127035123D01*
X98887091Y-126663479D01*
X98632604Y-126260938D01*
X98350600Y-125822263D01*
X98038038Y-125342215D01*
X97691877Y-124815558D01*
X97309079Y-124237053D01*
X96886601Y-123601463D01*
X96597789Y-123168009D01*
X95101270Y-120923518D01*
X94507362Y-120330352D01*
X94253830Y-120072641D01*
X94019999Y-119824142D01*
X93801115Y-119577900D01*
X93592429Y-119326959D01*
X93389186Y-119064366D01*
X93186637Y-118783166D01*
X92980027Y-118476402D01*
X92764607Y-118137122D01*
X92535623Y-117758370D01*
X92288323Y-117333191D01*
X92017956Y-116854631D01*
X91719770Y-116315734D01*
X91540959Y-115988850D01*
X91358135Y-115655102D01*
X91169918Y-115314322D01*
X90983715Y-114979730D01*
X90806934Y-114664542D01*
X90646982Y-114381976D01*
X90511268Y-114145249D01*
X90423565Y-113995118D01*
X89845501Y-112978340D01*
X89333247Y-111989854D01*
X88882897Y-111020001D01*
X88490546Y-110059119D01*
X88152290Y-109097550D01*
X87864223Y-108125633D01*
X87622441Y-107133710D01*
X87591210Y-106988672D01*
X87556488Y-106818457D01*
X87510422Y-106583020D01*
X87455445Y-106295308D01*
X87393991Y-105968268D01*
X87328492Y-105614849D01*
X87261382Y-105247998D01*
X87195907Y-104885202D01*
X87099384Y-104349024D01*
X87013818Y-103881568D01*
X86936867Y-103473300D01*
X86866192Y-103114690D01*
X86799452Y-102796205D01*
X86734307Y-102508313D01*
X86668415Y-102241481D01*
X86599438Y-101986178D01*
X86525033Y-101732872D01*
X86442862Y-101472031D01*
X86350582Y-101194122D01*
X86245854Y-100889613D01*
X86142369Y-100594430D01*
X86008063Y-100213319D01*
X85897415Y-99896330D01*
X85808102Y-99632584D01*
X85737804Y-99411201D01*
X85684198Y-99221299D01*
X85644964Y-99051998D01*
X85617779Y-98892418D01*
X85600322Y-98731679D01*
X85590272Y-98558900D01*
X85585308Y-98363201D01*
X85583107Y-98133702D01*
X85582105Y-97968593D01*
X85578319Y-97754036D01*
X85569733Y-97492034D01*
X85556943Y-97191173D01*
X85540546Y-96860040D01*
X85521137Y-96507220D01*
X85499313Y-96141299D01*
X85475670Y-95770863D01*
X85450804Y-95404498D01*
X85425311Y-95050789D01*
X85399787Y-94718323D01*
X85374829Y-94415686D01*
X85351032Y-94151462D01*
X85328993Y-93934239D01*
X85309307Y-93772602D01*
X85292572Y-93675137D01*
X85282205Y-93649270D01*
X85267354Y-93606389D01*
X85255887Y-93502835D01*
X85249507Y-93357295D01*
X85248749Y-93282161D01*
X85246395Y-93108827D01*
X85237805Y-93001162D01*
X85220691Y-92945558D01*
X85192764Y-92928405D01*
X85189218Y-92928281D01*
X85179512Y-92921447D01*
X85170903Y-92898026D01*
X85163328Y-92853638D01*
X85156722Y-92783903D01*
X85151021Y-92684441D01*
X85146161Y-92550872D01*
X85142078Y-92378816D01*
X85138709Y-92163893D01*
X85135988Y-91901723D01*
X85133851Y-91587926D01*
X85132236Y-91218122D01*
X85131076Y-90787931D01*
X85130310Y-90292973D01*
X85129871Y-89728869D01*
X85129697Y-89091237D01*
X85129687Y-88860312D01*
X85129774Y-88284523D01*
X85967918Y-88284523D01*
X85973691Y-88863647D01*
X85986831Y-89419672D01*
X86008063Y-89963130D01*
X86038111Y-90504555D01*
X86077700Y-91054481D01*
X86127553Y-91623441D01*
X86188396Y-92221968D01*
X86260953Y-92860596D01*
X86345948Y-93549858D01*
X86444105Y-94300289D01*
X86510163Y-94788267D01*
X86620727Y-95596535D01*
X86936847Y-95358327D01*
X87276190Y-95083230D01*
X87634978Y-94757320D01*
X87993923Y-94399069D01*
X88333735Y-94026947D01*
X88364783Y-93991007D01*
X88501518Y-93827576D01*
X88669874Y-93619397D01*
X88863301Y-93375147D01*
X89075247Y-93103501D01*
X89299164Y-92813135D01*
X89528500Y-92512726D01*
X89756706Y-92210948D01*
X89977230Y-91916479D01*
X90183524Y-91637994D01*
X90369035Y-91384169D01*
X90527215Y-91163680D01*
X90651513Y-90985203D01*
X90735378Y-90857414D01*
X90753408Y-90827247D01*
X90880937Y-90592372D01*
X90997249Y-90350181D01*
X91105582Y-90090907D01*
X91209175Y-89804782D01*
X91311267Y-89482037D01*
X91415096Y-89112906D01*
X91523901Y-88687620D01*
X91640922Y-88196412D01*
X91675375Y-88046718D01*
X91739823Y-87768675D01*
X91804595Y-87495980D01*
X91865641Y-87245197D01*
X91918910Y-87032888D01*
X91960351Y-86875617D01*
X91971424Y-86836249D01*
X92018027Y-86680628D01*
X92054268Y-86585609D01*
X92090737Y-86535232D01*
X92138025Y-86513539D01*
X92190504Y-86506140D01*
X92317750Y-86493531D01*
X92293665Y-87041922D01*
X92266859Y-87571406D01*
X92234712Y-88032754D01*
X92194892Y-88437149D01*
X92145064Y-88795773D01*
X92082896Y-89119807D01*
X92006054Y-89420435D01*
X91912203Y-89708838D01*
X91799012Y-89996199D01*
X91664146Y-90293700D01*
X91578689Y-90468087D01*
X91048647Y-91456897D01*
X90483061Y-92376525D01*
X89879624Y-93229869D01*
X89236030Y-94019827D01*
X88549974Y-94749296D01*
X87819149Y-95421177D01*
X87304831Y-95839379D01*
X87144316Y-95971623D01*
X86991794Y-96111277D01*
X86868878Y-96237896D01*
X86817092Y-96300783D01*
X86743856Y-96403591D01*
X86685346Y-96497858D01*
X86640105Y-96593733D01*
X86606674Y-96701362D01*
X86583593Y-96830892D01*
X86569405Y-96992472D01*
X86562651Y-97196248D01*
X86561872Y-97452368D01*
X86565610Y-97770979D01*
X86569852Y-98020888D01*
X86577530Y-98403222D01*
X86587064Y-98719557D01*
X86600717Y-98983266D01*
X86620756Y-99207722D01*
X86649444Y-99406301D01*
X86689048Y-99592375D01*
X86741830Y-99779319D01*
X86810057Y-99980507D01*
X86895993Y-100209313D01*
X86974333Y-100409374D01*
X87120659Y-100794405D01*
X87256735Y-101184398D01*
X87384637Y-101587718D01*
X87506440Y-102012727D01*
X87624218Y-102467788D01*
X87740048Y-102961267D01*
X87856003Y-103501525D01*
X87974160Y-104096926D01*
X88096594Y-104755834D01*
X88205267Y-105370312D01*
X88272255Y-105749987D01*
X88331622Y-106068835D01*
X88387475Y-106344531D01*
X88443919Y-106594753D01*
X88505059Y-106837175D01*
X88575002Y-107089474D01*
X88657853Y-107369328D01*
X88706902Y-107529988D01*
X89212912Y-109043573D01*
X89796777Y-110546789D01*
X90457321Y-112036692D01*
X90725571Y-112593437D01*
X91204586Y-113535661D01*
X91698399Y-114444692D01*
X92214043Y-115331403D01*
X92758552Y-116206668D01*
X93338959Y-117081362D01*
X93962298Y-117966359D01*
X94635602Y-118872533D01*
X95365905Y-119810758D01*
X95512978Y-119995156D01*
X96350793Y-121063449D01*
X97129572Y-122102925D01*
X97857818Y-123126464D01*
X98544031Y-124146951D01*
X99196714Y-125177268D01*
X99824369Y-126230297D01*
X100435499Y-127318923D01*
X100820166Y-128037027D01*
X100974954Y-128334110D01*
X101124776Y-128628479D01*
X101273302Y-128928092D01*
X101424204Y-129240906D01*
X101581151Y-129574880D01*
X101747814Y-129937972D01*
X101927863Y-130338139D01*
X102124969Y-130783340D01*
X102342802Y-131281533D01*
X102585032Y-131840675D01*
X102734802Y-132188254D01*
X102970304Y-132733350D01*
X103189859Y-133236884D01*
X103391862Y-133695343D01*
X103574705Y-134105213D01*
X103736781Y-134462982D01*
X103876483Y-134765138D01*
X103992204Y-135008166D01*
X104082337Y-135188554D01*
X104145275Y-135302789D01*
X104179411Y-135347358D01*
X104180037Y-135347603D01*
X104215068Y-135393085D01*
X104219374Y-135422501D01*
X104238713Y-135483184D01*
X104296493Y-135612443D01*
X104392357Y-135809608D01*
X104525950Y-136074006D01*
X104696914Y-136404967D01*
X104904894Y-136801820D01*
X105149533Y-137263893D01*
X105430475Y-137790516D01*
X105747365Y-138381017D01*
X106099844Y-139034725D01*
X106487558Y-139750970D01*
X106910150Y-140529079D01*
X107367264Y-141368382D01*
X107680501Y-141942343D01*
X108039927Y-142600796D01*
X108364880Y-143196905D01*
X108659206Y-143737841D01*
X108926753Y-144230772D01*
X109171366Y-144682869D01*
X109396893Y-145101301D01*
X109607179Y-145493237D01*
X109806071Y-145865847D01*
X109997416Y-146226300D01*
X110185060Y-146581766D01*
X110372849Y-146939415D01*
X110564631Y-147306416D01*
X110764251Y-147689937D01*
X110767937Y-147697031D01*
X111111209Y-148346047D01*
X111432587Y-148928919D01*
X111737076Y-149454180D01*
X112029684Y-149930363D01*
X112315416Y-150366002D01*
X112438450Y-150544466D01*
X112860955Y-151129975D01*
X113303694Y-151707146D01*
X113771185Y-152280598D01*
X114267950Y-152854950D01*
X114798507Y-153434818D01*
X115367377Y-154024821D01*
X115979080Y-154629577D01*
X116638136Y-155253703D01*
X117349065Y-155901818D01*
X118116387Y-156578540D01*
X118944622Y-157288487D01*
X119479218Y-157737780D01*
X119907002Y-158088063D01*
X120316982Y-158408264D01*
X120717292Y-158702788D01*
X121116066Y-158976043D01*
X121521440Y-159232435D01*
X121941547Y-159476373D01*
X122384521Y-159712262D01*
X122858498Y-159944511D01*
X123371610Y-160177525D01*
X123931993Y-160415713D01*
X124547782Y-160663481D01*
X125227109Y-160925236D01*
X125667115Y-161090288D01*
X127312538Y-161675641D01*
X128918520Y-162192831D01*
X130485937Y-162642072D01*
X132015665Y-163023575D01*
X133508578Y-163337553D01*
X134965551Y-163584218D01*
X136387461Y-163763781D01*
X136888414Y-163811818D01*
X137368029Y-163849348D01*
X137879398Y-163881121D01*
X138412003Y-163907022D01*
X138955327Y-163926931D01*
X139498852Y-163940734D01*
X140032059Y-163948312D01*
X140544432Y-163949548D01*
X141025452Y-163944325D01*
X141464602Y-163932526D01*
X141851363Y-163914034D01*
X142175218Y-163888731D01*
X142319374Y-163872308D01*
X142815436Y-163797393D01*
X143280729Y-163704647D01*
X143734645Y-163588567D01*
X144196577Y-163443653D01*
X144685917Y-163264405D01*
X145196718Y-163056085D01*
X146474951Y-162476578D01*
X147726775Y-161832952D01*
X148956136Y-161122669D01*
X150166978Y-160343189D01*
X151363247Y-159491973D01*
X152548889Y-158566485D01*
X153716523Y-157574202D01*
X154117708Y-157206568D01*
X154460850Y-156861474D01*
X154757804Y-156523851D01*
X155020427Y-156178629D01*
X155260575Y-155810737D01*
X155490103Y-155405107D01*
X155617205Y-155158281D01*
X155762384Y-154850977D01*
X155896899Y-154528677D01*
X156021951Y-154185764D01*
X156138743Y-153816621D01*
X156248475Y-153415632D01*
X156352349Y-152977180D01*
X156451568Y-152495649D01*
X156547332Y-151965421D01*
X156640844Y-151380880D01*
X156733305Y-150736410D01*
X156825917Y-150026394D01*
X156919881Y-149245215D01*
X156963057Y-148867812D01*
X157009516Y-148446519D01*
X157047908Y-148073539D01*
X157079575Y-147730465D01*
X157105856Y-147398889D01*
X157128093Y-147060405D01*
X157147627Y-146696605D01*
X157165799Y-146289080D01*
X157182766Y-145851562D01*
X157196159Y-145498718D01*
X157209506Y-145166173D01*
X157222378Y-144863330D01*
X157234343Y-144599589D01*
X157244971Y-144384351D01*
X157253830Y-144227016D01*
X157260490Y-144136987D01*
X157261897Y-144125156D01*
X157271023Y-144061132D01*
X157290015Y-143925927D01*
X157317838Y-143726985D01*
X157353454Y-143471746D01*
X157395826Y-143167653D01*
X157443916Y-142822148D01*
X157496688Y-142442674D01*
X157553106Y-142036671D01*
X157602026Y-141684374D01*
X157743022Y-140675862D01*
X157885427Y-139671172D01*
X158028518Y-138674945D01*
X158171570Y-137691824D01*
X158313861Y-136726452D01*
X158454667Y-135783471D01*
X158593265Y-134867524D01*
X158728931Y-133983253D01*
X158860941Y-133135302D01*
X158988572Y-132328312D01*
X159111101Y-131566926D01*
X159227804Y-130855787D01*
X159337958Y-130199538D01*
X159440839Y-129602820D01*
X159535724Y-129070276D01*
X159621889Y-128606550D01*
X159698610Y-128216283D01*
X159707903Y-128170941D01*
X159893166Y-127326122D01*
X160096683Y-126497849D01*
X160315204Y-125697011D01*
X160545479Y-124934499D01*
X160784256Y-124221201D01*
X161028287Y-123568008D01*
X161217598Y-123113151D01*
X161305045Y-122919452D01*
X161400545Y-122720448D01*
X161508518Y-122508159D01*
X161633386Y-122274599D01*
X161779569Y-122011786D01*
X161951488Y-121711738D01*
X162153564Y-121366471D01*
X162390217Y-120968002D01*
X162592624Y-120630156D01*
X162807120Y-120268545D01*
X163041933Y-119864696D01*
X163285512Y-119439008D01*
X163526301Y-119011881D01*
X163752748Y-118603714D01*
X163953298Y-118234906D01*
X164019956Y-118109999D01*
X164324651Y-117532927D01*
X164593589Y-117017368D01*
X164830002Y-116555695D01*
X165037124Y-116140285D01*
X165218189Y-115763511D01*
X165376431Y-115417747D01*
X165515083Y-115095370D01*
X165637378Y-114788753D01*
X165746551Y-114490271D01*
X165845834Y-114192298D01*
X165938462Y-113887209D01*
X166027667Y-113567380D01*
X166116684Y-113225183D01*
X166153177Y-113079471D01*
X166549152Y-111366259D01*
X166895669Y-109615263D01*
X167193488Y-107821303D01*
X167443370Y-105979195D01*
X167646072Y-104083759D01*
X167802356Y-102129812D01*
X167836181Y-101599999D01*
X167907145Y-100188393D01*
X167953428Y-98713774D01*
X167975052Y-97188566D01*
X167972039Y-95625188D01*
X167944410Y-94036064D01*
X167892188Y-92433613D01*
X167817297Y-90864531D01*
X167770423Y-90060222D01*
X167716918Y-89218071D01*
X167657577Y-88347456D01*
X167593198Y-87457753D01*
X167524574Y-86558343D01*
X167452502Y-85658602D01*
X167377778Y-84767908D01*
X167301197Y-83895641D01*
X167223554Y-83051176D01*
X167145646Y-82243894D01*
X167068267Y-81483172D01*
X166992214Y-80778387D01*
X166918283Y-80138918D01*
X166882944Y-79851249D01*
X166545146Y-77411060D01*
X166148725Y-74999280D01*
X165695462Y-72625913D01*
X165187142Y-70300966D01*
X165160588Y-70187343D01*
X165118257Y-70010095D01*
X165060899Y-69774985D01*
X164990374Y-69489322D01*
X164908543Y-69160417D01*
X164817267Y-68795580D01*
X164718406Y-68402121D01*
X164613819Y-67987350D01*
X164505369Y-67558578D01*
X164394914Y-67123114D01*
X164284316Y-66688270D01*
X164175435Y-66261354D01*
X164070130Y-65849678D01*
X163970264Y-65460551D01*
X163877696Y-65101284D01*
X163794286Y-64779187D01*
X163721894Y-64501569D01*
X163662383Y-64275743D01*
X163617610Y-64109016D01*
X163589438Y-64008701D01*
X163582696Y-63987240D01*
X163512151Y-63834913D01*
X163409931Y-63672507D01*
X163295308Y-63527028D01*
X163187555Y-63425480D01*
X163176209Y-63417665D01*
X163101796Y-63392849D01*
X162948774Y-63364161D01*
X162717811Y-63331672D01*
X162409575Y-63295450D01*
X162024735Y-63255565D01*
X161563959Y-63212086D01*
X161027915Y-63165082D01*
X160417271Y-63114622D01*
X159732696Y-63060776D01*
X159722343Y-63059979D01*
X159399390Y-63037102D01*
X159078514Y-63018717D01*
X158755623Y-63005115D01*
X158426624Y-62996585D01*
X158087425Y-62993418D01*
X157733935Y-62995905D01*
X157362061Y-63004335D01*
X156967712Y-63019000D01*
X156546796Y-63040190D01*
X156095221Y-63068195D01*
X155608895Y-63103306D01*
X155083725Y-63145812D01*
X154515620Y-63196006D01*
X153900489Y-63254176D01*
X153234238Y-63320613D01*
X152512777Y-63395608D01*
X151732013Y-63479451D01*
X150887854Y-63572433D01*
X149976209Y-63674844D01*
X148992985Y-63786974D01*
X148212968Y-63876834D01*
X147455017Y-63964368D01*
X146770258Y-64043167D01*
X146153050Y-64113767D01*
X145597752Y-64176704D01*
X145098725Y-64232515D01*
X144650329Y-64281737D01*
X144246922Y-64324906D01*
X143882865Y-64362559D01*
X143552517Y-64395233D01*
X143250239Y-64423464D01*
X142970389Y-64447789D01*
X142707328Y-64468744D01*
X142455415Y-64486866D01*
X142209011Y-64502692D01*
X141962474Y-64516759D01*
X141710165Y-64529602D01*
X141446443Y-64541759D01*
X141165668Y-64553766D01*
X141046035Y-64558699D01*
X140595109Y-64575086D01*
X140198444Y-64584449D01*
X139831241Y-64586795D01*
X139468697Y-64582135D01*
X139086011Y-64570479D01*
X138823535Y-64559552D01*
X138198714Y-64526777D01*
X137632947Y-64486155D01*
X137106078Y-64434958D01*
X136597952Y-64370457D01*
X136088412Y-64289924D01*
X135557304Y-64190630D01*
X134984470Y-64069848D01*
X134650225Y-63994622D01*
X133552245Y-63753174D01*
X132498255Y-63542940D01*
X131461557Y-63359025D01*
X130415455Y-63196533D01*
X129917030Y-63126723D01*
X128612427Y-62968755D01*
X127285313Y-62844394D01*
X125944607Y-62753508D01*
X124599230Y-62695964D01*
X123258101Y-62671630D01*
X121930140Y-62680375D01*
X120624266Y-62722065D01*
X119349400Y-62796570D01*
X118114460Y-62903755D01*
X116928367Y-63043490D01*
X115800041Y-63215642D01*
X115093898Y-63346443D01*
X114447908Y-63481502D01*
X113841509Y-63622260D01*
X113260098Y-63773287D01*
X112689067Y-63939155D01*
X112113812Y-64124434D01*
X111519727Y-64333695D01*
X110892205Y-64571510D01*
X110216642Y-64842449D01*
X109915037Y-64967233D01*
X109501847Y-65136072D01*
X109143070Y-65274499D01*
X108822385Y-65388112D01*
X108523467Y-65482509D01*
X108229996Y-65563289D01*
X108044581Y-65608764D01*
X107870883Y-65648126D01*
X107721800Y-65676974D01*
X107579176Y-65696934D01*
X107424859Y-65709634D01*
X107240694Y-65716702D01*
X107008526Y-65719764D01*
X106799062Y-65720405D01*
X106503914Y-65719168D01*
X106273924Y-65714182D01*
X106094921Y-65704493D01*
X105952738Y-65689145D01*
X105833203Y-65667183D01*
X105768165Y-65650900D01*
X105465541Y-65542654D01*
X105233274Y-65401946D01*
X105068533Y-65227038D01*
X105061845Y-65217101D01*
X105015978Y-65143422D01*
X104985392Y-65075127D01*
X104967098Y-64994120D01*
X104958108Y-64882303D01*
X104955431Y-64721580D01*
X104955673Y-64587716D01*
X105522165Y-64587716D01*
X105552106Y-64802073D01*
X105642023Y-64964895D01*
X105791498Y-65075581D01*
X106000112Y-65133531D01*
X106124374Y-65142504D01*
X106209363Y-65141288D01*
X106357385Y-65136264D01*
X106552225Y-65128100D01*
X106777668Y-65117464D01*
X106961487Y-65108032D01*
X107216172Y-65091709D01*
X107468609Y-65070590D01*
X107697576Y-65046796D01*
X107881850Y-65022445D01*
X107965617Y-65007737D01*
X108106305Y-64970106D01*
X108303639Y-64905243D01*
X108542019Y-64818784D01*
X108805842Y-64716367D01*
X109053348Y-64614699D01*
X110423306Y-64069821D01*
X111777919Y-63598301D01*
X113125353Y-63197689D01*
X114473777Y-62865529D01*
X115668411Y-62627778D01*
X116112459Y-62552253D01*
X116548464Y-62485076D01*
X116987818Y-62425048D01*
X117441917Y-62370969D01*
X117922154Y-62321640D01*
X118439925Y-62275861D01*
X119006625Y-62232432D01*
X119633646Y-62190155D01*
X120094374Y-62161803D01*
X120341072Y-62150009D01*
X120653464Y-62139739D01*
X121022236Y-62130991D01*
X121438072Y-62123766D01*
X121891658Y-62118062D01*
X122373679Y-62113878D01*
X122874821Y-62111214D01*
X123385769Y-62110068D01*
X123897209Y-62110441D01*
X124399826Y-62112330D01*
X124884305Y-62115735D01*
X125341332Y-62120656D01*
X125761592Y-62127090D01*
X126135770Y-62135038D01*
X126454552Y-62144499D01*
X126708623Y-62155471D01*
X126821405Y-62162436D01*
X127831382Y-62243306D01*
X128779676Y-62336597D01*
X129683335Y-62444658D01*
X130559408Y-62569838D01*
X131424946Y-62714484D01*
X132296998Y-62880948D01*
X132804361Y-62986674D01*
X133461848Y-63124570D01*
X134061327Y-63243359D01*
X134621010Y-63346078D01*
X135159112Y-63435763D01*
X135693848Y-63515451D01*
X136243432Y-63588179D01*
X136822655Y-63656599D01*
X137487350Y-63727719D01*
X138120138Y-63787678D01*
X138728154Y-63836225D01*
X139318532Y-63873108D01*
X139898408Y-63898074D01*
X140474916Y-63910872D01*
X141055192Y-63911251D01*
X141646370Y-63898958D01*
X142255585Y-63873742D01*
X142889973Y-63835350D01*
X143556668Y-63783531D01*
X144262805Y-63718034D01*
X145015520Y-63638605D01*
X145821946Y-63544994D01*
X146689219Y-63436949D01*
X147624475Y-63314218D01*
X148014530Y-63261593D01*
X149070248Y-63119499D01*
X150052211Y-62990249D01*
X150964947Y-62873558D01*
X151812981Y-62769141D01*
X152600841Y-62676713D01*
X153333053Y-62595991D01*
X154014145Y-62526689D01*
X154648644Y-62468522D01*
X155241075Y-62421206D01*
X155795968Y-62384456D01*
X156317847Y-62357987D01*
X156811240Y-62341515D01*
X157280674Y-62334755D01*
X157730676Y-62337422D01*
X158165772Y-62349231D01*
X158590490Y-62369899D01*
X159009357Y-62399139D01*
X159426899Y-62436668D01*
X159847643Y-62482201D01*
X160039843Y-62505302D01*
X160495793Y-62559954D01*
X160894993Y-62603456D01*
X161259031Y-62637449D01*
X161609492Y-62663572D01*
X161967965Y-62683466D01*
X162356037Y-62698770D01*
X162726570Y-62709428D01*
X163155401Y-62717748D01*
X163514898Y-62718556D01*
X163814829Y-62710930D01*
X164064959Y-62693951D01*
X164275056Y-62666696D01*
X164454888Y-62628245D01*
X164614219Y-62577677D01*
X164754096Y-62518239D01*
X165026340Y-62368081D01*
X165232695Y-62208840D01*
X165368183Y-62044924D01*
X165418168Y-61929857D01*
X165438954Y-61740152D01*
X165417949Y-61507840D01*
X165360401Y-61254250D01*
X165271562Y-61000709D01*
X165156680Y-60768545D01*
X165116403Y-60703952D01*
X165027244Y-60604807D01*
X164877631Y-60478726D01*
X164678883Y-60332676D01*
X164442316Y-60173623D01*
X164179246Y-60008534D01*
X163900991Y-59844378D01*
X163618868Y-59688120D01*
X163344193Y-59546729D01*
X163088284Y-59427171D01*
X162946391Y-59368001D01*
X162619425Y-59255660D01*
X162262374Y-59166175D01*
X161856848Y-59095417D01*
X161567812Y-59058553D01*
X160007305Y-58910825D01*
X158487086Y-58825234D01*
X156998003Y-58801821D01*
X155530902Y-58840627D01*
X154076631Y-58941692D01*
X152677812Y-59098158D01*
X152480932Y-59125926D01*
X152218245Y-59165545D01*
X151902103Y-59215021D01*
X151544858Y-59272358D01*
X151158861Y-59335562D01*
X150756463Y-59402639D01*
X150350015Y-59471593D01*
X150117968Y-59511544D01*
X149394331Y-59636367D01*
X148742643Y-59747730D01*
X148156802Y-59846623D01*
X147630708Y-59934036D01*
X147158260Y-60010959D01*
X146733359Y-60078383D01*
X146349903Y-60137297D01*
X146001793Y-60188692D01*
X145682926Y-60233558D01*
X145600576Y-60244746D01*
X144942971Y-60329412D01*
X144301353Y-60403433D01*
X143670915Y-60466624D01*
X143046852Y-60518797D01*
X142424357Y-60559764D01*
X141798625Y-60589339D01*
X141164848Y-60607336D01*
X140518221Y-60613566D01*
X139853937Y-60607844D01*
X139167191Y-60589982D01*
X138453176Y-60559793D01*
X137707087Y-60517090D01*
X136924116Y-60461687D01*
X136099458Y-60393396D01*
X135228306Y-60312030D01*
X134305855Y-60217403D01*
X133327298Y-60109328D01*
X132287830Y-59987617D01*
X131182643Y-59852084D01*
X130006932Y-59702541D01*
X129301874Y-59610764D01*
X128900877Y-59558184D01*
X128439612Y-59497704D01*
X127936512Y-59431742D01*
X127410012Y-59362714D01*
X126878543Y-59293036D01*
X126360541Y-59225127D01*
X125874438Y-59161401D01*
X125670468Y-59134663D01*
X125248576Y-59079308D01*
X124763484Y-59015573D01*
X124230679Y-58945498D01*
X123665648Y-58871124D01*
X123083879Y-58794490D01*
X122500860Y-58717635D01*
X121932079Y-58642600D01*
X121393023Y-58571424D01*
X121138680Y-58537815D01*
X118591268Y-58201094D01*
X117854806Y-58241254D01*
X116912457Y-58316152D01*
X115974658Y-58438892D01*
X115033573Y-58611507D01*
X114081364Y-58836031D01*
X113110195Y-59114497D01*
X112112230Y-59448939D01*
X111079632Y-59841389D01*
X110093124Y-60255072D01*
X109838639Y-60369009D01*
X109552613Y-60501836D01*
X109245180Y-60648421D01*
X108926475Y-60803633D01*
X108606633Y-60962341D01*
X108295789Y-61119412D01*
X108004079Y-61269716D01*
X107741637Y-61408122D01*
X107518598Y-61529498D01*
X107345097Y-61628712D01*
X107231269Y-61700633D01*
X107215780Y-61711876D01*
X106760929Y-62102957D01*
X106371304Y-62538640D01*
X106048191Y-63016906D01*
X105792878Y-63535737D01*
X105606650Y-64093111D01*
X105552621Y-64322425D01*
X105522165Y-64587716D01*
X104955673Y-64587716D01*
X104955697Y-64574373D01*
X104958771Y-64356305D01*
X104968577Y-64189925D01*
X104989323Y-64047587D01*
X105025219Y-63901642D01*
X105080472Y-63724446D01*
X105089044Y-63698437D01*
X105311280Y-63120183D01*
X105575652Y-62605899D01*
X105885872Y-62150101D01*
X106245650Y-61747305D01*
X106640312Y-61406001D01*
X106780090Y-61312043D01*
X106985770Y-61191994D01*
X107249680Y-61049557D01*
X107564150Y-60888432D01*
X107921509Y-60712322D01*
X108314086Y-60524928D01*
X108734211Y-60329951D01*
X109174212Y-60131093D01*
X109626419Y-59932056D01*
X110083162Y-59736541D01*
X110212187Y-59682360D01*
X111145622Y-59303143D01*
X112019589Y-58971075D01*
X112837637Y-58685047D01*
X113603319Y-58443952D01*
X114320185Y-58246680D01*
X114991785Y-58092123D01*
X115621673Y-57979173D01*
X115708905Y-57966304D01*
X116053672Y-57919449D01*
X116375724Y-57881884D01*
X116688877Y-57852943D01*
X117006947Y-57831961D01*
X117343750Y-57818271D01*
X117713102Y-57811209D01*
X118128818Y-57810109D01*
X118604714Y-57814304D01*
X118804530Y-57817154D01*
X119095995Y-57821993D01*
X119367757Y-57827524D01*
X119625012Y-57834312D01*
X119872953Y-57842919D01*
X120116777Y-57853907D01*
X120361676Y-57867840D01*
X120612845Y-57885281D01*
X120875480Y-57906793D01*
X121154774Y-57932939D01*
X121455922Y-57964281D01*
X121784119Y-58001384D01*
X122144559Y-58044809D01*
X122542436Y-58095119D01*
X122982946Y-58152879D01*
X123471282Y-58218650D01*
X124012639Y-58292995D01*
X124612212Y-58376479D01*
X125275195Y-58469663D01*
X126006783Y-58573110D01*
X126742030Y-58677423D01*
X127713516Y-58814972D01*
X128611957Y-58941231D01*
X129442782Y-59056838D01*
X130211419Y-59162430D01*
X130923297Y-59258645D01*
X131583846Y-59346120D01*
X132198494Y-59425491D01*
X132772670Y-59497396D01*
X133311803Y-59562473D01*
X133821321Y-59621359D01*
X134306654Y-59674690D01*
X134773230Y-59723105D01*
X135226478Y-59767240D01*
X135671826Y-59807733D01*
X136114705Y-59845221D01*
X136560542Y-59880341D01*
X137014766Y-59913730D01*
X137482807Y-59946027D01*
X137636249Y-59956226D01*
X137896518Y-59969969D01*
X138219912Y-59981543D01*
X138595191Y-59990948D01*
X139011115Y-59998185D01*
X139456442Y-60003252D01*
X139919932Y-60006150D01*
X140390345Y-60006880D01*
X140856440Y-60005441D01*
X141306975Y-60001833D01*
X141730712Y-59996056D01*
X142116408Y-59988111D01*
X142452823Y-59977997D01*
X142728718Y-59965714D01*
X142874999Y-59956203D01*
X143689322Y-59888431D01*
X144459600Y-59814380D01*
X145203432Y-59731684D01*
X145938417Y-59637979D01*
X146682154Y-59530900D01*
X147452243Y-59408083D01*
X148266284Y-59267161D01*
X148987033Y-59134921D01*
X149886363Y-58970229D01*
X150719537Y-58826198D01*
X151496679Y-58701556D01*
X152227917Y-58595028D01*
X152923376Y-58505340D01*
X153593183Y-58431218D01*
X154247465Y-58371388D01*
X154896347Y-58324577D01*
X155549956Y-58289510D01*
X155786048Y-58279606D01*
X156023018Y-58271255D01*
X156255771Y-58265158D01*
X156490927Y-58261500D01*
X156735102Y-58260466D01*
X156994915Y-58262241D01*
X157276984Y-58267008D01*
X157587926Y-58274952D01*
X157934360Y-58286259D01*
X158322903Y-58301111D01*
X158760173Y-58319695D01*
X159252788Y-58342194D01*
X159807366Y-58368793D01*
X160430524Y-58399676D01*
X160847914Y-58420736D01*
X161298798Y-58443606D01*
X161208819Y-58292896D01*
X161100756Y-58126647D01*
X160953011Y-57919922D01*
X160779508Y-57690785D01*
X160594168Y-57457300D01*
X160410918Y-57237528D01*
X160285510Y-57095082D01*
X159710965Y-56514747D01*
X159074243Y-55972623D01*
X158373660Y-55467701D01*
X157607531Y-54998971D01*
X156774174Y-54565420D01*
X155871904Y-54166039D01*
X154899037Y-53799817D01*
X154658648Y-53718010D01*
X153731956Y-53434888D01*
X152789170Y-53199784D01*
X151824106Y-53012152D01*
X150830581Y-52871442D01*
X149802413Y-52777107D01*
X148733416Y-52728597D01*
X147617408Y-52725365D01*
X146448206Y-52766862D01*
X145219625Y-52852540D01*
X145057812Y-52866664D01*
X144901573Y-52880977D01*
X144741383Y-52896530D01*
X144570618Y-52914115D01*
X144382655Y-52934521D01*
X144170872Y-52958540D01*
X143928647Y-52986961D01*
X143649357Y-53020577D01*
X143326379Y-53060177D01*
X142953090Y-53106551D01*
X142522869Y-53160491D01*
X142029093Y-53222788D01*
X141465139Y-53294231D01*
X141287499Y-53316776D01*
X140291534Y-53433698D01*
X139361664Y-53522792D01*
X138489812Y-53584500D01*
X137667901Y-53619257D01*
X136887855Y-53627505D01*
X136141596Y-53609681D01*
X136007155Y-53603588D01*
X135552263Y-53578173D01*
X135130268Y-53546969D01*
X134722312Y-53507753D01*
X134309535Y-53458303D01*
X133873079Y-53396397D01*
X133394086Y-53319811D01*
X132948386Y-53243095D01*
X131704582Y-53028923D01*
X130530523Y-52837919D01*
X129420162Y-52669664D01*
X128367454Y-52523742D01*
X127366354Y-52399734D01*
X126410815Y-52297222D01*
X125494793Y-52215789D01*
X124612242Y-52155016D01*
X123757115Y-52114486D01*
X122923368Y-52093781D01*
X122104955Y-52092483D01*
X121295830Y-52110175D01*
X120489948Y-52146438D01*
X119681262Y-52200854D01*
X118883905Y-52271031D01*
X117761091Y-52398872D01*
X116704434Y-52557604D01*
X115706030Y-52749559D01*
X114757977Y-52977068D01*
X113852372Y-53242463D01*
X112981312Y-53548076D01*
X112136894Y-53896239D01*
X111311215Y-54289285D01*
X110496373Y-54729544D01*
X110437671Y-54763266D01*
X110193195Y-54901375D01*
X109918504Y-55051601D01*
X109622421Y-55209555D01*
X109313769Y-55370848D01*
X109001371Y-55531093D01*
X108694050Y-55685901D01*
X108400629Y-55830884D01*
X108129931Y-55961654D01*
X107890779Y-56073822D01*
X107691995Y-56163000D01*
X107542403Y-56224801D01*
X107450825Y-56254835D01*
X107434335Y-56257031D01*
X107314999Y-56257031D01*
X107314999Y-56007892D01*
X107327291Y-55822160D01*
X107362417Y-55694872D01*
X107375535Y-55672328D01*
X107432336Y-55622209D01*
X107551923Y-55539928D01*
X107726580Y-55429793D01*
X107948590Y-55296108D01*
X108210238Y-55143181D01*
X108503808Y-54975317D01*
X108821582Y-54796821D01*
X109155845Y-54612001D01*
X109498881Y-54425162D01*
X109842974Y-54240610D01*
X110180406Y-54062652D01*
X110503464Y-53895593D01*
X110804429Y-53743739D01*
X111025780Y-53635292D01*
X111823897Y-53266423D01*
X112582132Y-52949795D01*
X113315596Y-52680410D01*
X114039400Y-52453271D01*
X114768656Y-52263383D01*
X115518474Y-52105748D01*
X115808124Y-52053916D01*
X117089597Y-51852330D01*
X118333093Y-51693582D01*
X119565638Y-51574955D01*
X120814259Y-51493735D01*
X121758232Y-51456304D01*
X123412281Y-51440340D01*
X125030467Y-51492022D01*
X126619382Y-51611924D01*
X128185616Y-51800626D01*
X129735761Y-52058703D01*
X130571874Y-52227846D01*
X131510684Y-52421950D01*
X132386578Y-52586679D01*
X133209821Y-52723392D01*
X133990679Y-52833449D01*
X134739418Y-52918212D01*
X135466304Y-52979041D01*
X136181602Y-53017296D01*
X136627410Y-53030348D01*
X137037316Y-53036711D01*
X137404481Y-53037518D01*
X137744512Y-53031799D01*
X138073018Y-53018583D01*
X138405605Y-52996900D01*
X138757882Y-52965779D01*
X139145457Y-52924251D01*
X139583937Y-52871346D01*
X139957968Y-52823306D01*
X140827328Y-52712371D01*
X141631698Y-52615883D01*
X142383922Y-52532733D01*
X143096846Y-52461813D01*
X143783315Y-52402015D01*
X144456175Y-52352231D01*
X145128270Y-52311352D01*
X145812446Y-52278270D01*
X146521548Y-52251877D01*
X146616395Y-52248875D01*
X147047803Y-52238811D01*
X147517215Y-52233772D01*
X148010437Y-52233499D01*
X148513277Y-52237735D01*
X149011542Y-52246220D01*
X149491040Y-52258697D01*
X149937578Y-52274908D01*
X150336963Y-52294595D01*
X150675003Y-52317499D01*
X150752968Y-52324116D01*
X150964663Y-52338296D01*
X151100897Y-52332528D01*
X151164228Y-52301468D01*
X151157215Y-52239771D01*
X151082417Y-52142094D01*
X150942392Y-52003092D01*
X150917712Y-51980013D01*
X150794432Y-51864908D01*
X150693816Y-51770283D01*
X150629524Y-51709021D01*
X150614062Y-51693633D01*
X150574180Y-51656330D01*
X150484415Y-51576186D01*
X150355037Y-51462146D01*
X150196316Y-51323156D01*
X150018523Y-51168162D01*
X149831927Y-51006108D01*
X149646800Y-50845941D01*
X149473411Y-50696605D01*
X149322031Y-50567048D01*
X149264687Y-50518311D01*
X148734675Y-50081109D01*
X148244377Y-49703423D01*
X147785727Y-49381389D01*
X147350658Y-49111140D01*
X146931105Y-48888810D01*
X146519000Y-48710533D01*
X146106278Y-48572443D01*
X145684872Y-48470674D01*
X145246717Y-48401359D01*
X144783745Y-48360633D01*
X144760155Y-48359297D01*
X144588349Y-48351287D01*
X144347613Y-48342245D01*
X144048379Y-48332460D01*
X143701081Y-48322223D01*
X143316154Y-48311823D01*
X142904029Y-48301552D01*
X142475141Y-48291698D01*
X142039923Y-48282552D01*
X141902655Y-48279854D01*
X141370434Y-48269212D01*
X140801569Y-48257173D01*
X140203356Y-48243929D01*
X139583091Y-48229674D01*
X138948071Y-48214600D01*
X138305593Y-48198899D01*
X137662952Y-48182765D01*
X137027445Y-48166389D01*
X136406368Y-48149966D01*
X135807018Y-48133686D01*
X135236690Y-48117744D01*
X134702682Y-48102331D01*
X134212289Y-48087641D01*
X133772809Y-48073866D01*
X133391536Y-48061199D01*
X133075768Y-48049832D01*
X132853905Y-48040886D01*
X132352845Y-48017569D01*
X131847375Y-47990847D01*
X131325577Y-47959934D01*
X130775529Y-47924042D01*
X130185310Y-47882385D01*
X129543002Y-47834178D01*
X128836682Y-47778633D01*
X128647030Y-47763373D01*
X127644489Y-47684627D01*
X126714708Y-47616487D01*
X125851804Y-47558815D01*
X125049892Y-47511476D01*
X124303089Y-47474332D01*
X123605510Y-47447247D01*
X122951271Y-47430083D01*
X122334489Y-47422705D01*
X121749278Y-47424975D01*
X121189756Y-47436757D01*
X120650037Y-47457913D01*
X120124238Y-47488308D01*
X119606475Y-47527804D01*
X119379999Y-47548001D01*
X118855574Y-47602325D01*
X118339764Y-47667681D01*
X117826201Y-47745757D01*
X117308516Y-47838241D01*
X116780341Y-47946822D01*
X116235307Y-48073189D01*
X115667047Y-48219028D01*
X115069192Y-48386030D01*
X114435373Y-48575882D01*
X113759223Y-48790272D01*
X113034373Y-49030889D01*
X112254454Y-49299422D01*
X111413099Y-49597557D01*
X110762747Y-49832570D01*
X110407169Y-49961167D01*
X110071735Y-50080946D01*
X109764353Y-50189192D01*
X109492930Y-50283191D01*
X109265376Y-50360228D01*
X109089597Y-50417589D01*
X108973501Y-50452558D01*
X108927200Y-50462656D01*
X108846113Y-50438069D01*
X108818175Y-50372076D01*
X108837495Y-50276324D01*
X108898184Y-50162461D01*
X108994353Y-50042135D01*
X109120111Y-49926995D01*
X109239084Y-49845846D01*
X109323826Y-49804145D01*
X109470721Y-49740435D01*
X109667298Y-49659760D01*
X109901089Y-49567165D01*
X110159622Y-49467695D01*
X110357334Y-49393445D01*
X110652337Y-49283186D01*
X110956165Y-49168491D01*
X111250258Y-49056447D01*
X111516057Y-48954140D01*
X111735003Y-48868658D01*
X111819530Y-48835074D01*
X112827830Y-48450377D01*
X113821682Y-48111624D01*
X114811136Y-47816873D01*
X115806243Y-47564181D01*
X116817054Y-47351604D01*
X117853621Y-47177198D01*
X118925993Y-47039021D01*
X120044222Y-46935129D01*
X121218359Y-46863579D01*
X122197812Y-46828495D01*
X122605074Y-46820323D01*
X123012784Y-46817122D01*
X123427770Y-46819231D01*
X123856865Y-46826990D01*
X124306897Y-46840739D01*
X124784697Y-46860817D01*
X125297096Y-46887563D01*
X125850924Y-46921317D01*
X126453011Y-46962419D01*
X127110188Y-47011207D01*
X127829285Y-47068022D01*
X128617133Y-47133203D01*
X129024062Y-47167761D01*
X129784556Y-47232111D01*
X130494801Y-47290552D01*
X131163007Y-47343484D01*
X131797385Y-47391307D01*
X132406147Y-47434420D01*
X132997506Y-47473223D01*
X133579672Y-47508115D01*
X134160857Y-47539497D01*
X134749273Y-47567768D01*
X135353131Y-47593328D01*
X135980643Y-47616576D01*
X136640020Y-47637913D01*
X137339474Y-47657738D01*
X138087217Y-47676450D01*
X138891461Y-47694450D01*
X139760416Y-47712137D01*
X140493749Y-47726071D01*
X140950450Y-47734733D01*
X141407876Y-47743785D01*
X141855495Y-47752995D01*
X142282777Y-47762130D01*
X142679188Y-47770959D01*
X143034197Y-47779247D01*
X143337273Y-47786764D01*
X143577883Y-47793276D01*
X143688593Y-47796626D01*
X144075315Y-47807157D01*
X144417577Y-47812632D01*
X144709492Y-47813152D01*
X144945172Y-47808821D01*
X145118728Y-47799738D01*
X145224273Y-47786006D01*
X145256249Y-47769583D01*
X145227447Y-47730589D01*
X145147107Y-47648520D01*
X145024328Y-47531517D01*
X144868209Y-47387726D01*
X144687849Y-47225289D01*
X144492348Y-47052351D01*
X144290805Y-46877056D01*
X144092319Y-46707546D01*
X143905989Y-46551967D01*
X143793231Y-46460181D01*
X143562757Y-46277591D01*
X143344287Y-46110971D01*
X143129800Y-45955579D01*
X142911275Y-45806677D01*
X142680689Y-45659526D01*
X142430022Y-45509388D01*
X142151252Y-45351522D01*
X141836358Y-45181191D01*
X141477317Y-44993655D01*
X141066110Y-44784174D01*
X140594713Y-44548011D01*
X140354843Y-44428810D01*
X139906613Y-44207014D01*
X139477103Y-43995647D01*
X139058285Y-43790890D01*
X138642130Y-43588925D01*
X138220607Y-43385933D01*
X137785690Y-43178097D01*
X137329347Y-42961599D01*
X136843551Y-42732620D01*
X136320272Y-42487342D01*
X135751481Y-42221948D01*
X135129150Y-41932619D01*
X134445249Y-41615536D01*
X134203280Y-41503510D01*
X133576789Y-41215751D01*
X133012079Y-40961471D01*
X132500573Y-40737404D01*
X132033691Y-40540286D01*
X131602857Y-40366853D01*
X131199493Y-40213839D01*
X130815022Y-40077980D01*
X130440864Y-39956011D01*
X130068442Y-39844668D01*
X129689180Y-39740687D01*
X129335192Y-39650770D01*
X128779913Y-39522050D01*
X128239633Y-39413735D01*
X127706942Y-39325789D01*
X127174430Y-39258176D01*
X126634686Y-39210858D01*
X126080301Y-39183798D01*
X125503865Y-39176962D01*
X124897966Y-39190310D01*
X124255195Y-39223807D01*
X123568142Y-39277417D01*
X122829396Y-39351102D01*
X122031548Y-39444826D01*
X121167186Y-39558551D01*
X120808749Y-39608560D01*
X119883462Y-39744018D01*
X118985210Y-39884511D01*
X118119754Y-40028903D01*
X117292854Y-40176059D01*
X116510273Y-40324843D01*
X115777772Y-40474119D01*
X115101111Y-40622753D01*
X114486053Y-40769607D01*
X113938358Y-40913548D01*
X113463788Y-41053439D01*
X113440040Y-41060955D01*
X113236825Y-41128215D01*
X113006538Y-41208884D01*
X112760289Y-41298595D01*
X112509188Y-41392976D01*
X112264347Y-41487659D01*
X112036875Y-41578273D01*
X111837884Y-41660450D01*
X111678484Y-41729818D01*
X111569785Y-41782009D01*
X111522899Y-41812653D01*
X111521874Y-41815352D01*
X111488123Y-41842514D01*
X111430161Y-41850468D01*
X111367240Y-41868445D01*
X111244576Y-41918984D01*
X111072305Y-41996997D01*
X110860560Y-42097395D01*
X110619476Y-42215092D01*
X110359189Y-42344998D01*
X110089833Y-42482026D01*
X109821542Y-42621088D01*
X109564453Y-42757095D01*
X109328698Y-42884960D01*
X109124414Y-42999595D01*
X109021562Y-43059673D01*
X107883979Y-43782385D01*
X106802879Y-44560851D01*
X105778123Y-45395194D01*
X104809571Y-46285541D01*
X103897087Y-47232015D01*
X103040530Y-48234742D01*
X102485705Y-48954531D01*
X102405918Y-49065055D01*
X102287408Y-49232753D01*
X102136058Y-49449138D01*
X101957750Y-49705728D01*
X101758366Y-49994039D01*
X101543791Y-50305586D01*
X101319904Y-50631885D01*
X101123562Y-50919062D01*
X100306955Y-52112918D01*
X99527414Y-53247143D01*
X98779678Y-54329252D01*
X98058483Y-55366759D01*
X97358567Y-56367180D01*
X96674668Y-57338029D01*
X96001523Y-58286822D01*
X95333870Y-59221073D01*
X94666445Y-60148298D01*
X94481288Y-60404374D01*
X93788829Y-61375560D01*
X93151122Y-62300864D01*
X92563937Y-63187519D01*
X92023040Y-64042757D01*
X91524199Y-64873811D01*
X91063183Y-65687914D01*
X90635760Y-66492299D01*
X90237697Y-67294199D01*
X89864763Y-68100846D01*
X89546648Y-68837968D01*
X89145889Y-69849020D01*
X88758436Y-70928664D01*
X88386769Y-72066858D01*
X88033374Y-73253560D01*
X87700731Y-74478727D01*
X87391324Y-75732319D01*
X87107634Y-77004292D01*
X86852145Y-78284606D01*
X86627340Y-79563217D01*
X86435700Y-80830085D01*
X86284315Y-82034062D01*
X86210362Y-82718192D01*
X86148810Y-83351574D01*
X86098478Y-83953281D01*
X86058182Y-84542382D01*
X86026742Y-85137950D01*
X86002974Y-85759056D01*
X85985696Y-86424771D01*
X85975578Y-87014843D01*
X85968789Y-87671766D01*
X85967918Y-88284523D01*
X85129774Y-88284523D01*
X85129787Y-88197057D01*
X85130129Y-87608797D01*
X85130779Y-87091151D01*
X85131799Y-86639741D01*
X85133255Y-86250186D01*
X85135210Y-85918105D01*
X85137727Y-85639119D01*
X85140873Y-85408849D01*
X85144709Y-85222913D01*
X85149301Y-85076933D01*
X85154713Y-84966527D01*
X85161009Y-84887317D01*
X85168252Y-84834921D01*
X85176507Y-84804961D01*
X85185838Y-84793056D01*
X85189218Y-84792343D01*
X85216403Y-84779567D01*
X85234088Y-84732698D01*
X85244103Y-84638922D01*
X85248278Y-84485425D01*
X85248749Y-84375624D01*
X85251589Y-84204561D01*
X85259267Y-84067528D01*
X85270526Y-83980919D01*
X85280774Y-83958906D01*
X85291371Y-83921028D01*
X85304315Y-83814508D01*
X85318751Y-83650012D01*
X85333822Y-83438207D01*
X85348673Y-83189761D01*
X85359589Y-82976640D01*
X85423982Y-81937023D01*
X85518748Y-80900542D01*
X85645478Y-79858283D01*
X85805767Y-78801331D01*
X86001206Y-77720771D01*
X86233389Y-76607689D01*
X86503907Y-75453169D01*
X86814354Y-74248297D01*
X87109152Y-73183749D01*
X87399253Y-72187098D01*
X87681532Y-71261725D01*
X87958703Y-70400239D01*
X88233484Y-69595245D01*
X88508592Y-68839351D01*
X88786742Y-68125163D01*
X89070650Y-67445288D01*
X89363034Y-66792333D01*
X89666610Y-66158905D01*
X89755787Y-65980468D01*
X89937723Y-65624500D01*
X90116770Y-65285075D01*
X90297015Y-64955913D01*
X90482544Y-64630737D01*
X90677442Y-64303265D01*
X90885796Y-63967220D01*
X91111691Y-63616322D01*
X91359213Y-63244292D01*
X91632449Y-62844850D01*
X91935485Y-62411718D01*
X92272406Y-61938616D01*
X92647298Y-61419264D01*
X93064248Y-60847385D01*
X93345509Y-60463906D01*
X93852057Y-59769333D01*
X94394007Y-59016548D01*
X94964965Y-58214818D01*
X95558538Y-57373411D01*
X96168332Y-56501595D01*
X96787954Y-55608637D01*
X97411010Y-54703805D01*
X98031107Y-53796367D01*
X98641851Y-52895591D01*
X99236849Y-52010744D01*
X99809708Y-51151094D01*
X100354033Y-50325909D01*
X100621126Y-49917434D01*
X101127833Y-49163335D01*
X101628660Y-48468022D01*
X102138254Y-47813605D01*
X102671262Y-47182195D01*
X103242334Y-46555904D01*
X103866115Y-45916843D01*
X104027004Y-45757901D01*
X104827299Y-45001565D01*
X105643861Y-44286428D01*
X106471436Y-43615890D01*
X107304770Y-42993349D01*
X108138608Y-42422207D01*
X108967696Y-41905863D01*
X109786779Y-41447717D01*
X110590602Y-41051169D01*
X111373912Y-40719618D01*
X112131453Y-40456465D01*
X112295952Y-40407564D01*
X112692295Y-40300040D01*
X113167045Y-40182995D01*
X113719814Y-40056508D01*
X114350216Y-39920657D01*
X115057864Y-39775519D01*
X115842371Y-39621174D01*
X116703351Y-39457699D01*
X117640418Y-39285172D01*
X118653184Y-39103671D01*
X119379999Y-38976020D01*
X119760618Y-38909283D01*
X120183361Y-38834485D01*
X120623522Y-38756044D01*
X121056397Y-38678374D01*
X121457279Y-38605891D01*
X121761249Y-38550404D01*
X122892343Y-38342691D01*
X124603934Y-38327866D01*
X125028732Y-38324476D01*
X125384333Y-38322522D01*
X125680908Y-38322302D01*
X125928626Y-38324114D01*
G37*
%TD*%
M02*
