%TF.GenerationSoftware,KiCad,Pcbnew,9.0.4*%
%TF.CreationDate,2025-09-26T18:44:48-06:00*%
%TF.ProjectId,crommeter,63726f6d-6d65-4746-9572-2e6b69636164,rev?*%
%TF.SameCoordinates,Original*%
%TF.FileFunction,Soldermask,Bot*%
%TF.FilePolarity,Negative*%
%FSLAX46Y46*%
G04 Gerber Fmt 4.6, Leading zero omitted, Abs format (unit mm)*
G04 Created by KiCad (PCBNEW 9.0.4) date 2025-09-26 18:44:48*
%MOMM*%
%LPD*%
G01*
G04 APERTURE LIST*
G04 Aperture macros list*
%AMRoundRect*
0 Rectangle with rounded corners*
0 $1 Rounding radius*
0 $2 $3 $4 $5 $6 $7 $8 $9 X,Y pos of 4 corners*
0 Add a 4 corners polygon primitive as box body*
4,1,4,$2,$3,$4,$5,$6,$7,$8,$9,$2,$3,0*
0 Add four circle primitives for the rounded corners*
1,1,$1+$1,$2,$3*
1,1,$1+$1,$4,$5*
1,1,$1+$1,$6,$7*
1,1,$1+$1,$8,$9*
0 Add four rect primitives between the rounded corners*
20,1,$1+$1,$2,$3,$4,$5,0*
20,1,$1+$1,$4,$5,$6,$7,0*
20,1,$1+$1,$6,$7,$8,$9,0*
20,1,$1+$1,$8,$9,$2,$3,0*%
%AMHorizOval*
0 Thick line with rounded ends*
0 $1 width*
0 $2 $3 position (X,Y) of the first rounded end (center of the circle)*
0 $4 $5 position (X,Y) of the second rounded end (center of the circle)*
0 Add line between two ends*
20,1,$1,$2,$3,$4,$5,0*
0 Add two circle primitives to create the rounded ends*
1,1,$1,$2,$3*
1,1,$1,$4,$5*%
%AMFreePoly0*
4,1,64,0.031751,0.146088,0.079639,0.146088,0.235856,0.115014,0.383010,0.054061,0.515445,-0.034429,0.628071,-0.147055,0.716561,-0.279490,0.777514,-0.426644,0.808588,-0.582861,0.808588,-0.742139,0.777514,-0.898356,0.716561,-1.045510,0.628071,-1.177945,0.515445,-1.290571,0.383010,-1.379061,0.235856,-1.440014,0.079639,-1.471088,-0.079639,-1.471088,-0.235856,-1.440014,-0.383010,-1.379061,
-0.515445,-1.290571,-0.628071,-1.177945,-0.716561,-1.045510,-0.777514,-0.898356,-0.808588,-0.742139,-0.808588,-0.595028,-0.512500,-0.595028,-0.512500,-0.729972,-0.477574,-0.860317,-0.410102,-0.977182,-0.314682,-1.072602,-0.197817,-1.140074,-0.067472,-1.175000,0.067472,-1.175000,0.197817,-1.140074,0.314682,-1.072602,0.410102,-0.977182,0.477574,-0.860317,0.512500,-0.729972,0.512500,-0.595028,
0.477574,-0.464683,0.410102,-0.347818,0.314682,-0.252398,0.197817,-0.184926,0.067472,-0.150000,-0.067472,-0.150000,-0.197817,-0.184926,-0.314682,-0.252398,-0.410102,-0.347818,-0.477574,-0.464683,-0.512500,-0.595028,-0.808588,-0.595028,-0.808588,-0.582861,-0.777514,-0.426644,-0.716561,-0.279490,-0.628071,-0.147055,-0.515445,-0.034429,-0.383010,0.054061,-0.235856,0.115014,-0.079639,0.146088,
-0.031751,0.146088,-0.029264,0.147118,0.029264,0.147118,0.031751,0.146088,0.031751,0.146088,$1*%
G04 Aperture macros list end*
%ADD10C,0.000000*%
%ADD11C,0.010000*%
%ADD12C,4.300000*%
%ADD13R,1.727200X1.727200*%
%ADD14C,1.727200*%
%ADD15O,1.727200X1.727200*%
%ADD16RoundRect,0.237500X0.237500X-0.250000X0.237500X0.250000X-0.237500X0.250000X-0.237500X-0.250000X0*%
%ADD17RoundRect,0.237500X-0.237500X0.250000X-0.237500X-0.250000X0.237500X-0.250000X0.237500X0.250000X0*%
%ADD18R,1.549400X0.609600*%
%ADD19R,1.803400X1.193800*%
%ADD20RoundRect,0.237500X0.250000X0.237500X-0.250000X0.237500X-0.250000X-0.237500X0.250000X-0.237500X0*%
%ADD21C,0.500000*%
%ADD22R,0.600000X0.522000*%
%ADD23FreePoly0,90.000000*%
%ADD24RoundRect,0.102000X-1.765544X-0.441987X-1.265544X-1.308013X1.765544X0.441987X1.265544X1.308013X0*%
%ADD25RoundRect,0.102000X-1.847243X-0.200481X-1.097243X-1.499519X1.847243X0.200481X1.097243X1.499519X0*%
%ADD26R,1.397000X2.108200*%
%ADD27RoundRect,0.237500X-0.250000X-0.237500X0.250000X-0.237500X0.250000X0.237500X-0.250000X0.237500X0*%
%ADD28RoundRect,0.237500X0.300000X0.237500X-0.300000X0.237500X-0.300000X-0.237500X0.300000X-0.237500X0*%
%ADD29RoundRect,0.050400X0.701600X0.201600X-0.701600X0.201600X-0.701600X-0.201600X0.701600X-0.201600X0*%
%ADD30RoundRect,0.102000X-1.015000X0.635000X-1.015000X-0.635000X1.015000X-0.635000X1.015000X0.635000X0*%
%ADD31RoundRect,0.102000X0.688633X0.146319X0.497770X0.497846X-0.688633X-0.146319X-0.497770X-0.497846X0*%
%ADD32RoundRect,0.102000X1.038952X-0.289315X0.323214X1.028911X-1.038952X0.289315X-0.323214X-1.028911X0*%
%ADD33HorizOval,1.154000X-0.083503X0.153793X0.083503X-0.153793X0*%
%ADD34RoundRect,0.050400X-0.201600X0.701600X-0.201600X-0.701600X0.201600X-0.701600X0.201600X0.701600X0*%
%ADD35R,1.500000X2.800000*%
%ADD36R,2.800000X1.500000*%
%ADD37R,2.000000X2.800000*%
G04 APERTURE END LIST*
D10*
%TO.C,G\u002A\u002A\u002A*%
G36*
X154710498Y-66019884D02*
G01*
X155546638Y-66131434D01*
X156353308Y-66315478D01*
X157129057Y-66571520D01*
X157872430Y-66899067D01*
X158581975Y-67297623D01*
X159256239Y-67766694D01*
X159893769Y-68305786D01*
X160012431Y-68417821D01*
X160636147Y-69067103D01*
X161191759Y-69751965D01*
X161681195Y-70475812D01*
X162106385Y-71242049D01*
X162469258Y-72054081D01*
X162771741Y-72915313D01*
X162971093Y-73640156D01*
X163070545Y-74074085D01*
X163159458Y-74520251D01*
X163238836Y-74987084D01*
X163309684Y-75483017D01*
X163373007Y-76016480D01*
X163429810Y-76595904D01*
X163481097Y-77229721D01*
X163527873Y-77926362D01*
X163569391Y-78660624D01*
X163585661Y-78980522D01*
X163597022Y-79234499D01*
X163603314Y-79435864D01*
X163604373Y-79597930D01*
X163600037Y-79734007D01*
X163590142Y-79857406D01*
X163574527Y-79981439D01*
X163553028Y-80119417D01*
X163551443Y-80129062D01*
X163521131Y-80313612D01*
X163481752Y-80553944D01*
X163437000Y-80827499D01*
X163390565Y-81111715D01*
X163353393Y-81339531D01*
X163211306Y-82143218D01*
X163057783Y-82875233D01*
X162890093Y-83542803D01*
X162705506Y-84153150D01*
X162501292Y-84713500D01*
X162274720Y-85231079D01*
X162023061Y-85713109D01*
X161743585Y-86166817D01*
X161433560Y-86599427D01*
X161303252Y-86764640D01*
X160814025Y-87307820D01*
X160268790Y-87796836D01*
X159666895Y-88232055D01*
X159007691Y-88613842D01*
X158290527Y-88942564D01*
X157514751Y-89218587D01*
X156679714Y-89442275D01*
X156455971Y-89491247D01*
X156046149Y-89570507D01*
X155621106Y-89639104D01*
X155171242Y-89697950D01*
X154686958Y-89747955D01*
X154158655Y-89790031D01*
X153576735Y-89825088D01*
X152931599Y-89854037D01*
X152459530Y-89870459D01*
X151947235Y-89886315D01*
X151506922Y-89899404D01*
X151131249Y-89909827D01*
X150812874Y-89917686D01*
X150544456Y-89923080D01*
X150318654Y-89926111D01*
X150128126Y-89926880D01*
X149965530Y-89925488D01*
X149823525Y-89922036D01*
X149694770Y-89916625D01*
X149582187Y-89910035D01*
X148883122Y-89825054D01*
X148203204Y-89663794D01*
X147544525Y-89427496D01*
X146909174Y-89117400D01*
X146299242Y-88734747D01*
X145716819Y-88280780D01*
X145163995Y-87756738D01*
X144642862Y-87163862D01*
X144379638Y-86821355D01*
X143693545Y-85828720D01*
X143078379Y-84817722D01*
X142535498Y-83791426D01*
X142066265Y-82752897D01*
X141672039Y-81705201D01*
X141354182Y-80651403D01*
X141114054Y-79594567D01*
X141074060Y-79374999D01*
X141011396Y-78996991D01*
X140962394Y-78653123D01*
X140925580Y-78324574D01*
X140899484Y-77992525D01*
X140882633Y-77638154D01*
X140873556Y-77242641D01*
X140870782Y-76787165D01*
X140870780Y-76775468D01*
X140871352Y-76440359D01*
X140873580Y-76171547D01*
X140878240Y-75955962D01*
X140886102Y-75780531D01*
X140897940Y-75632182D01*
X140914526Y-75497844D01*
X140936633Y-75364444D01*
X140961864Y-75234501D01*
X141092840Y-74691929D01*
X141262945Y-74175239D01*
X141477852Y-73673305D01*
X141743233Y-73175004D01*
X142064759Y-72669212D01*
X142448102Y-72144804D01*
X142695562Y-71834374D01*
X143462879Y-70942994D01*
X144242129Y-70129207D01*
X145035369Y-69391846D01*
X145844655Y-68729746D01*
X146672040Y-68141741D01*
X147519583Y-67626666D01*
X148389337Y-67183354D01*
X149283359Y-66810641D01*
X150203704Y-66507361D01*
X151152429Y-66272347D01*
X152131587Y-66104435D01*
X152955624Y-66016240D01*
X153846343Y-65981321D01*
X154710498Y-66019884D01*
G37*
G36*
X119383178Y-65417989D02*
G01*
X119644106Y-65429427D01*
X119921150Y-65446867D01*
X120198635Y-65469482D01*
X120460882Y-65496446D01*
X120669843Y-65523591D01*
X121151827Y-65604661D01*
X121645848Y-65708838D01*
X122164027Y-65839345D01*
X122718484Y-65999407D01*
X123321337Y-66192249D01*
X123805155Y-66357749D01*
X124078621Y-66453409D01*
X124401886Y-66566336D01*
X124749772Y-66687744D01*
X125097101Y-66808848D01*
X125418694Y-66920861D01*
X125472030Y-66939423D01*
X125756253Y-67039870D01*
X126042441Y-67143777D01*
X126313173Y-67244618D01*
X126551030Y-67335868D01*
X126738591Y-67410999D01*
X126799294Y-67436661D01*
X127490125Y-67769880D01*
X128161150Y-68163092D01*
X128814994Y-68618745D01*
X129454283Y-69139284D01*
X130081641Y-69727158D01*
X130699695Y-70384812D01*
X131311069Y-71114694D01*
X131918390Y-71919250D01*
X132474965Y-72726235D01*
X132735518Y-73131842D01*
X132950087Y-73496144D01*
X133126549Y-73836141D01*
X133272787Y-74168827D01*
X133396679Y-74511199D01*
X133506106Y-74880255D01*
X133547942Y-75040541D01*
X133641397Y-75459842D01*
X133709576Y-75884685D01*
X133753965Y-76331607D01*
X133776053Y-76817148D01*
X133777324Y-77357849D01*
X133773475Y-77549374D01*
X133709372Y-78729383D01*
X133576918Y-79870197D01*
X133376370Y-80971320D01*
X133107990Y-82032254D01*
X132772036Y-83052502D01*
X132368768Y-84031566D01*
X131898445Y-84968950D01*
X131361326Y-85864156D01*
X130757672Y-86716686D01*
X130087741Y-87526044D01*
X129351794Y-88291731D01*
X128550089Y-89013252D01*
X127682886Y-89690108D01*
X127297655Y-89962001D01*
X126802922Y-90274957D01*
X126320101Y-90523775D01*
X125829678Y-90715717D01*
X125312141Y-90858047D01*
X124747979Y-90958026D01*
X124557610Y-90981896D01*
X124408618Y-90993484D01*
X124193697Y-91002699D01*
X123926259Y-91009551D01*
X123619714Y-91014054D01*
X123287472Y-91016219D01*
X122942945Y-91016059D01*
X122599544Y-91013585D01*
X122270678Y-91008810D01*
X121969759Y-91001745D01*
X121710197Y-90992404D01*
X121505404Y-90980797D01*
X121483437Y-90979118D01*
X120803757Y-90911666D01*
X120055433Y-90812113D01*
X119242134Y-90681088D01*
X118367528Y-90519217D01*
X117435284Y-90327131D01*
X116641562Y-90150081D01*
X115773817Y-89916212D01*
X114962598Y-89626748D01*
X114207078Y-89280970D01*
X113506435Y-88878160D01*
X112859842Y-88417601D01*
X112266476Y-87898573D01*
X111725513Y-87320359D01*
X111236127Y-86682239D01*
X110797495Y-85983497D01*
X110408792Y-85223413D01*
X110081770Y-84435156D01*
X109908945Y-83926909D01*
X109743599Y-83353293D01*
X109588695Y-82728185D01*
X109447195Y-82065464D01*
X109322063Y-81379007D01*
X109216261Y-80682691D01*
X109132753Y-79990393D01*
X109132728Y-79990156D01*
X109116939Y-79787215D01*
X109104005Y-79517778D01*
X109093924Y-79194672D01*
X109086692Y-78830725D01*
X109082308Y-78438764D01*
X109080769Y-78031617D01*
X109082072Y-77622110D01*
X109086214Y-77223071D01*
X109093195Y-76847329D01*
X109103010Y-76507709D01*
X109115657Y-76217039D01*
X109131134Y-75988147D01*
X109133516Y-75961874D01*
X109178008Y-75526117D01*
X109229522Y-75082206D01*
X109285427Y-74650074D01*
X109343093Y-74249650D01*
X109399888Y-73900864D01*
X109420975Y-73784512D01*
X109605263Y-73014717D01*
X109864152Y-72260688D01*
X110193281Y-71530131D01*
X110588287Y-70830756D01*
X111044805Y-70170270D01*
X111558474Y-69556381D01*
X112124931Y-68996798D01*
X112137030Y-68985980D01*
X112548838Y-68638853D01*
X113024906Y-68273284D01*
X113554330Y-67896347D01*
X114126207Y-67515117D01*
X114729636Y-67136666D01*
X115353713Y-66768068D01*
X115987535Y-66416399D01*
X116542343Y-66127737D01*
X116904705Y-65953603D01*
X117230934Y-65817226D01*
X117548697Y-65709140D01*
X117885660Y-65619880D01*
X118248905Y-65543871D01*
X118445537Y-65506440D01*
X118631387Y-65470890D01*
X118781719Y-65441962D01*
X118853877Y-65427936D01*
X118972387Y-65416417D01*
X119154046Y-65413377D01*
X119383178Y-65417989D01*
G37*
D11*
%TO.C,D1*%
X120262000Y-64866000D02*
X119862000Y-64866000D01*
X119862000Y-64566000D01*
X119262000Y-64566000D01*
X119262000Y-64166000D01*
X120262000Y-64166000D01*
X120262000Y-64866000D01*
G36*
X120262000Y-64866000D02*
G01*
X119862000Y-64866000D01*
X119862000Y-64566000D01*
X119262000Y-64566000D01*
X119262000Y-64166000D01*
X120262000Y-64166000D01*
X120262000Y-64866000D01*
G37*
X123562000Y-64566000D02*
X122962000Y-64566000D01*
X122962000Y-64866000D01*
X122562000Y-64866000D01*
X122562000Y-64166000D01*
X123562000Y-64166000D01*
X123562000Y-64566000D01*
G36*
X123562000Y-64566000D02*
G01*
X122962000Y-64566000D01*
X122962000Y-64866000D01*
X122562000Y-64866000D01*
X122562000Y-64166000D01*
X123562000Y-64166000D01*
X123562000Y-64566000D01*
G37*
%TO.C,D6*%
X165450000Y-77082000D02*
X164750000Y-77082000D01*
X164750000Y-76682000D01*
X165050000Y-76682000D01*
X165050000Y-76082000D01*
X165450000Y-76082000D01*
X165450000Y-77082000D01*
G36*
X165450000Y-77082000D02*
G01*
X164750000Y-77082000D01*
X164750000Y-76682000D01*
X165050000Y-76682000D01*
X165050000Y-76082000D01*
X165450000Y-76082000D01*
X165450000Y-77082000D01*
G37*
X165450000Y-80382000D02*
X165050000Y-80382000D01*
X165050000Y-79782000D01*
X164750000Y-79782000D01*
X164750000Y-79382000D01*
X165450000Y-79382000D01*
X165450000Y-80382000D01*
G36*
X165450000Y-80382000D02*
G01*
X165050000Y-80382000D01*
X165050000Y-79782000D01*
X164750000Y-79782000D01*
X164750000Y-79382000D01*
X165450000Y-79382000D01*
X165450000Y-80382000D01*
G37*
%TO.C,D5*%
X151250000Y-65120000D02*
X150850000Y-65120000D01*
X150850000Y-64820000D01*
X150250000Y-64820000D01*
X150250000Y-64420000D01*
X151250000Y-64420000D01*
X151250000Y-65120000D01*
G36*
X151250000Y-65120000D02*
G01*
X150850000Y-65120000D01*
X150850000Y-64820000D01*
X150250000Y-64820000D01*
X150250000Y-64420000D01*
X151250000Y-64420000D01*
X151250000Y-65120000D01*
G37*
X154550000Y-64820000D02*
X153950000Y-64820000D01*
X153950000Y-65120000D01*
X153550000Y-65120000D01*
X153550000Y-64420000D01*
X154550000Y-64420000D01*
X154550000Y-64820000D01*
G36*
X154550000Y-64820000D02*
G01*
X153950000Y-64820000D01*
X153950000Y-65120000D01*
X153550000Y-65120000D01*
X153550000Y-64420000D01*
X154550000Y-64420000D01*
X154550000Y-64820000D01*
G37*
%TO.C,J1*%
X106595224Y-137213180D02*
X106626664Y-137216593D01*
X106657700Y-137221362D01*
X106687455Y-137227962D01*
X106718165Y-137236322D01*
X106748474Y-137246037D01*
X106777027Y-137256708D01*
X106805652Y-137269612D01*
X106833878Y-137283873D01*
X106861699Y-137299489D01*
X106888244Y-137316938D01*
X106913029Y-137335340D01*
X106937411Y-137355102D01*
X106961393Y-137376218D01*
X106983618Y-137398288D01*
X107004083Y-137421311D01*
X107024149Y-137445692D01*
X107042456Y-137471027D01*
X107059482Y-137498195D01*
X107075153Y-137524960D01*
X107669216Y-138619089D01*
X106131286Y-139454116D01*
X105537222Y-138359989D01*
X105523310Y-138332268D01*
X105509799Y-138303193D01*
X105498522Y-138274039D01*
X105489002Y-138243933D01*
X105480840Y-138214229D01*
X105474435Y-138183569D01*
X105469787Y-138151957D01*
X105466496Y-138120745D01*
X105464560Y-138089936D01*
X105464382Y-138058171D01*
X105466437Y-138026332D01*
X105469851Y-137994893D01*
X105474619Y-137963857D01*
X105481221Y-137934100D01*
X105489579Y-137903391D01*
X105499294Y-137873081D01*
X105509965Y-137844532D01*
X105522869Y-137815903D01*
X105537130Y-137787680D01*
X105552745Y-137759856D01*
X105570195Y-137733313D01*
X105588599Y-137708529D01*
X105608360Y-137684145D01*
X105629474Y-137660163D01*
X105651544Y-137637940D01*
X105674569Y-137617474D01*
X105698948Y-137597408D01*
X105724282Y-137579102D01*
X105751451Y-137562074D01*
X105778217Y-137546404D01*
X106261567Y-137283965D01*
X106289288Y-137270054D01*
X106318365Y-137256541D01*
X106347517Y-137245266D01*
X106377622Y-137235746D01*
X106407328Y-137227582D01*
X106437987Y-137221178D01*
X106469598Y-137216531D01*
X106500811Y-137213239D01*
X106531621Y-137211302D01*
X106563386Y-137211123D01*
X106595224Y-137213180D01*
G36*
X106595224Y-137213180D02*
G01*
X106626664Y-137216593D01*
X106657700Y-137221362D01*
X106687455Y-137227962D01*
X106718165Y-137236322D01*
X106748474Y-137246037D01*
X106777027Y-137256708D01*
X106805652Y-137269612D01*
X106833878Y-137283873D01*
X106861699Y-137299489D01*
X106888244Y-137316938D01*
X106913029Y-137335340D01*
X106937411Y-137355102D01*
X106961393Y-137376218D01*
X106983618Y-137398288D01*
X107004083Y-137421311D01*
X107024149Y-137445692D01*
X107042456Y-137471027D01*
X107059482Y-137498195D01*
X107075153Y-137524960D01*
X107669216Y-138619089D01*
X106131286Y-139454116D01*
X105537222Y-138359989D01*
X105523310Y-138332268D01*
X105509799Y-138303193D01*
X105498522Y-138274039D01*
X105489002Y-138243933D01*
X105480840Y-138214229D01*
X105474435Y-138183569D01*
X105469787Y-138151957D01*
X105466496Y-138120745D01*
X105464560Y-138089936D01*
X105464382Y-138058171D01*
X105466437Y-138026332D01*
X105469851Y-137994893D01*
X105474619Y-137963857D01*
X105481221Y-137934100D01*
X105489579Y-137903391D01*
X105499294Y-137873081D01*
X105509965Y-137844532D01*
X105522869Y-137815903D01*
X105537130Y-137787680D01*
X105552745Y-137759856D01*
X105570195Y-137733313D01*
X105588599Y-137708529D01*
X105608360Y-137684145D01*
X105629474Y-137660163D01*
X105651544Y-137637940D01*
X105674569Y-137617474D01*
X105698948Y-137597408D01*
X105724282Y-137579102D01*
X105751451Y-137562074D01*
X105778217Y-137546404D01*
X106261567Y-137283965D01*
X106289288Y-137270054D01*
X106318365Y-137256541D01*
X106347517Y-137245266D01*
X106377622Y-137235746D01*
X106407328Y-137227582D01*
X106437987Y-137221178D01*
X106469598Y-137216531D01*
X106500811Y-137213239D01*
X106531621Y-137211302D01*
X106563386Y-137211123D01*
X106595224Y-137213180D01*
G37*
X110362778Y-143580011D02*
X110376690Y-143607732D01*
X110390201Y-143636807D01*
X110401478Y-143665961D01*
X110410998Y-143696067D01*
X110419160Y-143725771D01*
X110425565Y-143756431D01*
X110430213Y-143788043D01*
X110433504Y-143819255D01*
X110435440Y-143850064D01*
X110435618Y-143881829D01*
X110433563Y-143913668D01*
X110430149Y-143945107D01*
X110425381Y-143976143D01*
X110418779Y-144005900D01*
X110410421Y-144036609D01*
X110400706Y-144066919D01*
X110390035Y-144095468D01*
X110377131Y-144124097D01*
X110362870Y-144152320D01*
X110347255Y-144180144D01*
X110329805Y-144206687D01*
X110311401Y-144231471D01*
X110291640Y-144255855D01*
X110270526Y-144279837D01*
X110248456Y-144302060D01*
X110225431Y-144322526D01*
X110201052Y-144342592D01*
X110175718Y-144360898D01*
X110148549Y-144377926D01*
X110121783Y-144393596D01*
X109638433Y-144656035D01*
X109610712Y-144669946D01*
X109581635Y-144683459D01*
X109552483Y-144694734D01*
X109522378Y-144704254D01*
X109492672Y-144712418D01*
X109462013Y-144718822D01*
X109430402Y-144723469D01*
X109399189Y-144726761D01*
X109368379Y-144728698D01*
X109336614Y-144728877D01*
X109304776Y-144726820D01*
X109273336Y-144723407D01*
X109242300Y-144718638D01*
X109212545Y-144712038D01*
X109181835Y-144703678D01*
X109151526Y-144693963D01*
X109122973Y-144683292D01*
X109094348Y-144670388D01*
X109066122Y-144656127D01*
X109038301Y-144640511D01*
X109011756Y-144623062D01*
X108986971Y-144604660D01*
X108962589Y-144584898D01*
X108938607Y-144563782D01*
X108916382Y-144541712D01*
X108895917Y-144518689D01*
X108875851Y-144494308D01*
X108857544Y-144468973D01*
X108840518Y-144441805D01*
X108824847Y-144415040D01*
X108230784Y-143320911D01*
X109768714Y-142485884D01*
X110362778Y-143580011D01*
G36*
X110362778Y-143580011D02*
G01*
X110376690Y-143607732D01*
X110390201Y-143636807D01*
X110401478Y-143665961D01*
X110410998Y-143696067D01*
X110419160Y-143725771D01*
X110425565Y-143756431D01*
X110430213Y-143788043D01*
X110433504Y-143819255D01*
X110435440Y-143850064D01*
X110435618Y-143881829D01*
X110433563Y-143913668D01*
X110430149Y-143945107D01*
X110425381Y-143976143D01*
X110418779Y-144005900D01*
X110410421Y-144036609D01*
X110400706Y-144066919D01*
X110390035Y-144095468D01*
X110377131Y-144124097D01*
X110362870Y-144152320D01*
X110347255Y-144180144D01*
X110329805Y-144206687D01*
X110311401Y-144231471D01*
X110291640Y-144255855D01*
X110270526Y-144279837D01*
X110248456Y-144302060D01*
X110225431Y-144322526D01*
X110201052Y-144342592D01*
X110175718Y-144360898D01*
X110148549Y-144377926D01*
X110121783Y-144393596D01*
X109638433Y-144656035D01*
X109610712Y-144669946D01*
X109581635Y-144683459D01*
X109552483Y-144694734D01*
X109522378Y-144704254D01*
X109492672Y-144712418D01*
X109462013Y-144718822D01*
X109430402Y-144723469D01*
X109399189Y-144726761D01*
X109368379Y-144728698D01*
X109336614Y-144728877D01*
X109304776Y-144726820D01*
X109273336Y-144723407D01*
X109242300Y-144718638D01*
X109212545Y-144712038D01*
X109181835Y-144703678D01*
X109151526Y-144693963D01*
X109122973Y-144683292D01*
X109094348Y-144670388D01*
X109066122Y-144656127D01*
X109038301Y-144640511D01*
X109011756Y-144623062D01*
X108986971Y-144604660D01*
X108962589Y-144584898D01*
X108938607Y-144563782D01*
X108916382Y-144541712D01*
X108895917Y-144518689D01*
X108875851Y-144494308D01*
X108857544Y-144468973D01*
X108840518Y-144441805D01*
X108824847Y-144415040D01*
X108230784Y-143320911D01*
X109768714Y-142485884D01*
X110362778Y-143580011D01*
G37*
%TO.C,D2*%
X135224000Y-77082000D02*
X134524000Y-77082000D01*
X134524000Y-76682000D01*
X134824000Y-76682000D01*
X134824000Y-76082000D01*
X135224000Y-76082000D01*
X135224000Y-77082000D01*
G36*
X135224000Y-77082000D02*
G01*
X134524000Y-77082000D01*
X134524000Y-76682000D01*
X134824000Y-76682000D01*
X134824000Y-76082000D01*
X135224000Y-76082000D01*
X135224000Y-77082000D01*
G37*
X135224000Y-80382000D02*
X134824000Y-80382000D01*
X134824000Y-79782000D01*
X134524000Y-79782000D01*
X134524000Y-79382000D01*
X135224000Y-79382000D01*
X135224000Y-80382000D01*
G36*
X135224000Y-80382000D02*
G01*
X134824000Y-80382000D01*
X134824000Y-79782000D01*
X134524000Y-79782000D01*
X134524000Y-79382000D01*
X135224000Y-79382000D01*
X135224000Y-80382000D01*
G37*
%TO.C,D8*%
X139496000Y-76682000D02*
X139796000Y-76682000D01*
X139796000Y-77082000D01*
X139096000Y-77082000D01*
X139096000Y-76082000D01*
X139496000Y-76082000D01*
X139496000Y-76682000D01*
G36*
X139496000Y-76682000D02*
G01*
X139796000Y-76682000D01*
X139796000Y-77082000D01*
X139096000Y-77082000D01*
X139096000Y-76082000D01*
X139496000Y-76082000D01*
X139496000Y-76682000D01*
G37*
X139796000Y-79782000D02*
X139496000Y-79782000D01*
X139496000Y-80382000D01*
X139096000Y-80382000D01*
X139096000Y-79382000D01*
X139796000Y-79382000D01*
X139796000Y-79782000D01*
G36*
X139796000Y-79782000D02*
G01*
X139496000Y-79782000D01*
X139496000Y-80382000D01*
X139096000Y-80382000D01*
X139096000Y-79382000D01*
X139796000Y-79382000D01*
X139796000Y-79782000D01*
G37*
%TO.C,D3*%
X120262000Y-92298000D02*
X119262000Y-92298000D01*
X119262000Y-91898000D01*
X119862000Y-91898000D01*
X119862000Y-91598000D01*
X120262000Y-91598000D01*
X120262000Y-92298000D01*
G36*
X120262000Y-92298000D02*
G01*
X119262000Y-92298000D01*
X119262000Y-91898000D01*
X119862000Y-91898000D01*
X119862000Y-91598000D01*
X120262000Y-91598000D01*
X120262000Y-92298000D01*
G37*
X122962000Y-91898000D02*
X123562000Y-91898000D01*
X123562000Y-92298000D01*
X122562000Y-92298000D01*
X122562000Y-91598000D01*
X122962000Y-91598000D01*
X122962000Y-91898000D01*
G36*
X122962000Y-91898000D02*
G01*
X123562000Y-91898000D01*
X123562000Y-92298000D01*
X122562000Y-92298000D01*
X122562000Y-91598000D01*
X122962000Y-91598000D01*
X122962000Y-91898000D01*
G37*
%TO.C,D7*%
X151250000Y-91536000D02*
X150250000Y-91536000D01*
X150250000Y-91136000D01*
X150850000Y-91136000D01*
X150850000Y-90836000D01*
X151250000Y-90836000D01*
X151250000Y-91536000D01*
G36*
X151250000Y-91536000D02*
G01*
X150250000Y-91536000D01*
X150250000Y-91136000D01*
X150850000Y-91136000D01*
X150850000Y-90836000D01*
X151250000Y-90836000D01*
X151250000Y-91536000D01*
G37*
X153950000Y-91136000D02*
X154550000Y-91136000D01*
X154550000Y-91536000D01*
X153550000Y-91536000D01*
X153550000Y-90836000D01*
X153950000Y-90836000D01*
X153950000Y-91136000D01*
G36*
X153950000Y-91136000D02*
G01*
X154550000Y-91136000D01*
X154550000Y-91536000D01*
X153550000Y-91536000D01*
X153550000Y-90836000D01*
X153950000Y-90836000D01*
X153950000Y-91136000D01*
G37*
%TO.C,D4*%
X108000000Y-76682000D02*
X108300000Y-76682000D01*
X108300000Y-77082000D01*
X107600000Y-77082000D01*
X107600000Y-76082000D01*
X108000000Y-76082000D01*
X108000000Y-76682000D01*
G36*
X108000000Y-76682000D02*
G01*
X108300000Y-76682000D01*
X108300000Y-77082000D01*
X107600000Y-77082000D01*
X107600000Y-76082000D01*
X108000000Y-76082000D01*
X108000000Y-76682000D01*
G37*
X108300000Y-79782000D02*
X108000000Y-79782000D01*
X108000000Y-80382000D01*
X107600000Y-80382000D01*
X107600000Y-79382000D01*
X108300000Y-79382000D01*
X108300000Y-79782000D01*
G36*
X108300000Y-79782000D02*
G01*
X108000000Y-79782000D01*
X108000000Y-80382000D01*
X107600000Y-80382000D01*
X107600000Y-79382000D01*
X108300000Y-79382000D01*
X108300000Y-79782000D01*
G37*
%TD*%
D12*
%TO.C,H1*%
X129540000Y-44450000D03*
%TD*%
D13*
%TO.C,X1*%
X134680000Y-156230000D03*
D14*
X134680000Y-158770000D03*
D15*
X137220000Y-156230000D03*
X137220000Y-158770000D03*
D14*
X139760000Y-156230000D03*
X139760000Y-158770000D03*
%TD*%
D16*
%TO.C,R27*%
X132080000Y-92352500D03*
X132080000Y-90527500D03*
%TD*%
%TO.C,R5*%
X141605000Y-119657500D03*
X141605000Y-117832500D03*
%TD*%
D17*
%TO.C,R30*%
X159385000Y-94337500D03*
X159385000Y-96162500D03*
%TD*%
D18*
%TO.C,J3*%
X162998500Y-93750000D03*
X162998500Y-94750001D03*
X162998500Y-95749999D03*
X162998500Y-96750000D03*
D19*
X166873501Y-92450001D03*
X166873501Y-98049999D03*
%TD*%
D20*
%TO.C,R17*%
X122324500Y-62230000D03*
X120499500Y-62230000D03*
%TD*%
D16*
%TO.C,R24*%
X165100000Y-83462500D03*
X165100000Y-81637500D03*
%TD*%
D21*
%TO.C,MK1*%
X91694000Y-89356000D03*
D22*
X92594000Y-87282000D03*
X92594000Y-88104000D03*
D23*
X91031500Y-89356000D03*
D22*
X90794000Y-88104000D03*
X90794000Y-87282000D03*
X91694000Y-87282000D03*
%TD*%
D24*
%TO.C,P1*%
X106422324Y-120973527D03*
X105422322Y-119241475D03*
D25*
X102617677Y-125883686D03*
X99267677Y-120081316D03*
%TD*%
D17*
%TO.C,R22*%
X141605000Y-90527500D03*
X141605000Y-92352500D03*
%TD*%
D26*
%TO.C,SW1*%
X121920000Y-152400000D03*
X121920000Y-143306800D03*
X117424200Y-152400000D03*
X117424200Y-143306800D03*
%TD*%
D20*
%TO.C,R23*%
X153312500Y-62230000D03*
X151487500Y-62230000D03*
%TD*%
D27*
%TO.C,R2*%
X93702500Y-85090000D03*
X95527500Y-85090000D03*
%TD*%
D20*
%TO.C,R13*%
X158392500Y-116840000D03*
X156567500Y-116840000D03*
%TD*%
D27*
%TO.C,R25*%
X151487500Y-93980000D03*
X153312500Y-93980000D03*
%TD*%
D20*
%TO.C,R16*%
X154582500Y-105410000D03*
X152757500Y-105410000D03*
%TD*%
%TO.C,R15*%
X158392500Y-105410000D03*
X156567500Y-105410000D03*
%TD*%
D27*
%TO.C,R1*%
X93702500Y-83185000D03*
X95527500Y-83185000D03*
%TD*%
D28*
%TO.C,C2*%
X91667500Y-83185000D03*
X89942500Y-83185000D03*
%TD*%
D16*
%TO.C,R4*%
X143510000Y-119657500D03*
X143510000Y-117832500D03*
%TD*%
D29*
%TO.C,Q3*%
X137165000Y-90790000D03*
X137165000Y-91440000D03*
X137165000Y-92090000D03*
X134615000Y-92090000D03*
X134615000Y-91440000D03*
X134615000Y-90790000D03*
%TD*%
D30*
%TO.C,J2*%
X116395000Y-123190000D03*
X119825000Y-125730000D03*
X116395000Y-128270000D03*
%TD*%
D31*
%TO.C,J1*%
X110921142Y-140836062D03*
X110610989Y-140264832D03*
X110300834Y-139693600D03*
X109990683Y-139122370D03*
X109680529Y-138551138D03*
D32*
X107472842Y-140091184D03*
X108427158Y-141848816D03*
D33*
X111515704Y-141878715D03*
X109129909Y-137484629D03*
%TD*%
D16*
%TO.C,R21*%
X139700000Y-92352500D03*
X139700000Y-90527500D03*
%TD*%
%TO.C,R3*%
X145415000Y-119657500D03*
X145415000Y-117832500D03*
%TD*%
D17*
%TO.C,R28*%
X130175000Y-90527500D03*
X130175000Y-92352500D03*
%TD*%
D20*
%TO.C,R12*%
X154582500Y-109220000D03*
X152757500Y-109220000D03*
%TD*%
D27*
%TO.C,R19*%
X120095000Y-93980000D03*
X121920000Y-93980000D03*
%TD*%
D20*
%TO.C,R11*%
X158392500Y-109220000D03*
X156567500Y-109220000D03*
%TD*%
D16*
%TO.C,R6*%
X139700000Y-119657500D03*
X139700000Y-117832500D03*
%TD*%
%TO.C,R10*%
X132080000Y-119657500D03*
X132080000Y-117832500D03*
%TD*%
%TO.C,R7*%
X137795000Y-119657500D03*
X137795000Y-117832500D03*
%TD*%
%TO.C,R8*%
X135890000Y-119657500D03*
X135890000Y-117832500D03*
%TD*%
D17*
%TO.C,R18*%
X134874000Y-72747500D03*
X134874000Y-74572500D03*
%TD*%
D34*
%TO.C,Q1*%
X154290000Y-111755000D03*
X154940000Y-111755000D03*
X155590000Y-111755000D03*
X155590000Y-114305000D03*
X154940000Y-114305000D03*
X154290000Y-114305000D03*
%TD*%
D35*
%TO.C,U1*%
X128160000Y-122970000D03*
X130160000Y-122970000D03*
X132160000Y-122970000D03*
X134160000Y-122970000D03*
X136160000Y-122970000D03*
X138160000Y-122970000D03*
X140160000Y-122970000D03*
X142160000Y-122970000D03*
X144160000Y-122970000D03*
X146160000Y-122970000D03*
D36*
X148810000Y-125620000D03*
X148810000Y-127620000D03*
X148810000Y-129620000D03*
X148810000Y-131620000D03*
X148810000Y-133620000D03*
X148810000Y-135620000D03*
X148810000Y-137620000D03*
X148810000Y-139620000D03*
X148810000Y-141620000D03*
X148810000Y-143620000D03*
D35*
X146160000Y-146270000D03*
X144160000Y-146270000D03*
X142160000Y-146270000D03*
X140160000Y-146270000D03*
X138160000Y-146270000D03*
X136160000Y-146270000D03*
X134160000Y-146270000D03*
X132160000Y-146270000D03*
X130160000Y-146270000D03*
X128160000Y-146270000D03*
D36*
X125510000Y-143620000D03*
X125510000Y-141620000D03*
X125510000Y-139620000D03*
X125510000Y-137620000D03*
X125510000Y-135620000D03*
X125510000Y-133620000D03*
X125510000Y-131620000D03*
X125510000Y-129620000D03*
X125510000Y-127620000D03*
X125510000Y-125620000D03*
%TD*%
D34*
%TO.C,Q2*%
X154290000Y-100325000D03*
X154940000Y-100325000D03*
X155590000Y-100325000D03*
X155590000Y-102875000D03*
X154940000Y-102875000D03*
X154290000Y-102875000D03*
%TD*%
D20*
%TO.C,R14*%
X154582500Y-116840000D03*
X152757500Y-116840000D03*
%TD*%
D28*
%TO.C,C1*%
X91667500Y-85090000D03*
X89942500Y-85090000D03*
%TD*%
D16*
%TO.C,R20*%
X107950000Y-83462500D03*
X107950000Y-81637500D03*
%TD*%
D17*
%TO.C,R31*%
X127000000Y-151487500D03*
X127000000Y-153312500D03*
%TD*%
D16*
%TO.C,R9*%
X133985000Y-119657500D03*
X133985000Y-117832500D03*
%TD*%
D37*
%TO.C,U2*%
X143510000Y-111240000D03*
X140970000Y-111240000D03*
X138430000Y-111240000D03*
X135890000Y-111240000D03*
X133350000Y-111240000D03*
X130810000Y-111240000D03*
X130810000Y-97040000D03*
X133350000Y-97040000D03*
X135890000Y-97040000D03*
X138430000Y-97040000D03*
X140970000Y-97040000D03*
%TD*%
D17*
%TO.C,R29*%
X157480000Y-94337500D03*
X157480000Y-96162500D03*
%TD*%
D16*
%TO.C,R26*%
X139700000Y-83462500D03*
X139700000Y-81637500D03*
%TD*%
M02*
