%TF.GenerationSoftware,KiCad,Pcbnew,9.0.4*%
%TF.CreationDate,2025-09-26T18:44:48-06:00*%
%TF.ProjectId,crommeter,63726f6d-6d65-4746-9572-2e6b69636164,rev?*%
%TF.SameCoordinates,Original*%
%TF.FileFunction,Profile,NP*%
%FSLAX46Y46*%
G04 Gerber Fmt 4.6, Leading zero omitted, Abs format (unit mm)*
G04 Created by KiCad (PCBNEW 9.0.4) date 2025-09-26 18:44:48*
%MOMM*%
%LPD*%
G01*
G04 APERTURE LIST*
%TA.AperFunction,Profile*%
%ADD10C,0.046863*%
%TD*%
G04 APERTURE END LIST*
D10*
X125313352Y-38608169D02*
X126086989Y-38622351D01*
X126855344Y-38664388D01*
X127618052Y-38735067D01*
X128374748Y-38835178D01*
X129125066Y-38965508D01*
X129868641Y-39126846D01*
X130237785Y-39219389D01*
X130605106Y-39319980D01*
X130970559Y-39428717D01*
X131334098Y-39545698D01*
X131929133Y-39753403D01*
X132561091Y-39990070D01*
X133208804Y-40246869D01*
X133851105Y-40514969D01*
X134466826Y-40785539D01*
X135034801Y-41049751D01*
X135533861Y-41298773D01*
X135942840Y-41523775D01*
X136265425Y-41715752D01*
X136643643Y-41919221D01*
X137542750Y-42361157D01*
X139742035Y-43388670D01*
X140945295Y-43976332D01*
X141551629Y-44289095D01*
X142153021Y-44614653D01*
X142743416Y-44953137D01*
X143316754Y-45304677D01*
X143866979Y-45669403D01*
X144388034Y-46047445D01*
X144595558Y-46224831D01*
X144786807Y-46395047D01*
X144964290Y-46558859D01*
X145130516Y-46717034D01*
X145733060Y-47308690D01*
X145880655Y-47450174D01*
X146032052Y-47590620D01*
X146189763Y-47730793D01*
X146356296Y-47871460D01*
X146534163Y-48013387D01*
X146725871Y-48157341D01*
X146933932Y-48304087D01*
X147160855Y-48454393D01*
X148346876Y-49192009D01*
X148956210Y-49572584D01*
X149551451Y-49962191D01*
X149837933Y-50160661D01*
X150113868Y-50361722D01*
X150376914Y-50565486D01*
X150624729Y-50772066D01*
X150854973Y-50981571D01*
X151065304Y-51194115D01*
X151253379Y-51409807D01*
X151416859Y-51628759D01*
X151535244Y-51767006D01*
X151645202Y-51886783D01*
X151748146Y-51989961D01*
X151845491Y-52078409D01*
X151938649Y-52153999D01*
X152029035Y-52218600D01*
X152118063Y-52274083D01*
X152207147Y-52322318D01*
X152297699Y-52365175D01*
X152391134Y-52404524D01*
X152488866Y-52442237D01*
X152592308Y-52480182D01*
X152821978Y-52564254D01*
X152951033Y-52614120D01*
X153091454Y-52671702D01*
X153210542Y-52712487D01*
X153414028Y-52759564D01*
X154046998Y-52897848D01*
X154462885Y-53001683D01*
X154935973Y-53137064D01*
X155459463Y-53310305D01*
X156026558Y-53527721D01*
X156630456Y-53795624D01*
X156944083Y-53950482D01*
X157264360Y-54120329D01*
X157590440Y-54305955D01*
X157921471Y-54508149D01*
X158256603Y-54727701D01*
X158594988Y-54965398D01*
X158935774Y-55222031D01*
X159278113Y-55498389D01*
X159621154Y-55795262D01*
X159964047Y-56113437D01*
X160305942Y-56453705D01*
X160645990Y-56816855D01*
X160983341Y-57203675D01*
X161317144Y-57614956D01*
X161420200Y-57734421D01*
X161526260Y-57846184D01*
X161635119Y-57950683D01*
X161746571Y-58048357D01*
X161860413Y-58139644D01*
X161976438Y-58224985D01*
X162214220Y-58379579D01*
X162458277Y-58515649D01*
X162706971Y-58636706D01*
X162958660Y-58746261D01*
X163211707Y-58847824D01*
X163715309Y-59041017D01*
X163962586Y-59139668D01*
X164204659Y-59244369D01*
X164439891Y-59358631D01*
X164666639Y-59485964D01*
X164883266Y-59629880D01*
X164987271Y-59709153D01*
X165088131Y-59793888D01*
X165185987Y-59884774D01*
X165280875Y-59981836D01*
X165372434Y-60084514D01*
X165460302Y-60192250D01*
X165623518Y-60420660D01*
X165767631Y-60662596D01*
X165889748Y-60913586D01*
X165941653Y-61041080D01*
X165986975Y-61169161D01*
X166025351Y-61297270D01*
X166056420Y-61424849D01*
X166079820Y-61551338D01*
X166095189Y-61676180D01*
X166102167Y-61798814D01*
X166100391Y-61918683D01*
X166089499Y-62035228D01*
X166069131Y-62147889D01*
X166038924Y-62256108D01*
X165998517Y-62359326D01*
X165947548Y-62456984D01*
X165885656Y-62548523D01*
X165812479Y-62633385D01*
X165727655Y-62711011D01*
X165630823Y-62780842D01*
X165521621Y-62842318D01*
X165399688Y-62894882D01*
X165264661Y-62937975D01*
X165116180Y-62971037D01*
X164953882Y-62993510D01*
X164828055Y-63014778D01*
X164715281Y-63045738D01*
X164615055Y-63085991D01*
X164526876Y-63135142D01*
X164450240Y-63192791D01*
X164384645Y-63258541D01*
X164329588Y-63331996D01*
X164284566Y-63412757D01*
X164249077Y-63500427D01*
X164222617Y-63594608D01*
X164204684Y-63694903D01*
X164194776Y-63800914D01*
X164192389Y-63912244D01*
X164197021Y-64028495D01*
X164208169Y-64149270D01*
X164225329Y-64274170D01*
X164248001Y-64402800D01*
X164275680Y-64534760D01*
X164344049Y-64807083D01*
X164426416Y-65087960D01*
X164518758Y-65374211D01*
X164907438Y-66509340D01*
X165113923Y-67205933D01*
X165442453Y-68511628D01*
X165860374Y-70373709D01*
X166335033Y-72739460D01*
X166833779Y-75556166D01*
X167081979Y-77117153D01*
X167323957Y-78771111D01*
X167555629Y-80511449D01*
X167772915Y-82331578D01*
X167971732Y-84224910D01*
X168148000Y-86184853D01*
X168338408Y-88146196D01*
X168481687Y-90000345D01*
X168579316Y-91793365D01*
X168632775Y-93571319D01*
X168643540Y-95380269D01*
X168613092Y-97266279D01*
X168542908Y-99275412D01*
X168434468Y-101453731D01*
X168390597Y-102256263D01*
X168279586Y-103539524D01*
X168112636Y-105163603D01*
X167900950Y-106988590D01*
X167655727Y-108874573D01*
X167388170Y-110681643D01*
X167109480Y-112269888D01*
X166969461Y-112938229D01*
X166830859Y-113499398D01*
X166679074Y-114014758D01*
X166506601Y-114533376D01*
X166316553Y-115051895D01*
X166112046Y-115566960D01*
X165896194Y-116075213D01*
X165672112Y-116573300D01*
X165211717Y-117525549D01*
X164755781Y-118396858D01*
X164329220Y-119160378D01*
X163956954Y-119789261D01*
X163663900Y-120256657D01*
X162785259Y-121594161D01*
X162396143Y-122211630D01*
X162212717Y-122519965D01*
X162036172Y-122832764D01*
X161866102Y-123153576D01*
X161702103Y-123485950D01*
X161543767Y-123833435D01*
X161390691Y-124199578D01*
X161242468Y-124587928D01*
X161098694Y-125002035D01*
X160958962Y-125445447D01*
X160822867Y-125921711D01*
X160551886Y-127020682D01*
X160281615Y-128291182D01*
X160019576Y-129656851D01*
X159773293Y-131041326D01*
X159358082Y-133561245D01*
X159096164Y-135240043D01*
X158366853Y-140748015D01*
X157999253Y-143528266D01*
X157886451Y-144467424D01*
X157848307Y-144931639D01*
X157865925Y-146383650D01*
X157855013Y-147091597D01*
X157838810Y-147459537D01*
X157813227Y-147843827D01*
X157776602Y-148249748D01*
X157727273Y-148682580D01*
X157663578Y-149147603D01*
X157583856Y-149650097D01*
X157486444Y-150195342D01*
X157369680Y-150788618D01*
X157231903Y-151435206D01*
X157071452Y-152140386D01*
X156969246Y-152611092D01*
X156888779Y-153041461D01*
X156765550Y-153804708D01*
X156709033Y-154149347D01*
X156646745Y-154477171D01*
X156571808Y-154794060D01*
X156477346Y-155105895D01*
X156420643Y-155261755D01*
X156356480Y-155418556D01*
X156283997Y-155577034D01*
X156202334Y-155737924D01*
X156110632Y-155901960D01*
X156008030Y-156069879D01*
X155893669Y-156242414D01*
X155766691Y-156420301D01*
X155626234Y-156604276D01*
X155471439Y-156795072D01*
X155301447Y-156993426D01*
X155115397Y-157200072D01*
X154691688Y-157641181D01*
X154193435Y-158124280D01*
X153576570Y-158695218D01*
X152915439Y-159259455D01*
X152216630Y-159813238D01*
X151486733Y-160352818D01*
X150732337Y-160874442D01*
X149960031Y-161374360D01*
X149176405Y-161848821D01*
X148388047Y-162294074D01*
X147601547Y-162706366D01*
X146823493Y-163081948D01*
X146060476Y-163417068D01*
X145319084Y-163707976D01*
X144605906Y-163950919D01*
X143927532Y-164142147D01*
X143290550Y-164277909D01*
X142701551Y-164354454D01*
X140691636Y-164403462D01*
X139978471Y-164410757D01*
X139372242Y-164405384D01*
X138807252Y-164386445D01*
X138217806Y-164353044D01*
X136702766Y-164239269D01*
X135498319Y-164127503D01*
X134355550Y-163988202D01*
X133270966Y-163824072D01*
X132241076Y-163637820D01*
X131262388Y-163432153D01*
X130331408Y-163209778D01*
X129444647Y-162973400D01*
X128598610Y-162725728D01*
X127014745Y-162207323D01*
X125551876Y-161676216D01*
X122877383Y-160662512D01*
X122652352Y-160575926D01*
X122414030Y-160475021D01*
X122165059Y-160361091D01*
X121908080Y-160235430D01*
X121645735Y-160099331D01*
X121380665Y-159954089D01*
X121115511Y-159800997D01*
X120852916Y-159641348D01*
X120595520Y-159476436D01*
X120345965Y-159307556D01*
X120106891Y-159136000D01*
X119880942Y-158963062D01*
X119670757Y-158790037D01*
X119478979Y-158618217D01*
X119308249Y-158448897D01*
X119161207Y-158283371D01*
X118945453Y-158034244D01*
X118713372Y-157789262D01*
X118467450Y-157548358D01*
X118210172Y-157311461D01*
X117944025Y-157078505D01*
X117671493Y-156849420D01*
X117117220Y-156402592D01*
X116041426Y-155552383D01*
X115793800Y-155348483D01*
X115559674Y-155147907D01*
X115341535Y-154950587D01*
X115141866Y-154756455D01*
X114576130Y-154175290D01*
X114044508Y-153592556D01*
X113541194Y-153002562D01*
X113060385Y-152399618D01*
X112596274Y-151778034D01*
X112143059Y-151132118D01*
X111694933Y-150456181D01*
X111246092Y-149744533D01*
X110790732Y-148991482D01*
X110323047Y-148191339D01*
X109327484Y-146427014D01*
X106933056Y-142082876D01*
X105973593Y-140309790D01*
X105041434Y-138523174D01*
X104134432Y-136724272D01*
X103250440Y-134914328D01*
X102387312Y-133094586D01*
X101542902Y-131266289D01*
X99901645Y-127589005D01*
X98325972Y-125159495D01*
X97529600Y-123949418D01*
X96718297Y-122750819D01*
X95885134Y-121569964D01*
X95023180Y-120413122D01*
X94125505Y-119286561D01*
X93661106Y-118736594D01*
X93185178Y-118196549D01*
X92208279Y-116594228D01*
X91249238Y-114971944D01*
X90334061Y-113323542D01*
X89901048Y-112487625D01*
X89488754Y-111642871D01*
X89100428Y-110788512D01*
X88739322Y-109923777D01*
X88408686Y-109047899D01*
X88111771Y-108160108D01*
X87851828Y-107259634D01*
X87632107Y-106345709D01*
X87455859Y-105417563D01*
X87326335Y-104474428D01*
X87220315Y-103861584D01*
X87095496Y-103241557D01*
X86951881Y-102614634D01*
X86789471Y-101981100D01*
X86608270Y-101341243D01*
X86408277Y-100695349D01*
X86189495Y-100043703D01*
X85951927Y-99386593D01*
X85901500Y-99232923D01*
X85862178Y-99073070D01*
X85832513Y-98906267D01*
X85811060Y-98731749D01*
X85796371Y-98548749D01*
X85787000Y-98356501D01*
X85778426Y-97941201D01*
X85773762Y-97479721D01*
X85761436Y-96965933D01*
X85748782Y-96687510D01*
X85729874Y-96393711D01*
X85703263Y-96083772D01*
X85667502Y-95756927D01*
X85524985Y-94155609D01*
X85441855Y-92437104D01*
X85407300Y-90670888D01*
X85410512Y-88926433D01*
X85486994Y-85780701D01*
X85584821Y-83555698D01*
X85654875Y-82468063D01*
X85751946Y-81401388D01*
X85872339Y-80360443D01*
X86012361Y-79349997D01*
X86336516Y-77439672D01*
X86694860Y-75708563D01*
X87057843Y-74194818D01*
X87395915Y-72936585D01*
X87879122Y-71339249D01*
X88253436Y-70112943D01*
X88699241Y-68906112D01*
X89209493Y-67717646D01*
X89777150Y-66546434D01*
X90395167Y-65391364D01*
X91056503Y-64251326D01*
X91754112Y-63125208D01*
X92480952Y-62011899D01*
X98502766Y-53433218D01*
X99151544Y-52424058D01*
X99561853Y-51795462D01*
X100037236Y-51086747D01*
X100583541Y-50299836D01*
X101206612Y-49436647D01*
X101912296Y-48499102D01*
X102297945Y-48003047D01*
X102706440Y-47489121D01*
X102998733Y-47133731D01*
X103295034Y-46789567D01*
X103595331Y-46456097D01*
X103899610Y-46132789D01*
X104207857Y-45819109D01*
X104520060Y-45514527D01*
X104836204Y-45218509D01*
X105156276Y-44930522D01*
X105480263Y-44650034D01*
X105808151Y-44376514D01*
X106139928Y-44109427D01*
X106475579Y-43848242D01*
X107158451Y-43341447D01*
X107856660Y-42851869D01*
X108298294Y-42552996D01*
X108740222Y-42276650D01*
X109182924Y-42021340D01*
X109626877Y-41785574D01*
X110072560Y-41567859D01*
X110520452Y-41366706D01*
X110971031Y-41180621D01*
X111424776Y-41008114D01*
X111882164Y-40847693D01*
X112343676Y-40697866D01*
X113280981Y-40424030D01*
X114240520Y-40174672D01*
X115226121Y-39937860D01*
X116527968Y-39644787D01*
X117799012Y-39382640D01*
X119022832Y-39154042D01*
X120183010Y-38961613D01*
X121263124Y-38807978D01*
X122246756Y-38695756D01*
X123117484Y-38627572D01*
X123858891Y-38606046D01*
X125313352Y-38608169D01*
M02*
