%TF.GenerationSoftware,KiCad,Pcbnew,9.0.4*%
%TF.CreationDate,2025-09-26T18:44:48-06:00*%
%TF.ProjectId,crommeter,63726f6d-6d65-4746-9572-2e6b69636164,rev?*%
%TF.SameCoordinates,Original*%
%TF.FileFunction,Paste,Bot*%
%TF.FilePolarity,Positive*%
%FSLAX46Y46*%
G04 Gerber Fmt 4.6, Leading zero omitted, Abs format (unit mm)*
G04 Created by KiCad (PCBNEW 9.0.4) date 2025-09-26 18:44:48*
%MOMM*%
%LPD*%
G01*
G04 APERTURE LIST*
G04 Aperture macros list*
%AMRoundRect*
0 Rectangle with rounded corners*
0 $1 Rounding radius*
0 $2 $3 $4 $5 $6 $7 $8 $9 X,Y pos of 4 corners*
0 Add a 4 corners polygon primitive as box body*
4,1,4,$2,$3,$4,$5,$6,$7,$8,$9,$2,$3,0*
0 Add four circle primitives for the rounded corners*
1,1,$1+$1,$2,$3*
1,1,$1+$1,$4,$5*
1,1,$1+$1,$6,$7*
1,1,$1+$1,$8,$9*
0 Add four rect primitives between the rounded corners*
20,1,$1+$1,$2,$3,$4,$5,0*
20,1,$1+$1,$4,$5,$6,$7,0*
20,1,$1+$1,$6,$7,$8,$9,0*
20,1,$1+$1,$8,$9,$2,$3,0*%
%AMRotRect*
0 Rectangle, with rotation*
0 The origin of the aperture is its center*
0 $1 length*
0 $2 width*
0 $3 Rotation angle, in degrees counterclockwise*
0 Add horizontal line*
21,1,$1,$2,0,0,$3*%
G04 Aperture macros list end*
%ADD10C,0.010000*%
%ADD11C,0.000000*%
%ADD12RoundRect,0.237500X0.237500X-0.250000X0.237500X0.250000X-0.237500X0.250000X-0.237500X-0.250000X0*%
%ADD13RoundRect,0.237500X-0.237500X0.250000X-0.237500X-0.250000X0.237500X-0.250000X0.237500X0.250000X0*%
%ADD14R,1.549400X0.609600*%
%ADD15R,1.803400X1.193800*%
%ADD16RoundRect,0.237500X0.250000X0.237500X-0.250000X0.237500X-0.250000X-0.237500X0.250000X-0.237500X0*%
%ADD17RotRect,1.000000X3.500000X300.000000*%
%ADD18RotRect,1.500000X3.400000X300.000000*%
%ADD19R,1.397000X2.108200*%
%ADD20RoundRect,0.237500X-0.250000X-0.237500X0.250000X-0.237500X0.250000X0.237500X-0.250000X0.237500X0*%
%ADD21RoundRect,0.237500X0.300000X0.237500X-0.300000X0.237500X-0.300000X-0.237500X0.300000X-0.237500X0*%
%ADD22RoundRect,0.030000X0.620000X0.120000X-0.620000X0.120000X-0.620000X-0.120000X0.620000X-0.120000X0*%
%ADD23R,2.030000X1.270000*%
%ADD24RotRect,0.400000X1.350000X118.500000*%
%ADD25RotRect,1.500000X1.550000X118.500000*%
%ADD26RoundRect,0.030000X-0.120000X0.620000X-0.120000X-0.620000X0.120000X-0.620000X0.120000X0.620000X0*%
%ADD27R,1.500000X2.800000*%
%ADD28R,2.800000X1.500000*%
%ADD29R,2.000000X2.800000*%
G04 APERTURE END LIST*
D10*
%TO.C,D1*%
X120212000Y-64816000D02*
X119912000Y-64816000D01*
X119912000Y-64516000D01*
X119312000Y-64516000D01*
X119312000Y-64216000D01*
X120212000Y-64216000D01*
X120212000Y-64816000D01*
G36*
X120212000Y-64816000D02*
G01*
X119912000Y-64816000D01*
X119912000Y-64516000D01*
X119312000Y-64516000D01*
X119312000Y-64216000D01*
X120212000Y-64216000D01*
X120212000Y-64816000D01*
G37*
X123512000Y-64516000D02*
X122912000Y-64516000D01*
X122912000Y-64816000D01*
X122612000Y-64816000D01*
X122612000Y-64216000D01*
X123512000Y-64216000D01*
X123512000Y-64516000D01*
G36*
X123512000Y-64516000D02*
G01*
X122912000Y-64516000D01*
X122912000Y-64816000D01*
X122612000Y-64816000D01*
X122612000Y-64216000D01*
X123512000Y-64216000D01*
X123512000Y-64516000D01*
G37*
%TO.C,D6*%
X165400000Y-77032000D02*
X164800000Y-77032000D01*
X164800000Y-76732000D01*
X165100000Y-76732000D01*
X165100000Y-76132000D01*
X165400000Y-76132000D01*
X165400000Y-77032000D01*
G36*
X165400000Y-77032000D02*
G01*
X164800000Y-77032000D01*
X164800000Y-76732000D01*
X165100000Y-76732000D01*
X165100000Y-76132000D01*
X165400000Y-76132000D01*
X165400000Y-77032000D01*
G37*
X165400000Y-80332000D02*
X165100000Y-80332000D01*
X165100000Y-79732000D01*
X164800000Y-79732000D01*
X164800000Y-79432000D01*
X165400000Y-79432000D01*
X165400000Y-80332000D01*
G36*
X165400000Y-80332000D02*
G01*
X165100000Y-80332000D01*
X165100000Y-79732000D01*
X164800000Y-79732000D01*
X164800000Y-79432000D01*
X165400000Y-79432000D01*
X165400000Y-80332000D01*
G37*
%TO.C,MK1*%
G36*
X90544000Y-87071000D02*
G01*
X91044000Y-87071000D01*
X91044000Y-87493000D01*
X90544000Y-87493000D01*
X90544000Y-87071000D01*
G37*
G36*
X91044000Y-87893000D02*
G01*
X90544000Y-87893000D01*
X90544000Y-88315000D01*
X91044000Y-88315000D01*
X91044000Y-87893000D01*
G37*
G36*
X91944000Y-87071000D02*
G01*
X91444000Y-87071000D01*
X91444000Y-87493000D01*
X91944000Y-87493000D01*
X91944000Y-87071000D01*
G37*
G36*
X92344000Y-87893000D02*
G01*
X92844000Y-87893000D01*
X92844000Y-88315000D01*
X92344000Y-88315000D01*
X92344000Y-87893000D01*
G37*
G36*
X92844000Y-87071000D02*
G01*
X92344000Y-87071000D01*
X92344000Y-87493000D01*
X92844000Y-87493000D01*
X92844000Y-87071000D01*
G37*
D11*
G36*
X91154700Y-89515800D02*
G01*
X91196900Y-89619200D01*
X91258700Y-89712300D01*
X91337700Y-89791300D01*
X91430800Y-89853100D01*
X91534200Y-89895300D01*
X91644000Y-89916300D01*
X91644000Y-90167000D01*
X91478500Y-90139400D01*
X91322300Y-90078500D01*
X91181800Y-89986800D01*
X91063200Y-89868200D01*
X90971500Y-89727700D01*
X90910600Y-89571500D01*
X90883000Y-89406000D01*
X91133700Y-89406000D01*
X91154700Y-89515800D01*
G37*
G36*
X91644000Y-88795700D02*
G01*
X91534200Y-88816700D01*
X91430800Y-88858900D01*
X91337700Y-88920700D01*
X91258700Y-88999700D01*
X91196900Y-89092800D01*
X91154700Y-89196200D01*
X91133700Y-89306000D01*
X90883000Y-89306000D01*
X90910600Y-89140500D01*
X90971500Y-88984300D01*
X91063200Y-88843800D01*
X91181800Y-88725200D01*
X91322300Y-88633500D01*
X91478500Y-88572600D01*
X91644000Y-88545000D01*
X91644000Y-88795700D01*
G37*
G36*
X92477400Y-89571500D02*
G01*
X92416500Y-89727700D01*
X92324800Y-89868200D01*
X92206200Y-89986800D01*
X92065700Y-90078500D01*
X91909500Y-90139400D01*
X91744000Y-90167000D01*
X91744000Y-89916300D01*
X91853800Y-89895300D01*
X91957200Y-89853100D01*
X92050300Y-89791300D01*
X92129300Y-89712300D01*
X92191100Y-89619200D01*
X92233300Y-89515800D01*
X92254300Y-89406000D01*
X92505000Y-89406000D01*
X92477400Y-89571500D01*
G37*
G36*
X91909500Y-88572600D02*
G01*
X92065700Y-88633500D01*
X92206200Y-88725200D01*
X92324800Y-88843800D01*
X92416500Y-88984300D01*
X92477400Y-89140500D01*
X92505000Y-89306000D01*
X92254300Y-89306000D01*
X92233300Y-89196200D01*
X92191100Y-89092800D01*
X92129300Y-88999700D01*
X92050300Y-88920700D01*
X91957200Y-88858900D01*
X91853800Y-88816700D01*
X91744000Y-88795700D01*
X91744000Y-88545000D01*
X91909500Y-88572600D01*
G37*
D10*
%TO.C,D5*%
X151200000Y-65070000D02*
X150900000Y-65070000D01*
X150900000Y-64770000D01*
X150300000Y-64770000D01*
X150300000Y-64470000D01*
X151200000Y-64470000D01*
X151200000Y-65070000D01*
G36*
X151200000Y-65070000D02*
G01*
X150900000Y-65070000D01*
X150900000Y-64770000D01*
X150300000Y-64770000D01*
X150300000Y-64470000D01*
X151200000Y-64470000D01*
X151200000Y-65070000D01*
G37*
X154500000Y-64770000D02*
X153900000Y-64770000D01*
X153900000Y-65070000D01*
X153600000Y-65070000D01*
X153600000Y-64470000D01*
X154500000Y-64470000D01*
X154500000Y-64770000D01*
G36*
X154500000Y-64770000D02*
G01*
X153900000Y-64770000D01*
X153900000Y-65070000D01*
X153600000Y-65070000D01*
X153600000Y-64470000D01*
X154500000Y-64470000D01*
X154500000Y-64770000D01*
G37*
%TO.C,J1*%
X106560957Y-137311439D02*
X106586971Y-137313245D01*
X106612985Y-137315050D01*
X106639075Y-137319093D01*
X106664763Y-137324488D01*
X106690050Y-137331240D01*
X106714935Y-137339350D01*
X106739417Y-137348813D01*
X106763499Y-137359635D01*
X106786299Y-137372288D01*
X106809101Y-137384942D01*
X106831498Y-137398951D01*
X106852618Y-137414794D01*
X106872859Y-137431115D01*
X106892221Y-137447913D01*
X106910777Y-137467422D01*
X106927980Y-137486527D01*
X106944781Y-137506992D01*
X106959823Y-137528410D01*
X106973987Y-137550304D01*
X106987270Y-137572677D01*
X107533618Y-138578922D01*
X106171453Y-139318520D01*
X105625104Y-138312274D01*
X105613577Y-138288947D01*
X105602929Y-138265143D01*
X105593160Y-138240863D01*
X105585148Y-138215627D01*
X105578491Y-138190793D01*
X105572237Y-138164606D01*
X105568694Y-138139218D01*
X105566031Y-138113356D01*
X105564246Y-138087016D01*
X105564696Y-138060599D01*
X105566502Y-138034586D01*
X105568307Y-138008571D01*
X105572348Y-137982481D01*
X105577746Y-137956794D01*
X105584497Y-137931506D01*
X105592608Y-137906621D01*
X105602071Y-137882139D01*
X105612892Y-137858058D01*
X105625546Y-137835257D01*
X105638198Y-137812455D01*
X105652209Y-137790056D01*
X105668053Y-137768938D01*
X105684372Y-137748698D01*
X105701168Y-137729336D01*
X105720679Y-137710780D01*
X105739787Y-137693576D01*
X105760249Y-137676776D01*
X105781667Y-137661734D01*
X105803562Y-137647570D01*
X105825934Y-137634285D01*
X106309283Y-137371848D01*
X106332610Y-137360321D01*
X106356413Y-137349673D01*
X106380694Y-137339902D01*
X106405930Y-137331891D01*
X106430763Y-137325234D01*
X106456951Y-137318979D01*
X106482339Y-137315437D01*
X106508201Y-137312775D01*
X106534541Y-137310989D01*
X106560957Y-137311439D01*
G36*
X106560957Y-137311439D02*
G01*
X106586971Y-137313245D01*
X106612985Y-137315050D01*
X106639075Y-137319093D01*
X106664763Y-137324488D01*
X106690050Y-137331240D01*
X106714935Y-137339350D01*
X106739417Y-137348813D01*
X106763499Y-137359635D01*
X106786299Y-137372288D01*
X106809101Y-137384942D01*
X106831498Y-137398951D01*
X106852618Y-137414794D01*
X106872859Y-137431115D01*
X106892221Y-137447913D01*
X106910777Y-137467422D01*
X106927980Y-137486527D01*
X106944781Y-137506992D01*
X106959823Y-137528410D01*
X106973987Y-137550304D01*
X106987270Y-137572677D01*
X107533618Y-138578922D01*
X106171453Y-139318520D01*
X105625104Y-138312274D01*
X105613577Y-138288947D01*
X105602929Y-138265143D01*
X105593160Y-138240863D01*
X105585148Y-138215627D01*
X105578491Y-138190793D01*
X105572237Y-138164606D01*
X105568694Y-138139218D01*
X105566031Y-138113356D01*
X105564246Y-138087016D01*
X105564696Y-138060599D01*
X105566502Y-138034586D01*
X105568307Y-138008571D01*
X105572348Y-137982481D01*
X105577746Y-137956794D01*
X105584497Y-137931506D01*
X105592608Y-137906621D01*
X105602071Y-137882139D01*
X105612892Y-137858058D01*
X105625546Y-137835257D01*
X105638198Y-137812455D01*
X105652209Y-137790056D01*
X105668053Y-137768938D01*
X105684372Y-137748698D01*
X105701168Y-137729336D01*
X105720679Y-137710780D01*
X105739787Y-137693576D01*
X105760249Y-137676776D01*
X105781667Y-137661734D01*
X105803562Y-137647570D01*
X105825934Y-137634285D01*
X106309283Y-137371848D01*
X106332610Y-137360321D01*
X106356413Y-137349673D01*
X106380694Y-137339902D01*
X106405930Y-137331891D01*
X106430763Y-137325234D01*
X106456951Y-137318979D01*
X106482339Y-137315437D01*
X106508201Y-137312775D01*
X106534541Y-137310989D01*
X106560957Y-137311439D01*
G37*
X110274896Y-143627726D02*
X110286423Y-143651053D01*
X110297071Y-143674857D01*
X110306840Y-143699137D01*
X110314852Y-143724373D01*
X110321509Y-143749207D01*
X110327763Y-143775394D01*
X110331306Y-143800782D01*
X110333969Y-143826644D01*
X110335754Y-143852984D01*
X110335304Y-143879401D01*
X110333498Y-143905414D01*
X110331693Y-143931429D01*
X110327652Y-143957519D01*
X110322254Y-143983206D01*
X110315503Y-144008494D01*
X110307392Y-144033379D01*
X110297929Y-144057861D01*
X110287108Y-144081942D01*
X110274454Y-144104743D01*
X110261802Y-144127545D01*
X110247791Y-144149944D01*
X110231947Y-144171062D01*
X110215628Y-144191302D01*
X110198832Y-144210664D01*
X110179321Y-144229220D01*
X110160213Y-144246424D01*
X110139751Y-144263224D01*
X110118333Y-144278266D01*
X110096438Y-144292430D01*
X110074066Y-144305715D01*
X109590717Y-144568152D01*
X109567390Y-144579679D01*
X109543587Y-144590327D01*
X109519306Y-144600098D01*
X109494070Y-144608109D01*
X109469237Y-144614766D01*
X109443049Y-144621021D01*
X109417661Y-144624563D01*
X109391799Y-144627225D01*
X109365459Y-144629011D01*
X109339043Y-144628561D01*
X109313029Y-144626755D01*
X109287015Y-144624950D01*
X109260925Y-144620907D01*
X109235237Y-144615512D01*
X109209950Y-144608760D01*
X109185065Y-144600650D01*
X109160583Y-144591187D01*
X109136501Y-144580365D01*
X109113701Y-144567712D01*
X109090899Y-144555058D01*
X109068502Y-144541049D01*
X109047382Y-144525206D01*
X109027141Y-144508885D01*
X109007779Y-144492087D01*
X108989223Y-144472578D01*
X108972020Y-144453473D01*
X108955219Y-144433008D01*
X108940177Y-144411590D01*
X108926013Y-144389696D01*
X108912730Y-144367323D01*
X108366382Y-143361078D01*
X109728547Y-142621480D01*
X110274896Y-143627726D01*
G36*
X110274896Y-143627726D02*
G01*
X110286423Y-143651053D01*
X110297071Y-143674857D01*
X110306840Y-143699137D01*
X110314852Y-143724373D01*
X110321509Y-143749207D01*
X110327763Y-143775394D01*
X110331306Y-143800782D01*
X110333969Y-143826644D01*
X110335754Y-143852984D01*
X110335304Y-143879401D01*
X110333498Y-143905414D01*
X110331693Y-143931429D01*
X110327652Y-143957519D01*
X110322254Y-143983206D01*
X110315503Y-144008494D01*
X110307392Y-144033379D01*
X110297929Y-144057861D01*
X110287108Y-144081942D01*
X110274454Y-144104743D01*
X110261802Y-144127545D01*
X110247791Y-144149944D01*
X110231947Y-144171062D01*
X110215628Y-144191302D01*
X110198832Y-144210664D01*
X110179321Y-144229220D01*
X110160213Y-144246424D01*
X110139751Y-144263224D01*
X110118333Y-144278266D01*
X110096438Y-144292430D01*
X110074066Y-144305715D01*
X109590717Y-144568152D01*
X109567390Y-144579679D01*
X109543587Y-144590327D01*
X109519306Y-144600098D01*
X109494070Y-144608109D01*
X109469237Y-144614766D01*
X109443049Y-144621021D01*
X109417661Y-144624563D01*
X109391799Y-144627225D01*
X109365459Y-144629011D01*
X109339043Y-144628561D01*
X109313029Y-144626755D01*
X109287015Y-144624950D01*
X109260925Y-144620907D01*
X109235237Y-144615512D01*
X109209950Y-144608760D01*
X109185065Y-144600650D01*
X109160583Y-144591187D01*
X109136501Y-144580365D01*
X109113701Y-144567712D01*
X109090899Y-144555058D01*
X109068502Y-144541049D01*
X109047382Y-144525206D01*
X109027141Y-144508885D01*
X109007779Y-144492087D01*
X108989223Y-144472578D01*
X108972020Y-144453473D01*
X108955219Y-144433008D01*
X108940177Y-144411590D01*
X108926013Y-144389696D01*
X108912730Y-144367323D01*
X108366382Y-143361078D01*
X109728547Y-142621480D01*
X110274896Y-143627726D01*
G37*
%TO.C,D2*%
X135174000Y-77032000D02*
X134574000Y-77032000D01*
X134574000Y-76732000D01*
X134874000Y-76732000D01*
X134874000Y-76132000D01*
X135174000Y-76132000D01*
X135174000Y-77032000D01*
G36*
X135174000Y-77032000D02*
G01*
X134574000Y-77032000D01*
X134574000Y-76732000D01*
X134874000Y-76732000D01*
X134874000Y-76132000D01*
X135174000Y-76132000D01*
X135174000Y-77032000D01*
G37*
X135174000Y-80332000D02*
X134874000Y-80332000D01*
X134874000Y-79732000D01*
X134574000Y-79732000D01*
X134574000Y-79432000D01*
X135174000Y-79432000D01*
X135174000Y-80332000D01*
G36*
X135174000Y-80332000D02*
G01*
X134874000Y-80332000D01*
X134874000Y-79732000D01*
X134574000Y-79732000D01*
X134574000Y-79432000D01*
X135174000Y-79432000D01*
X135174000Y-80332000D01*
G37*
%TO.C,D8*%
X139446000Y-76732000D02*
X139746000Y-76732000D01*
X139746000Y-77032000D01*
X139146000Y-77032000D01*
X139146000Y-76132000D01*
X139446000Y-76132000D01*
X139446000Y-76732000D01*
G36*
X139446000Y-76732000D02*
G01*
X139746000Y-76732000D01*
X139746000Y-77032000D01*
X139146000Y-77032000D01*
X139146000Y-76132000D01*
X139446000Y-76132000D01*
X139446000Y-76732000D01*
G37*
X139746000Y-79732000D02*
X139446000Y-79732000D01*
X139446000Y-80332000D01*
X139146000Y-80332000D01*
X139146000Y-79432000D01*
X139746000Y-79432000D01*
X139746000Y-79732000D01*
G36*
X139746000Y-79732000D02*
G01*
X139446000Y-79732000D01*
X139446000Y-80332000D01*
X139146000Y-80332000D01*
X139146000Y-79432000D01*
X139746000Y-79432000D01*
X139746000Y-79732000D01*
G37*
%TO.C,D3*%
X120212000Y-92248000D02*
X119312000Y-92248000D01*
X119312000Y-91948000D01*
X119912000Y-91948000D01*
X119912000Y-91648000D01*
X120212000Y-91648000D01*
X120212000Y-92248000D01*
G36*
X120212000Y-92248000D02*
G01*
X119312000Y-92248000D01*
X119312000Y-91948000D01*
X119912000Y-91948000D01*
X119912000Y-91648000D01*
X120212000Y-91648000D01*
X120212000Y-92248000D01*
G37*
X122912000Y-91948000D02*
X123512000Y-91948000D01*
X123512000Y-92248000D01*
X122612000Y-92248000D01*
X122612000Y-91648000D01*
X122912000Y-91648000D01*
X122912000Y-91948000D01*
G36*
X122912000Y-91948000D02*
G01*
X123512000Y-91948000D01*
X123512000Y-92248000D01*
X122612000Y-92248000D01*
X122612000Y-91648000D01*
X122912000Y-91648000D01*
X122912000Y-91948000D01*
G37*
%TO.C,D7*%
X151200000Y-91486000D02*
X150300000Y-91486000D01*
X150300000Y-91186000D01*
X150900000Y-91186000D01*
X150900000Y-90886000D01*
X151200000Y-90886000D01*
X151200000Y-91486000D01*
G36*
X151200000Y-91486000D02*
G01*
X150300000Y-91486000D01*
X150300000Y-91186000D01*
X150900000Y-91186000D01*
X150900000Y-90886000D01*
X151200000Y-90886000D01*
X151200000Y-91486000D01*
G37*
X153900000Y-91186000D02*
X154500000Y-91186000D01*
X154500000Y-91486000D01*
X153600000Y-91486000D01*
X153600000Y-90886000D01*
X153900000Y-90886000D01*
X153900000Y-91186000D01*
G36*
X153900000Y-91186000D02*
G01*
X154500000Y-91186000D01*
X154500000Y-91486000D01*
X153600000Y-91486000D01*
X153600000Y-90886000D01*
X153900000Y-90886000D01*
X153900000Y-91186000D01*
G37*
%TO.C,D4*%
X107950000Y-76732000D02*
X108250000Y-76732000D01*
X108250000Y-77032000D01*
X107650000Y-77032000D01*
X107650000Y-76132000D01*
X107950000Y-76132000D01*
X107950000Y-76732000D01*
G36*
X107950000Y-76732000D02*
G01*
X108250000Y-76732000D01*
X108250000Y-77032000D01*
X107650000Y-77032000D01*
X107650000Y-76132000D01*
X107950000Y-76132000D01*
X107950000Y-76732000D01*
G37*
X108250000Y-79732000D02*
X107950000Y-79732000D01*
X107950000Y-80332000D01*
X107650000Y-80332000D01*
X107650000Y-79432000D01*
X108250000Y-79432000D01*
X108250000Y-79732000D01*
G36*
X108250000Y-79732000D02*
G01*
X107950000Y-79732000D01*
X107950000Y-80332000D01*
X107650000Y-80332000D01*
X107650000Y-79432000D01*
X108250000Y-79432000D01*
X108250000Y-79732000D01*
G37*
%TD*%
D12*
%TO.C,R27*%
X132080000Y-92352500D03*
X132080000Y-90527500D03*
%TD*%
%TO.C,R5*%
X141605000Y-119657500D03*
X141605000Y-117832500D03*
%TD*%
D13*
%TO.C,R30*%
X159385000Y-94337500D03*
X159385000Y-96162500D03*
%TD*%
D14*
%TO.C,J3*%
X162998500Y-93750000D03*
X162998500Y-94750001D03*
X162998500Y-95749999D03*
X162998500Y-96750000D03*
D15*
X166873501Y-92450001D03*
X166873501Y-98049999D03*
%TD*%
D16*
%TO.C,R17*%
X122324500Y-62230000D03*
X120499500Y-62230000D03*
%TD*%
D12*
%TO.C,R24*%
X165100000Y-83462500D03*
X165100000Y-81637500D03*
%TD*%
D17*
%TO.C,P1*%
X106422324Y-120973527D03*
X105422322Y-119241475D03*
D18*
X102617677Y-125883686D03*
X99267677Y-120081316D03*
%TD*%
D13*
%TO.C,R22*%
X141605000Y-90527500D03*
X141605000Y-92352500D03*
%TD*%
D19*
%TO.C,SW1*%
X121920000Y-152400000D03*
X121920000Y-143306800D03*
X117424200Y-152400000D03*
X117424200Y-143306800D03*
%TD*%
D16*
%TO.C,R23*%
X153312500Y-62230000D03*
X151487500Y-62230000D03*
%TD*%
D20*
%TO.C,R2*%
X93702500Y-85090000D03*
X95527500Y-85090000D03*
%TD*%
D16*
%TO.C,R13*%
X158392500Y-116840000D03*
X156567500Y-116840000D03*
%TD*%
D20*
%TO.C,R25*%
X151487500Y-93980000D03*
X153312500Y-93980000D03*
%TD*%
D16*
%TO.C,R16*%
X154582500Y-105410000D03*
X152757500Y-105410000D03*
%TD*%
%TO.C,R15*%
X158392500Y-105410000D03*
X156567500Y-105410000D03*
%TD*%
D20*
%TO.C,R1*%
X93702500Y-83185000D03*
X95527500Y-83185000D03*
%TD*%
D21*
%TO.C,C2*%
X91667500Y-83185000D03*
X89942500Y-83185000D03*
%TD*%
D12*
%TO.C,R4*%
X143510000Y-119657500D03*
X143510000Y-117832500D03*
%TD*%
D22*
%TO.C,Q3*%
X137165000Y-90790000D03*
X137165000Y-91440000D03*
X137165000Y-92090000D03*
X134615000Y-92090000D03*
X134615000Y-91440000D03*
X134615000Y-90790000D03*
%TD*%
D23*
%TO.C,J2*%
X116395000Y-123190000D03*
X119825000Y-125730000D03*
X116395000Y-128270000D03*
%TD*%
D24*
%TO.C,J1*%
X110921142Y-140836062D03*
X110610989Y-140264832D03*
X110300834Y-139693600D03*
X109990683Y-139122370D03*
X109680529Y-138551138D03*
D25*
X107472842Y-140091184D03*
X108427158Y-141848816D03*
%TD*%
D12*
%TO.C,R21*%
X139700000Y-92352500D03*
X139700000Y-90527500D03*
%TD*%
%TO.C,R3*%
X145415000Y-119657500D03*
X145415000Y-117832500D03*
%TD*%
D13*
%TO.C,R28*%
X130175000Y-90527500D03*
X130175000Y-92352500D03*
%TD*%
D16*
%TO.C,R12*%
X154582500Y-109220000D03*
X152757500Y-109220000D03*
%TD*%
D20*
%TO.C,R19*%
X120095000Y-93980000D03*
X121920000Y-93980000D03*
%TD*%
D16*
%TO.C,R11*%
X158392500Y-109220000D03*
X156567500Y-109220000D03*
%TD*%
D12*
%TO.C,R6*%
X139700000Y-119657500D03*
X139700000Y-117832500D03*
%TD*%
%TO.C,R10*%
X132080000Y-119657500D03*
X132080000Y-117832500D03*
%TD*%
%TO.C,R7*%
X137795000Y-119657500D03*
X137795000Y-117832500D03*
%TD*%
%TO.C,R8*%
X135890000Y-119657500D03*
X135890000Y-117832500D03*
%TD*%
D13*
%TO.C,R18*%
X134874000Y-72747500D03*
X134874000Y-74572500D03*
%TD*%
D26*
%TO.C,Q1*%
X154290000Y-111755000D03*
X154940000Y-111755000D03*
X155590000Y-111755000D03*
X155590000Y-114305000D03*
X154940000Y-114305000D03*
X154290000Y-114305000D03*
%TD*%
D27*
%TO.C,U1*%
X128160000Y-122970000D03*
X130160000Y-122970000D03*
X132160000Y-122970000D03*
X134160000Y-122970000D03*
X136160000Y-122970000D03*
X138160000Y-122970000D03*
X140160000Y-122970000D03*
X142160000Y-122970000D03*
X144160000Y-122970000D03*
X146160000Y-122970000D03*
D28*
X148810000Y-125620000D03*
X148810000Y-127620000D03*
X148810000Y-129620000D03*
X148810000Y-131620000D03*
X148810000Y-133620000D03*
X148810000Y-135620000D03*
X148810000Y-137620000D03*
X148810000Y-139620000D03*
X148810000Y-141620000D03*
X148810000Y-143620000D03*
D27*
X146160000Y-146270000D03*
X144160000Y-146270000D03*
X142160000Y-146270000D03*
X140160000Y-146270000D03*
X138160000Y-146270000D03*
X136160000Y-146270000D03*
X134160000Y-146270000D03*
X132160000Y-146270000D03*
X130160000Y-146270000D03*
X128160000Y-146270000D03*
D28*
X125510000Y-143620000D03*
X125510000Y-141620000D03*
X125510000Y-139620000D03*
X125510000Y-137620000D03*
X125510000Y-135620000D03*
X125510000Y-133620000D03*
X125510000Y-131620000D03*
X125510000Y-129620000D03*
X125510000Y-127620000D03*
X125510000Y-125620000D03*
%TD*%
D26*
%TO.C,Q2*%
X154290000Y-100325000D03*
X154940000Y-100325000D03*
X155590000Y-100325000D03*
X155590000Y-102875000D03*
X154940000Y-102875000D03*
X154290000Y-102875000D03*
%TD*%
D16*
%TO.C,R14*%
X154582500Y-116840000D03*
X152757500Y-116840000D03*
%TD*%
D21*
%TO.C,C1*%
X91667500Y-85090000D03*
X89942500Y-85090000D03*
%TD*%
D12*
%TO.C,R20*%
X107950000Y-83462500D03*
X107950000Y-81637500D03*
%TD*%
D13*
%TO.C,R31*%
X127000000Y-151487500D03*
X127000000Y-153312500D03*
%TD*%
D12*
%TO.C,R9*%
X133985000Y-119657500D03*
X133985000Y-117832500D03*
%TD*%
D29*
%TO.C,U2*%
X143510000Y-111240000D03*
X140970000Y-111240000D03*
X138430000Y-111240000D03*
X135890000Y-111240000D03*
X133350000Y-111240000D03*
X130810000Y-111240000D03*
X130810000Y-97040000D03*
X133350000Y-97040000D03*
X135890000Y-97040000D03*
X138430000Y-97040000D03*
X140970000Y-97040000D03*
%TD*%
D13*
%TO.C,R29*%
X157480000Y-94337500D03*
X157480000Y-96162500D03*
%TD*%
D12*
%TO.C,R26*%
X139700000Y-83462500D03*
X139700000Y-81637500D03*
%TD*%
M02*
