M48
; DRILL file {KiCad 9.0.4} date 2025-09-26T18:44:51-0600
; FORMAT={-:-/ absolute / metric / decimal}
; #@! TF.CreationDate,2025-09-26T18:44:51-06:00
; #@! TF.GenerationSoftware,Kicad,Pcbnew,9.0.4
; #@! TF.FileFunction,Plated,1,4,PTH
FMAT,2
METRIC
; #@! TA.AperFunction,Plated,PTH,ViaDrill
T1C0.305
; #@! TA.AperFunction,Plated,PTH,ComponentDrill
T2C0.500
; #@! TA.AperFunction,Plated,PTH,ComponentDrill
T3C0.550
; #@! TA.AperFunction,Plated,PTH,ComponentDrill
T4C1.016
%
G90
G05
T1
X86.36Y-89.535
X90.805Y-96.52
X92.71Y-90.805
X93.98Y-61.595
X99.695Y-67.31
X103.505Y-93.345
X106.68Y-71.12
X114.3Y-125.095
X114.935Y-116.84
X115.57Y-43.815
X115.57Y-49.53
X115.57Y-55.88
X115.57Y-61.595
X118.11Y-93.98
X121.158Y-132.969
X122.022Y-131.597
X122.834Y-132.41
X122.834Y-140.894
X123.317Y-143.637
X123.561Y-141.62
X124.308Y-122.072
X125.044Y-122.885
X125.476Y-145.415
X125.73Y-121.285
X125.755Y-123.622
X127.508Y-119.761
X128.156Y-120.409
X128.321Y-126.238
X128.321Y-127.0
X128.321Y-142.24
X128.321Y-143.002
X128.638Y-149.111
X128.905Y-97.155
X128.905Y-110.49
X129.21Y-149.682
X129.515Y-118.923
X130.175Y-118.288
X130.175Y-143.51
X130.835Y-125.984
X131.125Y-130.35
X131.597Y-125.4
X131.8Y-129.667
X132.486Y-128.981
X132.715Y-125.73
X133.985Y-68.58
X136.246Y-150.52
X137.16Y-61.595
X137.16Y-85.725
X139.37Y-150.52
X139.75Y-143.875
X140.437Y-151.663
X140.97Y-88.265
X140.97Y-93.98
X140.97Y-99.695
X141.125Y-143.875
X141.125Y-152.629
X142.24Y-46.355
X142.24Y-152.4
X142.875Y-143.51
X146.05Y-125.73
X146.05Y-136.525
X146.685Y-50.165
X151.13Y-116.84
X151.13Y-152.4
X151.765Y-107.315
X153.035Y-100.33
X153.035Y-111.76
X154.94Y-55.88
X160.02Y-124.46
X162.56Y-60.96
X162.56Y-64.135
X163.195Y-92.71
X163.449Y-71.12
X163.83Y-88.265
X163.83Y-107.95
X165.735Y-90.805
T4
X134.68Y-156.23
X134.68Y-158.77
X137.22Y-156.23
X137.22Y-158.77
X139.76Y-156.23
X139.76Y-158.77
T2
G00X105.994Y-138.049
M15
G01X106.566Y-137.739
M16
G05
G00X109.334Y-144.201
M15
G01X109.906Y-143.891
M16
G05
T3
G00X109.213Y-137.638
M15
G01X109.046Y-137.331
M16
G05
G00X111.599Y-142.033
M15
G01X111.432Y-141.725
M16
G05
M30
