<?xml version="1.0" encoding="UTF-8" standalone="no"?>
<!-- Created with Inkscape (http://www.inkscape.org/) -->

<svg
   version="1.1"
   id="svg1"
   width="675.20001"
   height="1024.3199"
   viewBox="0 0 675.20001 1024.3199"
   sodipodi:docname="cromulon-outline.svg"
   inkscape:version="1.3.2 (091e20e, 2023-11-25, custom)"
   xmlns:inkscape="http://www.inkscape.org/namespaces/inkscape"
   xmlns:sodipodi="http://sodipodi.sourceforge.net/DTD/sodipodi-0.dtd"
   xmlns="http://www.w3.org/2000/svg"
   xmlns:svg="http://www.w3.org/2000/svg">
  <defs
     id="defs1" />
  <sodipodi:namedview
     id="namedview1"
     pagecolor="#ffffff"
     bordercolor="#000000"
     borderopacity="0.25"
     inkscape:showpageshadow="2"
     inkscape:pageopacity="0.0"
     inkscape:pagecheckerboard="0"
     inkscape:deskcolor="#d1d1d1"
     inkscape:zoom="1.14515"
     inkscape:cx="359.77819"
     inkscape:cy="368.9473"
     inkscape:window-width="1917"
     inkscape:window-height="1315"
     inkscape:window-x="1495"
     inkscape:window-y="15"
     inkscape:window-maximized="0"
     inkscape:current-layer="g1" />
  <g
     inkscape:groupmode="layer"
     inkscape:label="Image"
     id="g1">
    <path
       style="fill:none;stroke:#ff0303;stroke-opacity:1;stroke-width:0.37795276;stroke-dasharray:none"
       d="m 324.33116,4.6310971 c 16.69247,0.011123 32.96205,2.3506759 48.5572,7.5611479 12.24842,4.0923 29.49407,11.435707 37.16942,15.953152 12.5921,8.012237 46.4123,19.934223 68.11032,36.483295 9.31229,7.795138 12.16041,12.859303 22.36273,19.411991 12.11672,7.782254 27.8553,16.111637 34.32458,25.601187 5.29366,6.37048 7.20091,5.74184 13.50559,8.41131 3.20972,1.70951 37.80103,3.41148 66.33995,39.86723 8.73046,10.62108 21.87749,10.03607 30.41296,17.57305 8.53547,7.53697 13.4838,24.34312 -1.08268,25.80489 -11.40025,1.40133 -4.1436,16.68961 -0.37457,28.35509 2.89431,8.05359 19.09668,73.04096 26.13498,158.68259 4.61245,43.66475 5.04334,74.14537 2.31038,123.14318 -0.14125,11.08731 -7.0219,75.56604 -12.93307,97.14801 -6.03911,22.04911 -20.26928,46.37403 -25.54144,54.49722 -10.23789,15.72834 -17.13138,24.44537 -22.91293,45.68856 -5.78155,21.24319 -12.14925,63.81164 -13.92581,75.15208 -2.13703,18.18046 -10.19336,74.22323 -10.06399,78.16257 0.18627,16.78126 1.14769,26.47052 -6.26532,58.13838 -4.96226,21.1984 -0.0779,26.49298 -23.21111,48.25992 -25.48685,24.64824 -68.47345,48.28115 -92.68182,50.24625 -27.20974,0.7544 -28.2657,0.6505 -48.38007,-0.929 -53.18367,-4.1764 -83.94211,-18.75923 -111.50139,-28.8465 -9.35561,-3.39783 -24.19352,-12.16794 -29.9709,-19.18765 -8.89351,-10.80591 -24.26041,-20.16188 -32.41589,-28.44457 C 217.14733,916.31883 205.73243,892.69134 176.09446,839.15235 155.15069,801.17364 136.7404,761.92409 119.3863,722.25961 102.41594,696.20203 85.949701,669.51413 65.218137,646.50965 44.202736,612.21975 22.486473,576.74172 17.966699,535.84103 15.888711,522.74014 12.19343,508.99663 6.8821248,494.80776 4.4535408,488.31992 6.3439157,479.9678 4.5882496,465.53458 0.80709388,432.85381 3.0646898,384.11544 3.9214263,367.13194 6.3006828,319.96679 19.247515,278.37363 22.424913,268.60655 36.886835,215.42436 78.372924,169.32629 108.10437,124.19479 113.9747,115.16241 123.93443,98.742212 142.00691,76.255783 154.49295,60.720206 168.36305,49.231008 183.54332,38.85644 202.53994,25.4951 221.47323,20.398679 242.97786,15.355022 271.18971,8.7382662 298.16418,4.5563821 312.60094,4.6139755 Z"
       id="path1"
       sodipodi:nodetypes="csccscccsccccscsccsccscscccccscsccscscc" />
  </g>
</svg>
